<svg xmlns="http://www.w3.org/2000/svg" viewBox="0 0 56.25 56.27"><defs><style>.cls-1{isolation:isolate;}.cls-2{fill:#f1f2f2;}.cls-3{mix-blend-mode:multiply;}.cls-4{fill:#939598;}.cls-5{fill:#d22940;}</style></defs><title>2Recurso 1</title><g class="cls-1"><g id="Capa_2" data-name="Capa 2"><g id="Layer_1" data-name="Layer 1"><rect class="cls-2" width="56.25" height="56.27" rx="2.14"/><g class="cls-3"><rect class="cls-2" y="11.29" width="56.25" height="8.24"/></g><path d="M16.85,8.3a.88.88,0,0,1-.39-.07V7.84a1.58,1.58,0,0,0,.38,0,.49.49,0,0,0,.38-.15.7.7,0,0,0,.12-.44V3.61h.47V7.26a1.08,1.08,0,0,1-.25.77A.92.92,0,0,1,16.85,8.3Z"/><path d="M21.11,7.32l-.45-1.15H19.19l-.44,1.15h-.47L19.73,3.6h.42l1.44,3.72Zm-.59-1.57-.41-1.12-.18-.55a5.26,5.26,0,0,1-.16.55l-.42,1.12Z"/><path d="M25,7.32h-.55l-2-3.08h0v.21c0,.3,0,.57,0,.8V7.32H22.1V3.61h.54l.11.18L24,5.67l.65,1h0s0-.19,0-.44,0-.43,0-.54V3.61H25Z"/><path d="M28.86,3.61V6a1.31,1.31,0,0,1-.38,1,1.47,1.47,0,0,1-1.07.37,1.45,1.45,0,0,1-1-.37A1.37,1.37,0,0,1,26,6V3.61h.47V6a1,1,0,0,0,.24.71,1,1,0,0,0,.73.24,1,1,0,0,0,.71-.24A1,1,0,0,0,28.39,6V3.61Z"/><path d="M32.13,7.32l-.45-1.15H30.22l-.45,1.15H29.3L30.75,3.6h.42l1.44,3.72Zm-.58-1.57-.42-1.12L31,4.08a5.26,5.26,0,0,1-.16.55l-.42,1.12Z"/><path d="M33.59,5.79V7.32h-.47V3.61h1a1.66,1.66,0,0,1,1,.26,1,1,0,0,1,.33.79,1,1,0,0,1-.74,1l1,1.66h-.55l-.89-1.53Zm0-.4h.55a1,1,0,0,0,.66-.18A.64.64,0,0,0,35,4.69a.58.58,0,0,0-.21-.51A1.11,1.11,0,0,0,34.12,4h-.53Z"/><path d="M37.31,5.43l1-1.82h.5L37.55,5.88V7.32h-.47V5.9L35.85,3.61h.5Z"/><path class="cls-4" d="M7.23,15.91a.73.73,0,0,1-.28.62,1.24,1.24,0,0,1-.79.23,2,2,0,0,1-.83-.14v-.36a2.58,2.58,0,0,0,.42.12,1.63,1.63,0,0,0,.43.05.79.79,0,0,0,.5-.13A.39.39,0,0,0,6.85,16a.46.46,0,0,0-.06-.25.65.65,0,0,0-.21-.18,2.31,2.31,0,0,0-.43-.19,1.4,1.4,0,0,1-.6-.36.77.77,0,0,1-.18-.53.67.67,0,0,1,.27-.56,1.05,1.05,0,0,1,.69-.21,2.05,2.05,0,0,1,.83.17L7,14.16A2,2,0,0,0,6.32,14a.65.65,0,0,0-.41.12.36.36,0,0,0-.16.32.49.49,0,0,0,.06.25.53.53,0,0,0,.19.17,2.32,2.32,0,0,0,.41.19,2.12,2.12,0,0,1,.5.24.66.66,0,0,1,.24.26A.8.8,0,0,1,7.23,15.91Z"/><path class="cls-4" d="M13.62,16.72l-1-2.64h0c0,.22,0,.49,0,.82v1.82h-.35v-3h.56l.93,2.47h0l1-2.47h.55v3h-.37V14.87c0-.2,0-.47,0-.78h0l-1,2.63Z"/><path class="cls-4" d="M21.51,16.72h-.38V14.05h-.94v-.34h2.25v.34h-.93Z"/><path class="cls-4" d="M30,16.72h-.38l-.58-2a3.77,3.77,0,0,1-.15-.59,4.71,4.71,0,0,1-.15.6l-.57,2h-.38l-.79-3h.39l.47,1.84a6.35,6.35,0,0,1,.14.71,6.09,6.09,0,0,1,.16-.73l.53-1.82h.39l.55,1.83a4.69,4.69,0,0,1,.17.72,5.91,5.91,0,0,1,.14-.72l.47-1.83h.39Z"/><path class="cls-4" d="M36.67,16.72h-.38V14.05h-.94v-.34H37.6v.34h-.93Z"/><path class="cls-4" d="M42.89,16.72h-.37v-3h1.67v.34h-1.3v1.06h1.22v.33H42.89Z"/><path class="cls-4" d="M50.86,15.91a.74.74,0,0,1-.29.62,1.23,1.23,0,0,1-.78.23,2,2,0,0,1-.83-.14v-.36a2.58,2.58,0,0,0,.42.12,1.6,1.6,0,0,0,.42.05.82.82,0,0,0,.51-.13.41.41,0,0,0,.17-.35.46.46,0,0,0-.06-.25.65.65,0,0,0-.21-.18,2.46,2.46,0,0,0-.44-.19,1.36,1.36,0,0,1-.59-.36.77.77,0,0,1-.18-.53.68.68,0,0,1,.26-.56,1.1,1.1,0,0,1,.7-.21,2,2,0,0,1,.82.17l-.11.32A2,2,0,0,0,50,14a.66.66,0,0,0-.42.12.38.38,0,0,0-.15.32.49.49,0,0,0,.06.25.53.53,0,0,0,.19.17,2,2,0,0,0,.41.19,2.12,2.12,0,0,1,.5.24.66.66,0,0,1,.24.26A.8.8,0,0,1,50.86,15.91Z"/><path class="cls-5" d="M24.51,31.23A3.27,3.27,0,1,1,21.25,28,3.27,3.27,0,0,1,24.51,31.23Z"/><path d="M7.23,26.64H6.88v-2c0-.18,0-.34,0-.5l-.12.11c-.13.11-.28.24-.44.36l-.18-.23.77-.61h.3Z"/><path d="M15.41,26.64h-1.9v-.3l.75-.76a4.68,4.68,0,0,0,.45-.49,1.1,1.1,0,0,0,.17-.29.93.93,0,0,0,0-.29.48.48,0,0,0-.13-.36.55.55,0,0,0-.37-.12,1.27,1.27,0,0,0-.34,0,1.34,1.34,0,0,0-.36.22l-.18-.24a1.35,1.35,0,0,1,.88-.34.92.92,0,0,1,.63.21.69.69,0,0,1,.23.56,1.13,1.13,0,0,1-.06.36,1.68,1.68,0,0,1-.21.36,5.48,5.48,0,0,1-.46.5l-.6.59h1.45Z"/><path d="M22.82,24.44a.68.68,0,0,1-.15.45.75.75,0,0,1-.44.23v0a.81.81,0,0,1,.51.22.65.65,0,0,1,.17.46.75.75,0,0,1-.28.63,1.31,1.31,0,0,1-.82.22,2.77,2.77,0,0,1-.42,0,1.23,1.23,0,0,1-.37-.12v-.33a1.64,1.64,0,0,0,.39.14,1.9,1.9,0,0,0,.4.05c.49,0,.73-.19.73-.57s-.27-.51-.8-.51h-.28V25h.28a.84.84,0,0,0,.53-.14.47.47,0,0,0,.19-.4.39.39,0,0,0-.14-.32.56.56,0,0,0-.38-.12,1.36,1.36,0,0,0-.36.05,2.18,2.18,0,0,0-.37.19L21,24a1.53,1.53,0,0,1,.4-.22,1.62,1.62,0,0,1,.49-.08,1.08,1.08,0,0,1,.66.19A.67.67,0,0,1,22.82,24.44Z"/><path d="M30.58,26h-.41v.66h-.34V26H28.45v-.3l1.35-1.93h.37v1.92h.41Zm-.75-.31v-.91c0-.18,0-.39,0-.63h0l-.08.15c0,.07-.07.12-.09.16l-.86,1.23Z"/><path d="M37,24.87a1,1,0,0,1,.71.23.79.79,0,0,1,.26.62.89.89,0,0,1-.29.7,1.14,1.14,0,0,1-.79.25,1.51,1.51,0,0,1-.74-.15v-.33a1.68,1.68,0,0,0,.75.18.75.75,0,0,0,.52-.16.57.57,0,0,0,.18-.46c0-.38-.24-.58-.71-.58a2.12,2.12,0,0,0-.49.06l-.18-.11.11-1.36h1.44v.33H36.62l-.07.83A2.28,2.28,0,0,1,37,24.87Z"/><path d="M42.58,25.41c0-1.13.44-1.69,1.32-1.69a1.46,1.46,0,0,1,.35,0v.3a1.16,1.16,0,0,0-.34,0,.89.89,0,0,0-.7.28,1.35,1.35,0,0,0-.27.89h0a.74.74,0,0,1,.68-.34.82.82,0,0,1,.61.23.89.89,0,0,1,.22.64,1,1,0,0,1-.24.71.9.9,0,0,1-.67.25.93.93,0,0,1-.51-.14,1,1,0,0,1-.35-.44A1.76,1.76,0,0,1,42.58,25.41Zm1,1A.52.52,0,0,0,44,26.2a.77.77,0,0,0,.14-.49.6.6,0,0,0-.14-.44.54.54,0,0,0-.41-.15.68.68,0,0,0-.32.07.51.51,0,0,0-.22.19.45.45,0,0,0-.09.26A.91.91,0,0,0,43,26a.64.64,0,0,0,.22.27A.51.51,0,0,0,43.56,26.38Z"/><path d="M49.39,26.64l1.17-2.55H49v-.33h1.93V24l-1.17,2.6Z"/><path d="M7,29.75a1,1,0,0,1,.62.19.59.59,0,0,1,.24.5.6.6,0,0,1-.14.39,1.19,1.19,0,0,1-.41.32,1.44,1.44,0,0,1,.49.35.64.64,0,0,1,.15.42.73.73,0,0,1-.25.57,1.06,1.06,0,0,1-.69.22,1.11,1.11,0,0,1-.71-.2A.7.7,0,0,1,6,31.93a.84.84,0,0,1,.59-.76,1.17,1.17,0,0,1-.38-.33.7.7,0,0,1-.12-.4.61.61,0,0,1,.23-.5A1,1,0,0,1,7,29.75Zm-.61,2.19a.44.44,0,0,0,.16.36.75.75,0,0,0,.45.13.66.66,0,0,0,.44-.14.44.44,0,0,0,.16-.36.46.46,0,0,0-.15-.34,1.46,1.46,0,0,0-.51-.28,1.17,1.17,0,0,0-.42.27A.52.52,0,0,0,6.34,31.94Zm.6-1.9a.6.6,0,0,0-.37.11.37.37,0,0,0-.13.31.36.36,0,0,0,0,.21.4.4,0,0,0,.15.17A1.49,1.49,0,0,0,7,31a.89.89,0,0,0,.38-.25.42.42,0,0,0,.12-.3.37.37,0,0,0-.14-.31A.63.63,0,0,0,6.94,30Z"/><path d="M15.41,31c0,1.12-.44,1.69-1.32,1.69a1.63,1.63,0,0,1-.36,0v-.31a1,1,0,0,0,.35.06,1,1,0,0,0,.53-.13.8.8,0,0,0,.32-.38,1.84,1.84,0,0,0,.12-.65h0a.89.89,0,0,1-1.29.1.86.86,0,0,1-.22-.64,1,1,0,0,1,.25-.7.87.87,0,0,1,.67-.27.91.91,0,0,1,.51.16.92.92,0,0,1,.34.43A1.76,1.76,0,0,1,15.41,31Zm-1-1a.52.52,0,0,0-.42.18.72.72,0,0,0-.15.49.64.64,0,0,0,.14.44.53.53,0,0,0,.41.15.66.66,0,0,0,.32-.07.55.55,0,0,0,.23-.19.42.42,0,0,0,.08-.26.94.94,0,0,0-.07-.37.84.84,0,0,0-.22-.27A.58.58,0,0,0,14.44,30.05Z"/><path d="M20.18,32.67h-.35v-2c0-.18,0-.34,0-.49l-.12.11-.44.36-.18-.24.77-.6h.3Z"/><path d="M23.15,31.23a2.14,2.14,0,0,1-.23,1.11.82.82,0,0,1-.72.37.79.79,0,0,1-.71-.38,2.06,2.06,0,0,1-.24-1.1,2.1,2.1,0,0,1,.23-1.12.79.79,0,0,1,.72-.36.81.81,0,0,1,.71.38A2.06,2.06,0,0,1,23.15,31.23Zm-1.55,0a2.21,2.21,0,0,0,.14.9.5.5,0,0,0,.46.28.47.47,0,0,0,.45-.29,2,2,0,0,0,.14-.89,2,2,0,0,0-.14-.89.47.47,0,0,0-.45-.29.5.5,0,0,0-.46.28A2.21,2.21,0,0,0,21.6,31.23Z"/><path d="M27.91,32.67h-.34v-2c0-.18,0-.34,0-.49l-.12.11-.44.36-.18-.24.77-.6h.29Z"/><path d="M30.21,32.67h-.34v-2c0-.18,0-.34,0-.49l-.11.11-.44.36-.19-.24.78-.6h.29Z"/><path d="M34.6,32.67h-.34v-2c0-.18,0-.34,0-.49l-.12.11-.43.36-.19-.24.78-.6h.29Z"/><path d="M37.56,32.67h-1.9v-.3l.76-.76c.22-.23.37-.39.45-.49a1.64,1.64,0,0,0,.16-.28.94.94,0,0,0,0-.3.45.45,0,0,0-.13-.35.51.51,0,0,0-.37-.13,1,1,0,0,0-.34.06,1.53,1.53,0,0,0-.35.21l-.19-.24a1.37,1.37,0,0,1,.88-.34.9.9,0,0,1,.63.21.7.7,0,0,1,.24.56,1.1,1.1,0,0,1-.07.36,1.68,1.68,0,0,1-.21.36,4.31,4.31,0,0,1-.46.5l-.6.59h1.45Z"/><path d="M41.29,32.67h-.35v-2c0-.18,0-.34,0-.49l-.12.11-.44.36-.18-.24.77-.6h.3Z"/><path d="M44.14,30.47a.68.68,0,0,1-.15.45.72.72,0,0,1-.44.23v0a.81.81,0,0,1,.51.22.65.65,0,0,1,.17.46.76.76,0,0,1-.29.63,1.28,1.28,0,0,1-.81.23,1.87,1.87,0,0,1-.42,0,1.23,1.23,0,0,1-.37-.12v-.33a1.64,1.64,0,0,0,.39.14,1.9,1.9,0,0,0,.4,0c.49,0,.73-.19.73-.57s-.27-.5-.8-.5h-.28V31h.28a.86.86,0,0,0,.53-.15.5.5,0,0,0,.19-.4.4.4,0,0,0-.14-.32.56.56,0,0,0-.38-.12,1,1,0,0,0-.36.06,1.3,1.3,0,0,0-.37.19l-.18-.25a1.78,1.78,0,0,1,.41-.22,1.62,1.62,0,0,1,.49-.08,1,1,0,0,1,.66.2A.64.64,0,0,1,44.14,30.47Z"/><path d="M48,32.67h-.34v-2c0-.18,0-.34,0-.49l-.12.11-.43.36-.19-.24.78-.6H48Z"/><path d="M51.06,32h-.41v.66H50.3V32H48.93v-.3l1.35-1.93h.37V31.7h.41Zm-.76-.31v-.91c0-.18,0-.39,0-.63h0l-.08.15-.1.16-.86,1.23Z"/><path d="M5.14,38.7H4.79v-2c0-.18,0-.34,0-.49l-.12.11-.44.36-.18-.24.77-.6h.3Z"/><path d="M7.11,36.94a1,1,0,0,1,.71.22.79.79,0,0,1,.26.62.92.92,0,0,1-.28.7,1.16,1.16,0,0,1-.79.26,1.44,1.44,0,0,1-.75-.16v-.33a1.42,1.42,0,0,0,.35.14,1.9,1.9,0,0,0,.4,0,.79.79,0,0,0,.52-.16.56.56,0,0,0,.19-.46c0-.39-.24-.58-.72-.58a2.81,2.81,0,0,0-.49,0l-.18-.11.11-1.35H7.88v.32H6.74L6.67,37A2.25,2.25,0,0,1,7.11,36.94Z"/><path d="M12.87,38.7h-.35v-2c0-.18,0-.34,0-.49l-.12.11-.44.36-.18-.24.78-.6h.29Z"/><path d="M14,37.47c0-1.12.44-1.68,1.31-1.68a1.66,1.66,0,0,1,.36,0v.3a1.25,1.25,0,0,0-.35,0,.87.87,0,0,0-.7.28,1.44,1.44,0,0,0-.27.88h0A.76.76,0,0,1,15,36.9a.79.79,0,0,1,.61.24.86.86,0,0,1,.22.63,1,1,0,0,1-.25.71.87.87,0,0,1-.66.26.91.91,0,0,1-.52-.15,1,1,0,0,1-.34-.44A1.76,1.76,0,0,1,14,37.47Zm1,1a.54.54,0,0,0,.42-.17.75.75,0,0,0,.15-.5.66.66,0,0,0-.14-.44.57.57,0,0,0-.42-.15.67.67,0,0,0-.31.07.63.63,0,0,0-.23.2.5.5,0,0,0-.08.26.73.73,0,0,0,.08.36.58.58,0,0,0,.21.27A.53.53,0,0,0,14.93,38.44Z"/><path d="M20.6,38.7h-.35v-2c0-.18,0-.34,0-.49l-.12.11-.44.36-.18-.24.78-.6h.29Z"/><path d="M22,38.7l1.18-2.55H21.65v-.32h1.92v.27l-1.16,2.6Z"/><path d="M27.29,38.7H27v-2c0-.18,0-.34,0-.49l-.12.11-.43.36-.19-.24.78-.6h.29Z"/><path d="M29.31,35.79a1,1,0,0,1,.63.18.61.61,0,0,1,.23.5.65.65,0,0,1-.13.39,1.22,1.22,0,0,1-.42.32,1.34,1.34,0,0,1,.49.35.66.66,0,0,1,.15.42.73.73,0,0,1-.25.58,1.05,1.05,0,0,1-.69.21,1.13,1.13,0,0,1-.71-.2.7.7,0,0,1-.25-.57A.85.85,0,0,1,29,37.2a1.15,1.15,0,0,1-.38-.33.7.7,0,0,1-.12-.4.61.61,0,0,1,.24-.5A1,1,0,0,1,29.31,35.79ZM28.7,38a.45.45,0,0,0,.17.36.7.7,0,0,0,.44.13.64.64,0,0,0,.44-.14.43.43,0,0,0,.17-.36.47.47,0,0,0-.16-.34,1.46,1.46,0,0,0-.51-.28,1.33,1.33,0,0,0-.42.28A.52.52,0,0,0,28.7,38Zm.6-1.9a.57.57,0,0,0-.36.11.37.37,0,0,0-.14.31.54.54,0,0,0,.05.22.8.8,0,0,0,.15.17l.32.16a1,1,0,0,0,.39-.24.51.51,0,0,0,.11-.31.4.4,0,0,0-.14-.31A.61.61,0,0,0,29.3,36.07Z"/><path d="M35,38.7h-.34v-2c0-.18,0-.34,0-.49l-.12.11-.43.36L34,36.43l.78-.6H35Z"/><path d="M38,37.05c0,1.13-.44,1.69-1.32,1.69a1.19,1.19,0,0,1-.36,0v-.3a1.25,1.25,0,0,0,.36.05.91.91,0,0,0,.52-.13A.78.78,0,0,0,37.5,38a1.93,1.93,0,0,0,.13-.66h0a.77.77,0,0,1-.68.34.75.75,0,0,1-.6-.24.85.85,0,0,1-.23-.63,1,1,0,0,1,.25-.71.87.87,0,0,1,.67-.26.88.88,0,0,1,.85.59A1.71,1.71,0,0,1,38,37.05Zm-1-1a.51.51,0,0,0-.42.17.74.74,0,0,0-.15.49.64.64,0,0,0,.14.44.54.54,0,0,0,.41.15.72.72,0,0,0,.33-.07.59.59,0,0,0,.22-.19.43.43,0,0,0,.09-.26,1,1,0,0,0-.08-.37.73.73,0,0,0-.22-.27A.57.57,0,0,0,37,36.09Z"/><path d="M42.37,38.7h-1.9v-.3l.75-.76a3.83,3.83,0,0,0,.45-.49,1.05,1.05,0,0,0,.17-.28.94.94,0,0,0,0-.3.45.45,0,0,0-.13-.35.51.51,0,0,0-.37-.13,1,1,0,0,0-.34.06,1.81,1.81,0,0,0-.36.21l-.18-.24a1.34,1.34,0,0,1,.88-.33A1,1,0,0,1,42,36a.7.7,0,0,1,.23.56,1,1,0,0,1-.06.36,1.68,1.68,0,0,1-.21.36,5.48,5.48,0,0,1-.46.5l-.6.59v0h1.45Z"/><path d="M44.68,37.26a2,2,0,0,1-.24,1.11.86.86,0,0,1-1.42,0,2.06,2.06,0,0,1-.25-1.1A2,2,0,0,1,43,36.15a.77.77,0,0,1,.71-.37.81.81,0,0,1,.72.38A2.06,2.06,0,0,1,44.68,37.26Zm-1.55,0a2.15,2.15,0,0,0,.14.9.51.51,0,0,0,.91,0,2,2,0,0,0,.14-.89,2,2,0,0,0-.14-.89.51.51,0,0,0-.91,0A2.21,2.21,0,0,0,43.13,37.26Z"/><path d="M49.06,38.7h-1.9v-.3l.75-.76a3.83,3.83,0,0,0,.45-.49,1,1,0,0,0,.16-.28.73.73,0,0,0,.06-.3.45.45,0,0,0-.14-.35.49.49,0,0,0-.37-.13.88.88,0,0,0-.33.06,1.38,1.38,0,0,0-.36.21l-.19-.24a1.36,1.36,0,0,1,.88-.33,1,1,0,0,1,.64.2.74.74,0,0,1,.23.56.86.86,0,0,1-.07.36,1.3,1.3,0,0,1-.2.36,5.93,5.93,0,0,1-.47.5l-.6.59v0h1.46Z"/><path d="M50.69,38.7h-.34v-2c0-.18,0-.34,0-.49l-.12.11-.43.36-.19-.24.78-.6h.29Z"/><path d="M5.8,44.73H3.9v-.29l.76-.76c.22-.23.37-.4.44-.49a1.28,1.28,0,0,0,.17-.29.94.94,0,0,0,.05-.3.45.45,0,0,0-.13-.35.51.51,0,0,0-.37-.13,1,1,0,0,0-.34.06,1.53,1.53,0,0,0-.35.21l-.19-.23a1.3,1.3,0,0,1,.88-.34,1,1,0,0,1,.63.2.71.71,0,0,1,.24.56,1.16,1.16,0,0,1-.07.37,1.9,1.9,0,0,1-.21.35,3.62,3.62,0,0,1-.46.5l-.6.59v0H5.8Z"/><path d="M8.1,44.73H6.2v-.29L7,43.68a6,6,0,0,0,.45-.49,1.28,1.28,0,0,0,.17-.29.94.94,0,0,0,0-.3.45.45,0,0,0-.13-.35.53.53,0,0,0-.38-.13.92.92,0,0,0-.33.06,1.57,1.57,0,0,0-.36.21l-.19-.23a1.34,1.34,0,0,1,.88-.34,1,1,0,0,1,.64.2.7.7,0,0,1,.23.56,1.15,1.15,0,0,1-.06.37,1.9,1.9,0,0,1-.21.35,4.4,4.4,0,0,1-.46.5l-.6.59v0H8.1Z"/><path d="M13.53,44.73h-1.9v-.29l.76-.76.45-.49A1.71,1.71,0,0,0,13,42.9a.94.94,0,0,0,.05-.3.45.45,0,0,0-.13-.35.51.51,0,0,0-.37-.13,1,1,0,0,0-.34.06,1.53,1.53,0,0,0-.35.21l-.19-.23a1.3,1.3,0,0,1,.88-.34,1,1,0,0,1,.63.2.71.71,0,0,1,.24.56,1.16,1.16,0,0,1-.07.37,1.9,1.9,0,0,1-.21.35,3.62,3.62,0,0,1-.46.5l-.6.59v0h1.45Z"/><path d="M15.72,42.53a.66.66,0,0,1-.15.45.79.79,0,0,1-.44.24h0a.86.86,0,0,1,.51.22.67.67,0,0,1,.17.46.76.76,0,0,1-.28.64,1.31,1.31,0,0,1-.82.22,2.77,2.77,0,0,1-.42,0,1.63,1.63,0,0,1-.37-.13v-.32a1.63,1.63,0,0,0,.39.13,1.41,1.41,0,0,0,.4,0c.49,0,.73-.19.73-.56s-.27-.51-.8-.51h-.28v-.3h.28a.84.84,0,0,0,.53-.15.45.45,0,0,0,.19-.4.42.42,0,0,0-.14-.32.61.61,0,0,0-.38-.11,1,1,0,0,0-.36.05,1.63,1.63,0,0,0-.37.19l-.17-.24a1.11,1.11,0,0,1,.4-.22,1.62,1.62,0,0,1,.49-.08,1,1,0,0,1,.66.19A.65.65,0,0,1,15.72,42.53Z"/><path d="M21.26,44.73h-1.9v-.29l.76-.76.45-.49a1.71,1.71,0,0,0,.16-.29.94.94,0,0,0,.05-.3.45.45,0,0,0-.13-.35.51.51,0,0,0-.37-.13,1,1,0,0,0-.34.06,1.53,1.53,0,0,0-.35.21l-.19-.23a1.32,1.32,0,0,1,.88-.34,1,1,0,0,1,.63.2.71.71,0,0,1,.24.56,1.16,1.16,0,0,1-.07.37,1.9,1.9,0,0,1-.21.35,3.62,3.62,0,0,1-.46.5l-.6.59v0h1.45Z"/><path d="M23.69,44.08h-.42v.65h-.34v-.65H21.55v-.3l1.35-1.94h.37v1.92h.42Zm-.76-.32v-.9c0-.18,0-.39,0-.64h0a.93.93,0,0,1-.07.15,1.94,1.94,0,0,1-.1.17l-.86,1.22Z"/><path d="M28,44.73h-1.9v-.29l.75-.76.45-.49a1.21,1.21,0,0,0,.16-.29.73.73,0,0,0,.06-.3.45.45,0,0,0-.14-.35.49.49,0,0,0-.37-.13,1,1,0,0,0-.34.06,1.53,1.53,0,0,0-.35.21l-.19-.23a1.32,1.32,0,0,1,.88-.34.93.93,0,0,1,.63.2.71.71,0,0,1,.24.56.94.94,0,0,1-.07.37,1.47,1.47,0,0,1-.21.35,3.62,3.62,0,0,1-.46.5l-.6.59v0H28Z"/><path d="M29.27,43a1,1,0,0,1,.71.23.76.76,0,0,1,.25.61.91.91,0,0,1-.28.71,1.19,1.19,0,0,1-.79.25,1.38,1.38,0,0,1-.74-.16v-.33a1.34,1.34,0,0,0,.34.14,1.9,1.9,0,0,0,.4,0,.78.78,0,0,0,.53-.16.59.59,0,0,0,.18-.46c0-.39-.24-.58-.72-.58a2.18,2.18,0,0,0-.49.06l-.18-.12.11-1.35H30v.32H28.89l-.06.83A2.18,2.18,0,0,1,29.27,43Z"/><path d="M35.68,44.73H33.79v-.29l.75-.76.45-.49a1.71,1.71,0,0,0,.16-.29.73.73,0,0,0,.06-.3.45.45,0,0,0-.14-.35.49.49,0,0,0-.37-.13,1,1,0,0,0-.34.06,1.53,1.53,0,0,0-.35.21l-.19-.23a1.32,1.32,0,0,1,.88-.34.93.93,0,0,1,.63.2.71.71,0,0,1,.24.56,1.16,1.16,0,0,1-.07.37,1.9,1.9,0,0,1-.21.35,3.62,3.62,0,0,1-.46.5l-.6.59v0h1.45Z"/><path d="M36.11,43.5q0-1.68,1.32-1.68a1.08,1.08,0,0,1,.35,0v.3a1.16,1.16,0,0,0-.34,0,.86.86,0,0,0-.7.28,1.37,1.37,0,0,0-.27.88h0a.76.76,0,0,1,.68-.34.79.79,0,0,1,.61.24.89.89,0,0,1,.22.64,1,1,0,0,1-.24.7.9.9,0,0,1-.67.26.85.85,0,0,1-.51-.15.92.92,0,0,1-.35-.44A1.72,1.72,0,0,1,36.11,43.5Zm1,1a.51.51,0,0,0,.42-.17.79.79,0,0,0,.14-.49.58.58,0,0,0-.14-.44.5.5,0,0,0-.41-.16.68.68,0,0,0-.32.07.53.53,0,0,0-.22.2.43.43,0,0,0-.09.26,1,1,0,0,0,.08.37.64.64,0,0,0,.22.27A.57.57,0,0,0,37.09,44.47Z"/><path d="M42.37,44.73h-1.9v-.29l.75-.76a6,6,0,0,0,.45-.49,1.28,1.28,0,0,0,.17-.29.94.94,0,0,0,0-.3.45.45,0,0,0-.13-.35.51.51,0,0,0-.37-.13,1,1,0,0,0-.34.06,1.81,1.81,0,0,0-.36.21l-.18-.23a1.3,1.3,0,0,1,.88-.34A1,1,0,0,1,42,42a.7.7,0,0,1,.23.56,1.15,1.15,0,0,1-.06.37,1.9,1.9,0,0,1-.21.35,4.4,4.4,0,0,1-.46.5l-.6.59v0h1.45Z"/><path d="M43.13,44.73l1.17-2.55H42.75v-.32h1.93v.27l-1.17,2.6Z"/><path d="M49.06,44.73h-1.9v-.29l.75-.76a6,6,0,0,0,.45-.49,1.21,1.21,0,0,0,.16-.29.73.73,0,0,0,.06-.3.45.45,0,0,0-.14-.35.49.49,0,0,0-.37-.13.88.88,0,0,0-.33.06,1.38,1.38,0,0,0-.36.21l-.19-.23a1.32,1.32,0,0,1,.88-.34,1,1,0,0,1,.64.2.74.74,0,0,1,.23.56.94.94,0,0,1-.07.37,1.41,1.41,0,0,1-.2.35,4.7,4.7,0,0,1-.47.5l-.6.59v0h1.46Z"/><path d="M50.41,41.82A1,1,0,0,1,51,42a.62.62,0,0,1,.23.51.58.58,0,0,1-.13.38,1.22,1.22,0,0,1-.42.32,1.49,1.49,0,0,1,.5.35.74.74,0,0,1,.14.43.71.71,0,0,1-.25.57,1.05,1.05,0,0,1-.69.21,1.15,1.15,0,0,1-.71-.2.67.67,0,0,1-.25-.57.85.85,0,0,1,.6-.77,1.1,1.1,0,0,1-.39-.33.7.7,0,0,1-.12-.4.61.61,0,0,1,.24-.5A1,1,0,0,1,50.41,41.82ZM49.81,44a.44.44,0,0,0,.16.36.66.66,0,0,0,.44.13.69.69,0,0,0,.45-.13A.47.47,0,0,0,51,44a.44.44,0,0,0-.16-.34,1.47,1.47,0,0,0-.51-.27,1.17,1.17,0,0,0-.42.27A.53.53,0,0,0,49.81,44Zm.6-1.89a.53.53,0,0,0-.37.11.36.36,0,0,0-.14.3.51.51,0,0,0,.05.22.64.64,0,0,0,.16.17,1.33,1.33,0,0,0,.32.16,1,1,0,0,0,.38-.24.49.49,0,0,0,.11-.31.4.4,0,0,0-.14-.31A.6.6,0,0,0,50.41,42.11Z"/><path d="M5.8,50.76H3.9v-.29l.76-.76a5.55,5.55,0,0,0,.44-.49,1.28,1.28,0,0,0,.17-.29.93.93,0,0,0,.05-.29.47.47,0,0,0-.13-.36.55.55,0,0,0-.37-.13,1,1,0,0,0-.34.06,1.31,1.31,0,0,0-.35.22l-.19-.24a1.3,1.3,0,0,1,.88-.34.92.92,0,0,1,.63.21.68.68,0,0,1,.24.55,1.16,1.16,0,0,1-.07.37,1.68,1.68,0,0,1-.21.36,4.41,4.41,0,0,1-.46.49l-.6.6H5.8Z"/><path d="M8.1,49.12q0,1.68-1.32,1.68a1.19,1.19,0,0,1-.36,0v-.3a1,1,0,0,0,.35,0,1,1,0,0,0,.53-.12A.92.92,0,0,0,7.62,50a1.84,1.84,0,0,0,.12-.65h0a.78.78,0,0,1-.69.33.81.81,0,0,1-.6-.23.89.89,0,0,1-.22-.64,1,1,0,0,1,.25-.71.89.89,0,0,1,.67-.26.9.9,0,0,1,.51.15,1,1,0,0,1,.34.44A1.76,1.76,0,0,1,8.1,49.12Zm-1-1a.54.54,0,0,0-.42.17.76.76,0,0,0-.15.5.66.66,0,0,0,.14.44.53.53,0,0,0,.41.15.79.79,0,0,0,.32-.07.57.57,0,0,0,.23-.2.46.46,0,0,0,.08-.25.77.77,0,0,0-.08-.37.58.58,0,0,0-.21-.27A.53.53,0,0,0,7.13,48.15Z"/><path d="M13.42,48.56a.69.69,0,0,1-.15.46.81.81,0,0,1-.44.23v0a.81.81,0,0,1,.51.22.6.6,0,0,1,.17.46.75.75,0,0,1-.28.63,1.29,1.29,0,0,1-.82.22,2.77,2.77,0,0,1-.42,0,1.23,1.23,0,0,1-.37-.12v-.33a2.24,2.24,0,0,0,.39.14,1.92,1.92,0,0,0,.41,0q.72,0,.72-.57c0-.34-.27-.51-.8-.51h-.28v-.3h.28a.9.9,0,0,0,.53-.14.47.47,0,0,0,.19-.4.39.39,0,0,0-.14-.32.56.56,0,0,0-.38-.12,1.23,1.23,0,0,0-.35.05,1.91,1.91,0,0,0-.38.19l-.17-.24a1.41,1.41,0,0,1,.4-.22,1.62,1.62,0,0,1,.49-.08,1,1,0,0,1,.66.19A.62.62,0,0,1,13.42,48.56Z"/><path d="M15.84,49.32a2.2,2.2,0,0,1-.23,1.12.81.81,0,0,1-.72.36.78.78,0,0,1-.71-.37,2.08,2.08,0,0,1-.24-1.11,2,2,0,0,1,.23-1.11.79.79,0,0,1,.72-.36.8.8,0,0,1,.71.37A2.09,2.09,0,0,1,15.84,49.32Zm-1.55,0a2.15,2.15,0,0,0,.14.9.48.48,0,0,0,.46.28.46.46,0,0,0,.45-.28,2.05,2.05,0,0,0,.14-.9,2,2,0,0,0-.14-.89.46.46,0,0,0-.45-.28.47.47,0,0,0-.46.28A2.13,2.13,0,0,0,14.29,49.32Z"/><path d="M21.15,48.56A.69.69,0,0,1,21,49a.81.81,0,0,1-.44.23v0a.81.81,0,0,1,.51.22.6.6,0,0,1,.17.46.75.75,0,0,1-.28.63,1.29,1.29,0,0,1-.82.22,2.77,2.77,0,0,1-.42,0,1.23,1.23,0,0,1-.37-.12v-.33a2.24,2.24,0,0,0,.39.14,2,2,0,0,0,.41,0q.72,0,.72-.57c0-.34-.27-.51-.8-.51h-.28v-.3h.28A.9.9,0,0,0,20.6,49a.47.47,0,0,0,.19-.4.36.36,0,0,0-.14-.32.56.56,0,0,0-.38-.12,1.23,1.23,0,0,0-.35.05,1.91,1.91,0,0,0-.38.19l-.17-.24a1.34,1.34,0,0,1,.41-.22,1.51,1.51,0,0,1,.48-.08,1,1,0,0,1,.66.19A.62.62,0,0,1,21.15,48.56Z"/><path d="M22.9,50.76h-.35v-2c0-.18,0-.35,0-.5l-.12.11-.44.36-.18-.24.77-.6h.3Z"/></g></g></g></svg>