<svg xmlns="http://www.w3.org/2000/svg" viewBox="0 0 56.53 56.27"><defs><style>.cls-1{isolation:isolate;}.cls-2{fill:#f1f2f2;}.cls-3{mix-blend-mode:multiply;}.cls-4{fill:#d22940;}.cls-5{fill:#939598;}</style></defs><title>2Recurso 3</title><g class="cls-1"><g id="Capa_2" data-name="Capa 2"><g id="Layer_1" data-name="Layer 1"><rect class="cls-2" x="0.28" width="56.25" height="56.27" rx="2.14"/><g class="cls-3"><rect class="cls-2" y="11.29" width="56.25" height="8.24"/></g><path class="cls-4" d="M32.3,43.38A3.27,3.27,0,1,1,29,40.11,3.27,3.27,0,0,1,32.3,43.38Z"/><path class="cls-5" d="M8.94,15.91a.74.74,0,0,1-.29.62,1.24,1.24,0,0,1-.79.23A2,2,0,0,1,7,16.62v-.36a2.58,2.58,0,0,0,.42.12,1.6,1.6,0,0,0,.42.05.82.82,0,0,0,.51-.13A.41.41,0,0,0,8.56,16a.46.46,0,0,0-.06-.25.65.65,0,0,0-.21-.18,2.46,2.46,0,0,0-.44-.19A1.36,1.36,0,0,1,7.26,15a.77.77,0,0,1-.18-.53.68.68,0,0,1,.26-.56,1.1,1.1,0,0,1,.7-.21,2,2,0,0,1,.82.17l-.11.32A2,2,0,0,0,8,14a.66.66,0,0,0-.42.12.38.38,0,0,0-.15.32.49.49,0,0,0,.06.25.53.53,0,0,0,.19.17,2,2,0,0,0,.41.19,2.12,2.12,0,0,1,.5.24.66.66,0,0,1,.24.26A.8.8,0,0,1,8.94,15.91Z"/><path class="cls-5" d="M15.07,16.72l-1-2.64h0c0,.22,0,.49,0,.82v1.82h-.34v-3h.55l.93,2.47h0l.94-2.47h.55v3h-.37V14.87c0-.2,0-.47,0-.78h0l-1,2.63Z"/><path class="cls-5" d="M22.71,16.72h-.38V14.05H21.4v-.34h2.25v.34h-.94Z"/><path class="cls-5" d="M31,16.72h-.38l-.58-2c-.09-.29-.14-.49-.16-.59a4.42,4.42,0,0,1-.14.6l-.57,2h-.38l-.79-3h.39l.47,1.84a6.35,6.35,0,0,1,.14.71,6.09,6.09,0,0,1,.16-.73l.53-1.82H30l.55,1.83a6.25,6.25,0,0,1,.17.72,5.91,5.91,0,0,1,.14-.72l.47-1.83h.39Z"/><path class="cls-5" d="M37.37,16.72H37V14.05h-.94v-.34H38.3v.34h-.93Z"/><path class="cls-5" d="M43.34,16.72H43v-3h1.68v.34h-1.3v1.06h1.22v.33H43.34Z"/><path class="cls-5" d="M51.05,15.91a.76.76,0,0,1-.28.62,1.26,1.26,0,0,1-.79.23,2,2,0,0,1-.83-.14v-.36a2.58,2.58,0,0,0,.42.12,1.6,1.6,0,0,0,.42.05.8.8,0,0,0,.51-.13.41.41,0,0,0,.17-.35.46.46,0,0,0-.06-.25.65.65,0,0,0-.21-.18,2.17,2.17,0,0,0-.44-.19,1.42,1.42,0,0,1-.59-.36.77.77,0,0,1-.18-.53.68.68,0,0,1,.26-.56,1.1,1.1,0,0,1,.7-.21,2.05,2.05,0,0,1,.83.17l-.12.32a2,2,0,0,0-.72-.16.66.66,0,0,0-.42.12.38.38,0,0,0-.15.32.49.49,0,0,0,.06.25.53.53,0,0,0,.19.17,2,2,0,0,0,.41.19,2.12,2.12,0,0,1,.5.24.66.66,0,0,1,.24.26A.8.8,0,0,1,51.05,15.91Z"/><path d="M21.2,7.32,20,4.07h0c0,.27,0,.6,0,1V7.32h-.43V3.61h.69l1.14,3h0l1.16-3h.68V7.32H22.8V5c0-.26,0-.58,0-1h0L21.58,7.32Z"/><path d="M26.6,7.32l-.45-1.15H24.68l-.44,1.15h-.47L25.21,3.6h.42l1.45,3.72ZM26,5.75l-.42-1.12-.17-.55c-.05.2-.11.39-.16.55l-.42,1.12Z"/><path d="M28.05,5.79V7.32h-.46V3.61h1a1.66,1.66,0,0,1,1,.26,1,1,0,0,1,.33.79,1,1,0,0,1-.74,1l1,1.66h-.54l-.9-1.53Zm0-.4h.56a1,1,0,0,0,.66-.18.64.64,0,0,0,.2-.52.58.58,0,0,0-.21-.51A1.09,1.09,0,0,0,28.58,4h-.53Z"/><path d="M32.4,4a1.16,1.16,0,0,0-.94.4,1.62,1.62,0,0,0-.34,1.09,1.67,1.67,0,0,0,.33,1.11,1.17,1.17,0,0,0,.94.39,3.07,3.07,0,0,0,.89-.15v.41a3,3,0,0,1-1,.15,1.59,1.59,0,0,1-1.26-.5,2,2,0,0,1-.44-1.41,2.23,2.23,0,0,1,.21-1,1.52,1.52,0,0,1,.61-.67,2,2,0,0,1,1-.23,2.19,2.19,0,0,1,1,.22l-.19.39A2.14,2.14,0,0,0,32.4,4Z"/><path d="M36.92,7.32h-.46V5.59h-1.9V7.32h-.47V3.61h.47V5.18h1.9V3.61h.46Z"/><path d="M8,26.64H7.69v-2c0-.18,0-.34,0-.5a.57.57,0,0,1-.11.11c-.14.11-.28.24-.44.36L7,24.37l.78-.61H8Z"/><path d="M16.22,26.64h-1.9v-.3l.75-.76a4.68,4.68,0,0,0,.45-.49,1,1,0,0,0,.16-.29.72.72,0,0,0,.06-.29.49.49,0,0,0-.14-.36.53.53,0,0,0-.37-.12,1.14,1.14,0,0,0-.33,0,1.2,1.2,0,0,0-.36.22l-.19-.24a1.37,1.37,0,0,1,.88-.34.93.93,0,0,1,.64.21.72.72,0,0,1,.23.56.92.92,0,0,1-.07.36,1.3,1.3,0,0,1-.2.36,5.93,5.93,0,0,1-.47.5l-.59.59h1.45Z"/><path d="M23.63,24.44a.64.64,0,0,1-.16.45.75.75,0,0,1-.44.23v0a.86.86,0,0,1,.52.22.65.65,0,0,1,.17.46.76.76,0,0,1-.29.63,1.28,1.28,0,0,1-.81.22,2.58,2.58,0,0,1-.42,0,1.23,1.23,0,0,1-.37-.12v-.33a1.64,1.64,0,0,0,.39.14,1.9,1.9,0,0,0,.4.05c.48,0,.73-.19.73-.57s-.27-.51-.81-.51h-.28V25h.29a.8.8,0,0,0,.52-.14.48.48,0,0,0,.2-.4.39.39,0,0,0-.14-.32.59.59,0,0,0-.39-.12,1.34,1.34,0,0,0-.35.05,1.86,1.86,0,0,0-.37.19L21.84,24a1.78,1.78,0,0,1,.41-.22,1.57,1.57,0,0,1,.49-.08,1,1,0,0,1,.65.19A.65.65,0,0,1,23.63,24.44Z"/><path d="M31.39,26H31v.66h-.35V26H29.26v-.3l1.35-1.93H31v1.92h.41Zm-.76-.31v-.91c0-.18,0-.39,0-.63h0l-.08.15-.1.16-.86,1.23Z"/><path d="M37.8,24.87a1.06,1.06,0,0,1,.71.23.79.79,0,0,1,.25.62.88.88,0,0,1-.28.7,1.14,1.14,0,0,1-.79.25,1.49,1.49,0,0,1-.74-.15v-.33a1.28,1.28,0,0,0,.35.13,1.31,1.31,0,0,0,.39.05.78.78,0,0,0,.53-.16.57.57,0,0,0,.18-.46c0-.38-.24-.58-.72-.58a2.18,2.18,0,0,0-.49.06L37,25.12l.1-1.36h1.44v.33H37.42l-.06.83A2.2,2.2,0,0,1,37.8,24.87Z"/><path d="M43.39,25.41c0-1.13.44-1.69,1.31-1.69a1.56,1.56,0,0,1,.36,0v.3a1.23,1.23,0,0,0-.35,0,.9.9,0,0,0-.7.28,1.47,1.47,0,0,0-.27.89h0a.74.74,0,0,1,.68-.34.82.82,0,0,1,.61.23.89.89,0,0,1,.22.64,1,1,0,0,1-.25.71.86.86,0,0,1-.66.25,1,1,0,0,1-.52-.14,1,1,0,0,1-.34-.44A1.76,1.76,0,0,1,43.39,25.41Zm1,1a.52.52,0,0,0,.42-.18.72.72,0,0,0,.15-.49.64.64,0,0,0-.14-.44.57.57,0,0,0-.42-.15.67.67,0,0,0-.31.07.6.6,0,0,0-.23.19.52.52,0,0,0-.08.26.77.77,0,0,0,.08.37.71.71,0,0,0,.21.27A.53.53,0,0,0,44.36,26.38Z"/><path d="M50.19,26.64l1.18-2.55H49.82v-.33h1.93V24l-1.17,2.6Z"/><path d="M7.75,29.75a1,1,0,0,1,.63.19.61.61,0,0,1,.23.5.59.59,0,0,1-.13.39,1.24,1.24,0,0,1-.42.32,1.4,1.4,0,0,1,.5.35.63.63,0,0,1,.14.42.7.7,0,0,1-.25.57,1.06,1.06,0,0,1-.69.22,1.15,1.15,0,0,1-.71-.2.73.73,0,0,1-.25-.58.85.85,0,0,1,.6-.76A1.34,1.34,0,0,1,7,30.84a.7.7,0,0,1-.12-.4.59.59,0,0,1,.24-.5A1,1,0,0,1,7.75,29.75Zm-.6,2.19a.44.44,0,0,0,.16.36.75.75,0,0,0,.45.13.68.68,0,0,0,.44-.14.47.47,0,0,0,.16-.36.46.46,0,0,0-.15-.34,1.63,1.63,0,0,0-.52-.28,1,1,0,0,0-.41.27A.52.52,0,0,0,7.15,31.94Zm.6-1.9a.58.58,0,0,0-.37.11.38.38,0,0,0-.14.31.46.46,0,0,0,0,.21.52.52,0,0,0,.16.17,1.28,1.28,0,0,0,.32.17,1,1,0,0,0,.38-.25.46.46,0,0,0,.11-.3.34.34,0,0,0-.14-.31A.58.58,0,0,0,7.75,30Z"/><path d="M16.22,31c0,1.12-.44,1.69-1.32,1.69a1.56,1.56,0,0,1-.36,0v-.31a1,1,0,0,0,.35.06,1.06,1.06,0,0,0,.53-.13.78.78,0,0,0,.31-.38,1.62,1.62,0,0,0,.13-.65h0a.75.75,0,0,1-.68.33.78.78,0,0,1-.6-.23.86.86,0,0,1-.22-.64,1,1,0,0,1,.25-.7.84.84,0,0,1,.66-.27.91.91,0,0,1,.52.16.92.92,0,0,1,.34.43A1.76,1.76,0,0,1,16.22,31Zm-1-1a.51.51,0,0,0-.41.18.72.72,0,0,0-.15.49.6.6,0,0,0,.14.44.53.53,0,0,0,.41.15.68.68,0,0,0,.32-.07.62.62,0,0,0,.23-.19.5.5,0,0,0,.08-.26,1,1,0,0,0-.08-.37.64.64,0,0,0-.22-.27A.58.58,0,0,0,15.24,30.05Z"/><path d="M21,32.67h-.34v-2c0-.18,0-.34,0-.49l-.11.11-.44.36-.19-.24.78-.6H21Z"/><path d="M24,31.23a2,2,0,0,1-.24,1.11.82.82,0,0,1-.72.37.8.8,0,0,1-.71-.38,2.06,2.06,0,0,1-.24-1.1,2.09,2.09,0,0,1,.24-1.12.78.78,0,0,1,.71-.36.8.8,0,0,1,.71.38A2,2,0,0,1,24,31.23Zm-1.55,0a2.21,2.21,0,0,0,.14.9.48.48,0,0,0,.45.28.49.49,0,0,0,.46-.29,2.19,2.19,0,0,0,.14-.89,2.16,2.16,0,0,0-.14-.89.49.49,0,0,0-.46-.29.47.47,0,0,0-.45.28A2.05,2.05,0,0,0,22.41,31.23Z"/><path d="M28.72,32.67h-.34v-2c0-.18,0-.34,0-.49l-.12.11-.43.36-.19-.24.78-.6h.29Z"/><path d="M31,32.67h-.35v-2c0-.18,0-.34,0-.49l-.12.11-.44.36L30,30.4l.78-.6H31Z"/><path d="M35.41,32.67h-.35v-2c0-.18,0-.34,0-.49l-.12.11-.44.36-.18-.24.77-.6h.3Z"/><path d="M38.37,32.67h-1.9v-.3l.75-.76a4.68,4.68,0,0,0,.45-.49,1.23,1.23,0,0,0,.17-.28.94.94,0,0,0,0-.3.45.45,0,0,0-.14-.35.49.49,0,0,0-.37-.13.92.92,0,0,0-.33.06,1.38,1.38,0,0,0-.36.21l-.19-.24a1.39,1.39,0,0,1,.88-.34A.93.93,0,0,1,38,30a.69.69,0,0,1,.23.56.89.89,0,0,1-.07.36,1.3,1.3,0,0,1-.2.36,5.48,5.48,0,0,1-.46.5l-.6.59h1.45Z"/><path d="M42.09,32.67h-.34v-2c0-.18,0-.34,0-.49l-.12.11-.43.36L41,30.4l.78-.6h.29Z"/><path d="M45,30.47a.64.64,0,0,1-.16.45.7.7,0,0,1-.44.23v0a.86.86,0,0,1,.52.22.65.65,0,0,1,.17.46.76.76,0,0,1-.29.63,1.29,1.29,0,0,1-.82.23,1.87,1.87,0,0,1-.42,0,1.18,1.18,0,0,1-.36-.12v-.33a1.64,1.64,0,0,0,.39.14,1.83,1.83,0,0,0,.4,0q.72,0,.72-.57c0-.34-.26-.5-.8-.5h-.28V31h.29a.81.81,0,0,0,.52-.15.47.47,0,0,0,.19-.4.39.39,0,0,0-.13-.32.59.59,0,0,0-.39-.12,1,1,0,0,0-.35.06,1.18,1.18,0,0,0-.37.19l-.18-.25a1.6,1.6,0,0,1,.41-.22,1.57,1.57,0,0,1,.49-.08,1,1,0,0,1,.65.2A.62.62,0,0,1,45,30.47Z"/><path d="M48.78,32.67h-.35v-2c0-.18,0-.34,0-.49l-.12.11-.44.36-.18-.24.78-.6h.29Z"/><path d="M51.87,32h-.42v.66h-.34V32H49.73v-.3l1.36-1.93h.36V31.7h.42Zm-.76-.31v-.91c0-.18,0-.39,0-.63h0l-.07.15-.1.16-.86,1.23Z"/><path d="M5.94,38.7H5.6v-2c0-.18,0-.34,0-.49l-.11.11-.44.36-.19-.24.78-.6h.29Z"/><path d="M7.92,36.94a1,1,0,0,1,.71.22.79.79,0,0,1,.26.62.89.89,0,0,1-.29.7,1.14,1.14,0,0,1-.79.26,1.38,1.38,0,0,1-.74-.16v-.33a1.42,1.42,0,0,0,.35.14,1.83,1.83,0,0,0,.4,0,.81.81,0,0,0,.52-.16.59.59,0,0,0,.18-.46c0-.39-.24-.58-.72-.58a3,3,0,0,0-.49,0l-.17-.11.11-1.35H8.68v.32H7.55L7.48,37A2.25,2.25,0,0,1,7.92,36.94Z"/><path d="M13.67,38.7h-.34v-2c0-.18,0-.34,0-.49l-.11.11-.44.36-.19-.24.78-.6h.29Z"/><path d="M14.77,37.47c0-1.12.44-1.68,1.31-1.68a1.73,1.73,0,0,1,.36,0v.3a1.25,1.25,0,0,0-.35,0,.86.86,0,0,0-.7.28,1.44,1.44,0,0,0-.27.88h0a.77.77,0,0,1,.68-.34.78.78,0,0,1,.61.24.87.87,0,0,1,.23.63,1,1,0,0,1-.25.71.89.89,0,0,1-.67.26.9.9,0,0,1-.51-.15,1,1,0,0,1-.34-.44A1.76,1.76,0,0,1,14.77,37.47Zm1,1a.54.54,0,0,0,.42-.17.75.75,0,0,0,.15-.5.62.62,0,0,0-.15-.44.53.53,0,0,0-.41-.15.64.64,0,0,0-.31.07.56.56,0,0,0-.23.2.43.43,0,0,0-.09.26.86.86,0,0,0,.08.36.67.67,0,0,0,.22.27A.51.51,0,0,0,15.74,38.44Z"/><path d="M21.4,38.7h-.34v-2a3.78,3.78,0,0,1,0-.49l-.12.11-.44.36-.19-.24.78-.6h.29Z"/><path d="M22.82,38.7,24,36.15H22.45v-.32h1.93v.27l-1.17,2.6Z"/><path d="M28.1,38.7h-.35v-2c0-.18,0-.34,0-.49l-.12.11-.44.36L27,36.43l.77-.6h.3Z"/><path d="M30.12,35.79a1,1,0,0,1,.62.18.59.59,0,0,1,.23.5.59.59,0,0,1-.13.39,1.08,1.08,0,0,1-.41.32,1.44,1.44,0,0,1,.49.35.66.66,0,0,1,.15.42.74.74,0,0,1-.26.58,1,1,0,0,1-.68.21,1.11,1.11,0,0,1-.71-.2.7.7,0,0,1-.26-.57.85.85,0,0,1,.6-.77,1,1,0,0,1-.38-.33.7.7,0,0,1-.12-.4.63.63,0,0,1,.23-.5A1,1,0,0,1,30.12,35.79ZM29.51,38a.44.44,0,0,0,.16.36.75.75,0,0,0,.45.13.66.66,0,0,0,.44-.14.42.42,0,0,0,.16-.36.46.46,0,0,0-.15-.34,1.53,1.53,0,0,0-.52-.28,1.27,1.27,0,0,0-.41.28A.48.48,0,0,0,29.51,38Zm.6-1.9a.6.6,0,0,0-.37.11.39.39,0,0,0-.13.31.42.42,0,0,0,.05.22.47.47,0,0,0,.15.17,2.32,2.32,0,0,0,.32.16.89.89,0,0,0,.38-.24.47.47,0,0,0,.12-.31.4.4,0,0,0-.14-.31A.63.63,0,0,0,30.11,36.07Z"/><path d="M35.83,38.7h-.35v-2c0-.18,0-.34,0-.49l-.12.11-.44.36-.18-.24.77-.6h.3Z"/><path d="M38.79,37.05c0,1.13-.44,1.69-1.32,1.69a1.19,1.19,0,0,1-.36,0v-.3a1.23,1.23,0,0,0,.35.05,1,1,0,0,0,.53-.13.83.83,0,0,0,.32-.37,2,2,0,0,0,.12-.66h0a.87.87,0,0,1-1.29.1.85.85,0,0,1-.22-.63,1,1,0,0,1,.25-.71.85.85,0,0,1,.67-.26.88.88,0,0,1,.85.59A1.71,1.71,0,0,1,38.79,37.05Zm-1-1a.51.51,0,0,0-.42.17.74.74,0,0,0-.15.49.64.64,0,0,0,.14.44.53.53,0,0,0,.41.15.66.66,0,0,0,.32-.07.55.55,0,0,0,.23-.19.42.42,0,0,0,.08-.26.8.8,0,0,0-.08-.37.71.71,0,0,0-.21-.27A.59.59,0,0,0,37.82,36.09Z"/><path d="M43.18,38.7h-1.9v-.3l.75-.76a3.83,3.83,0,0,0,.45-.49,1,1,0,0,0,.16-.28.73.73,0,0,0,.06-.3.45.45,0,0,0-.14-.35.49.49,0,0,0-.37-.13.88.88,0,0,0-.33.06,1.38,1.38,0,0,0-.36.21l-.19-.24a1.36,1.36,0,0,1,.88-.33,1,1,0,0,1,.64.2.74.74,0,0,1,.23.56.86.86,0,0,1-.07.36,1.3,1.3,0,0,1-.2.36c-.1.12-.25.29-.46.5l-.6.59v0h1.45Z"/><path d="M45.49,37.26a2,2,0,0,1-.24,1.11.87.87,0,0,1-1.43,0,2.06,2.06,0,0,1-.24-1.1,2.14,2.14,0,0,1,.23-1.11.87.87,0,0,1,1.43,0A2,2,0,0,1,45.49,37.26Zm-1.55,0a2,2,0,0,0,.14.9.46.46,0,0,0,.45.28.49.49,0,0,0,.46-.29,2.16,2.16,0,0,0,.14-.89,2.19,2.19,0,0,0-.14-.89.48.48,0,0,0-.46-.28.47.47,0,0,0-.45.27A2.05,2.05,0,0,0,43.94,37.26Z"/><path d="M49.86,38.7H48v-.3l.76-.76a6.44,6.44,0,0,0,.45-.49,1.33,1.33,0,0,0,.16-.28.94.94,0,0,0,.05-.3.45.45,0,0,0-.13-.35.51.51,0,0,0-.37-.13,1,1,0,0,0-.34.06,1.53,1.53,0,0,0-.35.21L48,36.12a1.36,1.36,0,0,1,.88-.33,1,1,0,0,1,.63.2.71.71,0,0,1,.24.56,1,1,0,0,1-.07.36,1.68,1.68,0,0,1-.21.36,4.31,4.31,0,0,1-.46.5l-.6.59v0h1.45Z"/><path d="M51.5,38.7h-.35v-2c0-.18,0-.34,0-.49l-.12.11-.44.36-.18-.24.77-.6h.3Z"/><path d="M6.61,44.73H4.71v-.29l.75-.76a6,6,0,0,0,.45-.49,1.21,1.21,0,0,0,.16-.29.73.73,0,0,0,.06-.3A.45.45,0,0,0,6,42.25a.49.49,0,0,0-.37-.13.88.88,0,0,0-.33.06,1.38,1.38,0,0,0-.36.21l-.19-.23a1.32,1.32,0,0,1,.88-.34,1,1,0,0,1,.64.2.74.74,0,0,1,.23.56.94.94,0,0,1-.07.37,1.41,1.41,0,0,1-.2.35,4.4,4.4,0,0,1-.46.5l-.6.59v0H6.61Z"/><path d="M8.91,44.73H7v-.29l.75-.76a6,6,0,0,0,.45-.49,1.21,1.21,0,0,0,.16-.29.73.73,0,0,0,.06-.3.45.45,0,0,0-.14-.35.49.49,0,0,0-.37-.13.88.88,0,0,0-.33.06,1.38,1.38,0,0,0-.36.21L7,42.16a1.32,1.32,0,0,1,.88-.34,1,1,0,0,1,.64.2.74.74,0,0,1,.23.56.94.94,0,0,1-.07.37,1.41,1.41,0,0,1-.2.35,4.7,4.7,0,0,1-.47.5l-.6.59v0H8.91Z"/><path d="M14.34,44.73h-1.9v-.29l.75-.76a6,6,0,0,0,.45-.49,1.21,1.21,0,0,0,.16-.29.73.73,0,0,0,.06-.3.45.45,0,0,0-.14-.35.49.49,0,0,0-.37-.13.88.88,0,0,0-.33.06,1.38,1.38,0,0,0-.36.21l-.19-.23a1.32,1.32,0,0,1,.88-.34A1,1,0,0,1,14,42a.74.74,0,0,1,.23.56.94.94,0,0,1-.07.37,1.41,1.41,0,0,1-.2.35,4.4,4.4,0,0,1-.46.5l-.6.59v0h1.45Z"/><path d="M16.53,42.53a.62.62,0,0,1-.16.45.76.76,0,0,1-.44.24h0a.93.93,0,0,1,.52.22.67.67,0,0,1,.17.46.77.77,0,0,1-.29.64,1.28,1.28,0,0,1-.81.22,2.58,2.58,0,0,1-.42,0,1.63,1.63,0,0,1-.37-.13v-.32a1.63,1.63,0,0,0,.39.13,1.41,1.41,0,0,0,.4,0c.48,0,.73-.19.73-.56s-.27-.51-.81-.51h-.28v-.3h.29A.81.81,0,0,0,16,43a.45.45,0,0,0,.2-.4.42.42,0,0,0-.14-.32.65.65,0,0,0-.39-.11,1,1,0,0,0-.35.05,1.45,1.45,0,0,0-.37.19l-.18-.24a1.25,1.25,0,0,1,.41-.22,1.57,1.57,0,0,1,.49-.08,1,1,0,0,1,.65.19A.63.63,0,0,1,16.53,42.53Z"/><path d="M22.07,44.73h-1.9v-.29l.75-.76a6,6,0,0,0,.45-.49,1.21,1.21,0,0,0,.16-.29.73.73,0,0,0,.06-.3.45.45,0,0,0-.14-.35.49.49,0,0,0-.37-.13.92.92,0,0,0-.33.06,1.38,1.38,0,0,0-.36.21l-.19-.23a1.34,1.34,0,0,1,.88-.34,1,1,0,0,1,.64.2.74.74,0,0,1,.23.56.94.94,0,0,1-.07.37,1.41,1.41,0,0,1-.2.35,4.4,4.4,0,0,1-.46.5l-.6.59v0h1.45Z"/><path d="M24.49,44.08h-.41v.65h-.35v-.65H22.36v-.3l1.35-1.94h.37v1.92h.41Zm-.76-.32v-.9c0-.18,0-.39,0-.64h0a1.15,1.15,0,0,1-.08.15c0,.07-.07.13-.09.17l-.86,1.22Z"/><path d="M28.76,44.73h-1.9v-.29l.75-.76a6,6,0,0,0,.45-.49,1.28,1.28,0,0,0,.17-.29.94.94,0,0,0,.05-.3.45.45,0,0,0-.13-.35.51.51,0,0,0-.37-.13,1,1,0,0,0-.34.06,1.53,1.53,0,0,0-.35.21l-.19-.23a1.3,1.3,0,0,1,.88-.34,1,1,0,0,1,.63.2.71.71,0,0,1,.24.56,1.16,1.16,0,0,1-.07.37,1.9,1.9,0,0,1-.21.35,4.4,4.4,0,0,1-.46.5l-.6.59v0h1.45Z"/><path d="M30.07,43a1,1,0,0,1,.71.23.77.77,0,0,1,.26.61.91.91,0,0,1-.29.71,1.18,1.18,0,0,1-.78.25,1.44,1.44,0,0,1-.75-.16v-.33a1.42,1.42,0,0,0,.35.14,1.9,1.9,0,0,0,.4,0,.74.74,0,0,0,.52-.16.56.56,0,0,0,.19-.46c0-.39-.24-.58-.72-.58a2.12,2.12,0,0,0-.49.06l-.18-.12.11-1.35h1.44v.32H29.7l-.07.83A2.25,2.25,0,0,1,30.07,43Z"/><path d="M36.49,44.73h-1.9v-.29l.75-.76a6,6,0,0,0,.45-.49A1.28,1.28,0,0,0,36,42.9a.94.94,0,0,0,0-.3.45.45,0,0,0-.13-.35.51.51,0,0,0-.37-.13,1,1,0,0,0-.34.06,1.57,1.57,0,0,0-.36.21l-.18-.23a1.3,1.3,0,0,1,.88-.34,1,1,0,0,1,.63.2.7.7,0,0,1,.23.56,1.15,1.15,0,0,1-.06.37,1.9,1.9,0,0,1-.21.35,4.4,4.4,0,0,1-.46.5l-.6.59v0h1.45Z"/><path d="M36.92,43.5c0-1.12.44-1.68,1.31-1.68a1.15,1.15,0,0,1,.36,0v.3a1.23,1.23,0,0,0-.35,0,.87.87,0,0,0-.7.28,1.44,1.44,0,0,0-.27.88h0a.76.76,0,0,1,.68-.34.79.79,0,0,1,.61.24.89.89,0,0,1,.22.64,1,1,0,0,1-.25.7.87.87,0,0,1-.66.26.88.88,0,0,1-.86-.59A1.72,1.72,0,0,1,36.92,43.5Zm1,1a.51.51,0,0,0,.42-.17.74.74,0,0,0,.15-.49.63.63,0,0,0-.14-.44.54.54,0,0,0-.42-.16.67.67,0,0,0-.31.07.63.63,0,0,0-.23.2.5.5,0,0,0-.08.26.8.8,0,0,0,.08.37.71.71,0,0,0,.21.27A.59.59,0,0,0,37.89,44.47Z"/><path d="M43.18,44.73h-1.9v-.29l.75-.76a6,6,0,0,0,.45-.49,1.21,1.21,0,0,0,.16-.29.73.73,0,0,0,.06-.3.45.45,0,0,0-.14-.35.49.49,0,0,0-.37-.13.88.88,0,0,0-.33.06,1.38,1.38,0,0,0-.36.21l-.19-.23a1.32,1.32,0,0,1,.88-.34,1,1,0,0,1,.64.2.74.74,0,0,1,.23.56A.94.94,0,0,1,43,43a1.41,1.41,0,0,1-.2.35,5.62,5.62,0,0,1-.46.5l-.6.59v0h1.45Z"/><path d="M43.93,44.73l1.18-2.55H43.56v-.32h1.93v.27l-1.17,2.6Z"/><path d="M49.86,44.73H48v-.29l.76-.76.45-.49a1.71,1.71,0,0,0,.16-.29.94.94,0,0,0,.05-.3.45.45,0,0,0-.13-.35.51.51,0,0,0-.37-.13,1,1,0,0,0-.34.06,1.53,1.53,0,0,0-.35.21L48,42.16a1.32,1.32,0,0,1,.88-.34,1,1,0,0,1,.63.2.71.71,0,0,1,.24.56,1.16,1.16,0,0,1-.07.37,1.9,1.9,0,0,1-.21.35,3.62,3.62,0,0,1-.46.5l-.6.59v0h1.45Z"/><path d="M51.22,41.82a1,1,0,0,1,.62.18.6.6,0,0,1,.24.51.65.65,0,0,1-.13.38,1.22,1.22,0,0,1-.42.32,1.44,1.44,0,0,1,.49.35.68.68,0,0,1,.15.43.74.74,0,0,1-.25.57,1.05,1.05,0,0,1-.69.21,1.11,1.11,0,0,1-.71-.2.67.67,0,0,1-.25-.57.84.84,0,0,1,.59-.77,1,1,0,0,1-.38-.33.7.7,0,0,1-.12-.4.63.63,0,0,1,.23-.5A1,1,0,0,1,51.22,41.82ZM50.61,44a.47.47,0,0,0,.16.36.69.69,0,0,0,.45.13.66.66,0,0,0,.44-.13.44.44,0,0,0,.16-.37.46.46,0,0,0-.15-.34,1.47,1.47,0,0,0-.51-.27,1.17,1.17,0,0,0-.42.27A.54.54,0,0,0,50.61,44Zm.6-1.89a.56.56,0,0,0-.37.11.35.35,0,0,0-.13.3.4.4,0,0,0,0,.22.47.47,0,0,0,.15.17,1.87,1.87,0,0,0,.32.16.89.89,0,0,0,.38-.24.45.45,0,0,0,.12-.31.4.4,0,0,0-.14-.31A.63.63,0,0,0,51.21,42.11Z"/><path d="M6.61,50.76H4.71v-.29l.75-.76a4.68,4.68,0,0,0,.45-.49,1.21,1.21,0,0,0,.16-.29.72.72,0,0,0,.06-.29A.47.47,0,0,0,6,48.28a.54.54,0,0,0-.37-.13.88.88,0,0,0-.33.06,1.2,1.2,0,0,0-.36.22l-.19-.24a1.32,1.32,0,0,1,.88-.34.93.93,0,0,1,.64.21.7.7,0,0,1,.23.55.94.94,0,0,1-.07.37,1.3,1.3,0,0,1-.2.36,5.66,5.66,0,0,1-.46.49l-.6.6H6.61Z"/><path d="M8.91,49.12q0,1.68-1.32,1.68a1.15,1.15,0,0,1-.36,0v-.3a.92.92,0,0,0,.35,0,1.07,1.07,0,0,0,.53-.12A.83.83,0,0,0,8.42,50a1.62,1.62,0,0,0,.13-.65h0a.75.75,0,0,1-.68.33.81.81,0,0,1-.6-.23A.89.89,0,0,1,7,48.82a1,1,0,0,1,.24-.71A1,1,0,0,1,8.45,48a1,1,0,0,1,.34.44A1.76,1.76,0,0,1,8.91,49.12Zm-1-1a.52.52,0,0,0-.41.17.76.76,0,0,0-.15.5.61.61,0,0,0,.14.44.53.53,0,0,0,.41.15.88.88,0,0,0,.32-.07.64.64,0,0,0,.23-.2.46.46,0,0,0,.08-.25.91.91,0,0,0-.08-.37.54.54,0,0,0-.22-.27A.51.51,0,0,0,7.93,48.15Z"/><path d="M14.23,48.56a.69.69,0,0,1-.15.46.85.85,0,0,1-.44.23v0a.83.83,0,0,1,.51.22.64.64,0,0,1,.17.46.76.76,0,0,1-.29.63,1.28,1.28,0,0,1-.81.22,2.77,2.77,0,0,1-.42,0,1.23,1.23,0,0,1-.37-.12v-.33a2.24,2.24,0,0,0,.39.14,1.9,1.9,0,0,0,.4,0c.48,0,.73-.19.73-.57s-.27-.51-.81-.51h-.27v-.3h.28a.92.92,0,0,0,.53-.14.5.5,0,0,0,.19-.4.39.39,0,0,0-.14-.32.57.57,0,0,0-.39-.12,1.34,1.34,0,0,0-.35.05,1.86,1.86,0,0,0-.37.19l-.18-.24a1.47,1.47,0,0,1,.41-.22,1.57,1.57,0,0,1,.49-.08A1,1,0,0,1,14,48,.65.65,0,0,1,14.23,48.56Z"/><path d="M16.65,49.32a2.09,2.09,0,0,1-.24,1.12.81.81,0,0,1-.72.36.79.79,0,0,1-.71-.37,2.08,2.08,0,0,1-.24-1.11A2.14,2.14,0,0,1,15,48.21a.81.81,0,0,1,.72-.36.79.79,0,0,1,.71.37A2,2,0,0,1,16.65,49.32Zm-1.55,0a2.15,2.15,0,0,0,.14.9.46.46,0,0,0,.45.28.48.48,0,0,0,.46-.28,2.93,2.93,0,0,0,0-1.79.48.48,0,0,0-.46-.28.46.46,0,0,0-.45.28A2,2,0,0,0,15.1,49.32Z"/><path d="M22,48.56a.69.69,0,0,1-.15.46.85.85,0,0,1-.44.23v0a.83.83,0,0,1,.51.22.64.64,0,0,1,.17.46.76.76,0,0,1-.29.63,1.28,1.28,0,0,1-.81.22,2.77,2.77,0,0,1-.42,0,1.23,1.23,0,0,1-.37-.12v-.33a2.24,2.24,0,0,0,.39.14,1.9,1.9,0,0,0,.4,0c.49,0,.73-.19.73-.57s-.27-.51-.81-.51H20.6v-.3h.28a.92.92,0,0,0,.53-.14.5.5,0,0,0,.19-.4.39.39,0,0,0-.14-.32.56.56,0,0,0-.38-.12,1.36,1.36,0,0,0-.36.05,2.18,2.18,0,0,0-.37.19l-.18-.24a1.47,1.47,0,0,1,.41-.22,1.62,1.62,0,0,1,.49-.08,1,1,0,0,1,.66.19A.65.65,0,0,1,22,48.56Z"/><path d="M23.7,50.76h-.34v-2c0-.18,0-.35,0-.5a.57.57,0,0,1-.11.11l-.44.36-.19-.24.78-.6h.29Z"/></g></g></g></svg>