<svg xmlns="http://www.w3.org/2000/svg" viewBox="0 0 56.39 56.27"><defs><style>.cls-1{isolation:isolate;}.cls-2{fill:#f1f2f2;}.cls-3{mix-blend-mode:multiply;}.cls-4{fill:#d22940;}.cls-5{fill:#939598;}</style></defs><title>2Recurso 2</title><g class="cls-1"><g id="Capa_2" data-name="Capa 2"><g id="Layer_1" data-name="Layer 1"><rect class="cls-2" x="0.14" width="56.25" height="56.27" rx="2.14"/><g class="cls-3"><rect class="cls-2" y="11.29" width="56.25" height="8.24"/></g><path class="cls-4" d="M17.54,43.38a3.27,3.27,0,1,1-3.27-3.27A3.27,3.27,0,0,1,17.54,43.38Z"/><path class="cls-5" d="M7.94,15.91a.74.74,0,0,1-.29.62,1.24,1.24,0,0,1-.79.23A2,2,0,0,1,6,16.62v-.36a2.58,2.58,0,0,0,.42.12,1.6,1.6,0,0,0,.42.05.82.82,0,0,0,.51-.13A.41.41,0,0,0,7.56,16a.46.46,0,0,0-.06-.25.65.65,0,0,0-.21-.18,2.46,2.46,0,0,0-.44-.19A1.36,1.36,0,0,1,6.26,15a.77.77,0,0,1-.18-.53.68.68,0,0,1,.26-.56,1.1,1.1,0,0,1,.7-.21,2,2,0,0,1,.82.17l-.11.32A2,2,0,0,0,7,14a.66.66,0,0,0-.42.12.38.38,0,0,0-.15.32.49.49,0,0,0,.06.25.53.53,0,0,0,.19.17,1.78,1.78,0,0,0,.41.19,2.12,2.12,0,0,1,.5.24.66.66,0,0,1,.24.26A.8.8,0,0,1,7.94,15.91Z"/><path class="cls-5" d="M14.07,16.72l-1-2.64h0c0,.22,0,.49,0,.82v1.82h-.35v-3h.56l.93,2.47h0l.94-2.47h.55v3h-.37V14.87c0-.2,0-.47,0-.78h0l-1,2.63Z"/><path class="cls-5" d="M21.71,16.72h-.38V14.05H20.4v-.34h2.25v.34h-.94Z"/><path class="cls-5" d="M30,16.72h-.38l-.58-2c-.09-.29-.14-.49-.16-.59a4.42,4.42,0,0,1-.14.6l-.57,2h-.38l-.79-3h.39l.47,1.84a6.35,6.35,0,0,1,.14.71,4.62,4.62,0,0,1,.16-.73l.53-1.82H29l.55,1.83a6.25,6.25,0,0,1,.17.72,5.91,5.91,0,0,1,.14-.72l.47-1.83h.39Z"/><path class="cls-5" d="M36.37,16.72H36V14.05h-.94v-.34H37.3v.34h-.93Z"/><path class="cls-5" d="M42.34,16.72H42v-3h1.68v.34h-1.3v1.06h1.22v.33H42.34Z"/><path class="cls-5" d="M50.05,15.91a.74.74,0,0,1-.29.62,1.21,1.21,0,0,1-.78.23,2,2,0,0,1-.83-.14v-.36a2.58,2.58,0,0,0,.42.12,1.6,1.6,0,0,0,.42.05.8.8,0,0,0,.51-.13.41.41,0,0,0,.17-.35.46.46,0,0,0-.06-.25.65.65,0,0,0-.21-.18,2.17,2.17,0,0,0-.44-.19,1.42,1.42,0,0,1-.59-.36.77.77,0,0,1-.18-.53.68.68,0,0,1,.26-.56,1.1,1.1,0,0,1,.7-.21,2.09,2.09,0,0,1,.83.17l-.12.32a2,2,0,0,0-.72-.16.66.66,0,0,0-.42.12.38.38,0,0,0-.15.32.49.49,0,0,0,.06.25.53.53,0,0,0,.19.17,2,2,0,0,0,.41.19,2.12,2.12,0,0,1,.5.24.66.66,0,0,1,.24.26A.8.8,0,0,1,50.05,15.91Z"/><path d="M16.3,7.32h-.47V3.61H17.9V4H16.3V5.33h1.5v.41H16.3Z"/><path d="M20.59,7.32H18.52V3.61h2.07V4H19V5.18H20.5v.4H19V6.91h1.6Z"/><path d="M21.41,3.61h1.05a2.08,2.08,0,0,1,1.08.22.78.78,0,0,1,.33.7.8.8,0,0,1-.18.54.88.88,0,0,1-.53.28v0a1,1,0,0,1,.63.29.84.84,0,0,1,.21.59,1,1,0,0,1-.34.78,1.51,1.51,0,0,1-.95.28h-1.3Zm.46,1.58h.69a1.13,1.13,0,0,0,.63-.14.54.54,0,0,0,.2-.47.47.47,0,0,0-.22-.44A1.32,1.32,0,0,0,22.49,4h-.62Zm0,.39V6.92h.75a1.07,1.07,0,0,0,.66-.17.62.62,0,0,0,.22-.52.56.56,0,0,0-.23-.49,1.17,1.17,0,0,0-.69-.16Z"/><path d="M25.24,5.79V7.32h-.46V3.61h1a1.66,1.66,0,0,1,1,.26,1,1,0,0,1,.33.79,1,1,0,0,1-.74,1l1,1.66h-.54L26,5.79Zm0-.4h.56a1,1,0,0,0,.66-.18.64.64,0,0,0,.2-.52.56.56,0,0,0-.21-.51A1.09,1.09,0,0,0,25.77,4h-.53Z"/><path d="M30.82,3.61V6a1.31,1.31,0,0,1-.38,1,1.46,1.46,0,0,1-1.06.37,1.42,1.42,0,0,1-1-.37A1.33,1.33,0,0,1,28,6V3.61h.46V6a1,1,0,0,0,.25.71,1.19,1.19,0,0,0,1.43,0A1,1,0,0,0,30.36,6V3.61Z"/><path d="M34.09,7.32l-.44-1.15H32.18l-.44,1.15h-.47L32.71,3.6h.42l1.45,3.72Zm-.58-1.57-.42-1.12-.17-.55c-.06.2-.11.39-.16.55l-.42,1.12Z"/><path d="M35.55,5.79V7.32h-.46V3.61h1a1.66,1.66,0,0,1,1,.26,1,1,0,0,1,.33.79,1,1,0,0,1-.74,1l1,1.66h-.54l-.9-1.53Zm0-.4h.56a1,1,0,0,0,.66-.18.67.67,0,0,0,.2-.52.58.58,0,0,0-.21-.51A1.09,1.09,0,0,0,36.08,4h-.53Z"/><path d="M39.28,5.43l1-1.82h.5L39.51,5.88V7.32H39V5.9L37.81,3.61h.51Z"/><path d="M7.63,26.64H7.28v-2c0-.18,0-.34,0-.5l-.12.11c-.13.11-.28.24-.44.36l-.18-.23.78-.61h.29Z"/><path d="M15.81,26.64h-1.9v-.3l.76-.76c.22-.23.37-.39.45-.49a1.4,1.4,0,0,0,.16-.29.71.71,0,0,0,.05-.29.48.48,0,0,0-.13-.36.53.53,0,0,0-.37-.12,1.27,1.27,0,0,0-.34,0,1.31,1.31,0,0,0-.35.22L14,24.06a1.37,1.37,0,0,1,.88-.34.89.89,0,0,1,.63.21.7.7,0,0,1,.24.56,1.15,1.15,0,0,1-.07.36,1.68,1.68,0,0,1-.21.36,4.31,4.31,0,0,1-.46.5l-.6.59h1.45Z"/><path d="M23.22,24.44a.68.68,0,0,1-.15.45.75.75,0,0,1-.44.23v0a.81.81,0,0,1,.51.22.61.61,0,0,1,.17.46.75.75,0,0,1-.28.63,1.29,1.29,0,0,1-.82.22,2.77,2.77,0,0,1-.42,0,1.33,1.33,0,0,1-.37-.12v-.33a1.82,1.82,0,0,0,.39.14,2,2,0,0,0,.41.05q.72,0,.72-.57c0-.34-.27-.51-.8-.51h-.28V25h.28a.82.82,0,0,0,.53-.14.47.47,0,0,0,.19-.4.36.36,0,0,0-.14-.32.56.56,0,0,0-.38-.12,1.29,1.29,0,0,0-.35.05,1.86,1.86,0,0,0-.37.19L21.44,24a1.6,1.6,0,0,1,.41-.22,1.53,1.53,0,0,1,.49-.08,1,1,0,0,1,.65.19A.64.64,0,0,1,23.22,24.44Z"/><path d="M31,26h-.42v.66h-.34V26H28.85v-.3l1.35-1.93h.37v1.92H31Zm-.76-.31v-.91c0-.18,0-.39,0-.63h0l-.07.15-.1.16-.86,1.23Z"/><path d="M37.4,24.87a1,1,0,0,1,.7.23.79.79,0,0,1,.26.62.88.88,0,0,1-.28.7,1.15,1.15,0,0,1-.79.25,1.56,1.56,0,0,1-.75-.15v-.33a1.59,1.59,0,0,0,.35.13,1.41,1.41,0,0,0,.4.05.74.74,0,0,0,.52-.16.55.55,0,0,0,.19-.46c0-.38-.24-.58-.72-.58a2.12,2.12,0,0,0-.49.06l-.18-.11.11-1.36h1.44v.33H37l-.07.83A2.3,2.3,0,0,1,37.4,24.87Z"/><path d="M43,25.41c0-1.13.44-1.69,1.31-1.69a1.63,1.63,0,0,1,.36,0v.3a1.23,1.23,0,0,0-.35,0,.89.89,0,0,0-.7.28,1.47,1.47,0,0,0-.27.89h0a.75.75,0,0,1,.68-.34.81.81,0,0,1,.61.23.9.9,0,0,1,.23.64,1,1,0,0,1-.25.71.88.88,0,0,1-.67.25,1,1,0,0,1-.51-.14,1,1,0,0,1-.34-.44A1.76,1.76,0,0,1,43,25.41Zm1,1a.52.52,0,0,0,.42-.18.72.72,0,0,0,.15-.49.6.6,0,0,0-.15-.44.53.53,0,0,0-.41-.15.64.64,0,0,0-.31.07.54.54,0,0,0-.23.19.45.45,0,0,0-.09.26.91.91,0,0,0,.08.37.84.84,0,0,0,.22.27A.51.51,0,0,0,44,26.38Z"/><path d="M49.79,26.64,51,24.09H49.42v-.33h1.92V24l-1.16,2.6Z"/><path d="M7.35,29.75a1,1,0,0,1,.63.19.61.61,0,0,1,.23.5.59.59,0,0,1-.13.39,1.35,1.35,0,0,1-.42.32,1.49,1.49,0,0,1,.5.35.68.68,0,0,1,.14.42.7.7,0,0,1-.25.57,1.06,1.06,0,0,1-.69.22,1.13,1.13,0,0,1-.71-.2.7.7,0,0,1-.25-.58A.85.85,0,0,1,7,31.17a1.43,1.43,0,0,1-.38-.33.7.7,0,0,1-.12-.4.59.59,0,0,1,.24-.5A1,1,0,0,1,7.35,29.75Zm-.61,2.19a.45.45,0,0,0,.17.36.7.7,0,0,0,.44.13.64.64,0,0,0,.44-.14A.45.45,0,0,0,8,31.93a.47.47,0,0,0-.16-.34,1.46,1.46,0,0,0-.51-.28,1.17,1.17,0,0,0-.42.27A.57.57,0,0,0,6.74,31.94ZM7.35,30a.58.58,0,0,0-.37.11.35.35,0,0,0-.14.31.46.46,0,0,0,0,.21.61.61,0,0,0,.15.17,1.79,1.79,0,0,0,.32.17,1,1,0,0,0,.39-.25.46.46,0,0,0,.11-.3.37.37,0,0,0-.14-.31A.6.6,0,0,0,7.35,30Z"/><path d="M15.81,31c0,1.12-.44,1.69-1.32,1.69a1.63,1.63,0,0,1-.36,0v-.31a1,1,0,0,0,.36.06,1,1,0,0,0,.52-.13.8.8,0,0,0,.32-.38,1.82,1.82,0,0,0,.13-.65h0a.76.76,0,0,1-.68.33.75.75,0,0,1-.6-.23.86.86,0,0,1-.23-.64,1,1,0,0,1,.25-.7.87.87,0,0,1,.67-.27.92.92,0,0,1,.85.59A1.76,1.76,0,0,1,15.81,31Zm-1-1a.52.52,0,0,0-.42.18.72.72,0,0,0-.15.49.64.64,0,0,0,.14.44.54.54,0,0,0,.41.15.72.72,0,0,0,.33-.07.59.59,0,0,0,.22-.19.43.43,0,0,0,.09-.26,1,1,0,0,0-.08-.37.73.73,0,0,0-.22-.27A.58.58,0,0,0,14.84,30.05Z"/><path d="M20.58,32.67h-.34v-2c0-.18,0-.34,0-.49l-.12.11-.43.36-.19-.24.78-.6h.29Z"/><path d="M23.56,31.23a2,2,0,0,1-.24,1.11.82.82,0,0,1-.72.37.8.8,0,0,1-.71-.38,2.06,2.06,0,0,1-.24-1.1,2.2,2.2,0,0,1,.23-1.12.81.81,0,0,1,.72-.36.8.8,0,0,1,.71.38A2.06,2.06,0,0,1,23.56,31.23Zm-1.56,0a2,2,0,0,0,.15.9.47.47,0,0,0,.45.28.49.49,0,0,0,.46-.29,2.19,2.19,0,0,0,.14-.89,2.16,2.16,0,0,0-.14-.89.49.49,0,0,0-.46-.29.5.5,0,0,0-.46.28A2.21,2.21,0,0,0,22,31.23Z"/><path d="M28.32,32.67H28v-2c0-.18,0-.34,0-.49l-.12.11-.44.36-.18-.24.78-.6h.29Z"/><path d="M30.62,32.67h-.35v-2c0-.18,0-.34,0-.49l-.12.11-.44.36-.18-.24.77-.6h.3Z"/><path d="M35,32.67h-.34v-2c0-.18,0-.34,0-.49l-.11.11-.44.36-.19-.24.78-.6H35Z"/><path d="M38,32.67h-1.9v-.3l.75-.76a4.68,4.68,0,0,0,.45-.49,1.17,1.17,0,0,0,.16-.28.73.73,0,0,0,.06-.3.45.45,0,0,0-.14-.35.49.49,0,0,0-.37-.13.88.88,0,0,0-.33.06,1.38,1.38,0,0,0-.36.21l-.19-.24a1.37,1.37,0,0,1,.88-.34.89.89,0,0,1,.63.21.7.7,0,0,1,.24.56.89.89,0,0,1-.07.36,1.12,1.12,0,0,1-.21.36,4.31,4.31,0,0,1-.46.5l-.6.59H38Z"/><path d="M41.69,32.67h-.35v-2c0-.18,0-.34,0-.49l-.12.11-.44.36-.18-.24.78-.6h.29Z"/><path d="M44.54,30.47a.68.68,0,0,1-.15.45.7.7,0,0,1-.44.23v0a.81.81,0,0,1,.51.22.61.61,0,0,1,.17.46.75.75,0,0,1-.28.63,1.29,1.29,0,0,1-.82.23,1.87,1.87,0,0,1-.42,0,1.23,1.23,0,0,1-.37-.12v-.33a1.64,1.64,0,0,0,.39.14,2,2,0,0,0,.41,0q.72,0,.72-.57c0-.34-.27-.5-.8-.5h-.28V31h.28a.84.84,0,0,0,.53-.15.47.47,0,0,0,.19-.4.37.37,0,0,0-.14-.32.56.56,0,0,0-.38-.12,1,1,0,0,0-.35.06,1.22,1.22,0,0,0-.38.19l-.17-.25a1.6,1.6,0,0,1,.41-.22,1.51,1.51,0,0,1,.48-.08,1,1,0,0,1,.66.2A.61.61,0,0,1,44.54,30.47Z"/><path d="M48.38,32.67H48v-2c0-.18,0-.34,0-.49l-.12.11-.44.36-.18-.24.77-.6h.3Z"/><path d="M51.47,32h-.42v.66h-.34V32H49.33v-.3l1.35-1.93h.37V31.7h.42Zm-.76-.31v-.91c0-.18,0-.39,0-.63h0a1.2,1.2,0,0,1-.08.15c0,.07-.07.12-.09.16l-.86,1.23Z"/><path d="M5.54,38.7H5.2v-2c0-.18,0-.34,0-.49l-.12.11-.43.36-.19-.24.78-.6h.29Z"/><path d="M7.52,36.94a1,1,0,0,1,.7.22.76.76,0,0,1,.26.62.88.88,0,0,1-.28.7,1.14,1.14,0,0,1-.79.26,1.38,1.38,0,0,1-.74-.16v-.33a1.34,1.34,0,0,0,.34.14,1.9,1.9,0,0,0,.4,0,.84.84,0,0,0,.53-.16.59.59,0,0,0,.18-.46c0-.39-.24-.58-.72-.58a2.91,2.91,0,0,0-.49,0l-.18-.11.11-1.35H8.28v.32H7.14L7.08,37A2.18,2.18,0,0,1,7.52,36.94Z"/><path d="M13.27,38.7h-.34v-2c0-.18,0-.34,0-.49l-.12.11-.43.36-.19-.24.78-.6h.29Z"/><path d="M14.36,37.47q0-1.68,1.32-1.68a1.56,1.56,0,0,1,.35,0v.3a1.18,1.18,0,0,0-.34,0,.86.86,0,0,0-.7.28,1.32,1.32,0,0,0-.27.88h0a.76.76,0,0,1,.68-.34.79.79,0,0,1,.61.24.86.86,0,0,1,.22.63,1,1,0,0,1-.24.71.9.9,0,0,1-.67.26.85.85,0,0,1-.51-.15,1,1,0,0,1-.35-.44A1.76,1.76,0,0,1,14.36,37.47Zm1,1a.54.54,0,0,0,.42-.17.8.8,0,0,0,.14-.5.61.61,0,0,0-.14-.44.54.54,0,0,0-.41-.15.68.68,0,0,0-.32.07.53.53,0,0,0-.22.2.43.43,0,0,0-.09.26.86.86,0,0,0,.08.36.54.54,0,0,0,.22.27A.51.51,0,0,0,15.34,38.44Z"/><path d="M21,38.7h-.34v-2c0-.18,0-.34,0-.49l-.12.11-.43.36-.19-.24.78-.6H21Z"/><path d="M22.42,38.7l1.18-2.55H22.05v-.32H24v.27l-1.17,2.6Z"/><path d="M27.69,38.7h-.34v-2c0-.18,0-.34,0-.49l-.11.11-.44.36-.19-.24.78-.6h.29Z"/><path d="M29.71,35.79a1,1,0,0,1,.63.18.61.61,0,0,1,.23.5.59.59,0,0,1-.13.39,1.13,1.13,0,0,1-.42.32,1.4,1.4,0,0,1,.5.35.65.65,0,0,1,.14.42.73.73,0,0,1-.25.58,1.05,1.05,0,0,1-.69.21,1.15,1.15,0,0,1-.71-.2.73.73,0,0,1-.25-.57.85.85,0,0,1,.6-.77,1.1,1.1,0,0,1-.39-.33.7.7,0,0,1-.12-.4.61.61,0,0,1,.24-.5A1,1,0,0,1,29.71,35.79ZM29.11,38a.44.44,0,0,0,.16.36.75.75,0,0,0,.45.13.68.68,0,0,0,.44-.14.45.45,0,0,0,.16-.36.46.46,0,0,0-.15-.34,1.63,1.63,0,0,0-.52-.28,1.16,1.16,0,0,0-.41.28A.48.48,0,0,0,29.11,38Zm.6-1.9a.58.58,0,0,0-.37.11.4.4,0,0,0-.14.31.54.54,0,0,0,.05.22.64.64,0,0,0,.16.17,1.85,1.85,0,0,0,.32.16,1,1,0,0,0,.38-.24.51.51,0,0,0,.11-.31.37.37,0,0,0-.14-.31A.58.58,0,0,0,29.71,36.07Z"/><path d="M35.42,38.7h-.34v-2c0-.18,0-.34,0-.49l-.11.11-.44.36-.19-.24.78-.6h.29Z"/><path d="M38.39,37.05c0,1.13-.44,1.69-1.32,1.69a1.15,1.15,0,0,1-.36,0v-.3a1.23,1.23,0,0,0,.35.05,1,1,0,0,0,.53-.13A.76.76,0,0,0,37.9,38a1.72,1.72,0,0,0,.13-.66h0a.76.76,0,0,1-.68.34.78.78,0,0,1-.6-.24.85.85,0,0,1-.22-.63,1,1,0,0,1,.25-.71.83.83,0,0,1,.66-.26.88.88,0,0,1,.86.59A1.71,1.71,0,0,1,38.39,37.05Zm-1-1a.5.5,0,0,0-.41.17.74.74,0,0,0-.15.49.6.6,0,0,0,.14.44.53.53,0,0,0,.41.15.68.68,0,0,0,.32-.07.62.62,0,0,0,.23-.19.5.5,0,0,0,.08-.26,1,1,0,0,0-.08-.37.71.71,0,0,0-.21-.27A.63.63,0,0,0,37.41,36.09Z"/><path d="M42.77,38.7H40.88v-.3l.75-.76a6.44,6.44,0,0,0,.45-.49,1.33,1.33,0,0,0,.16-.28.73.73,0,0,0,0-.3.45.45,0,0,0-.13-.35.49.49,0,0,0-.37-.13,1,1,0,0,0-.34.06,1.53,1.53,0,0,0-.35.21l-.19-.24a1.36,1.36,0,0,1,.88-.33.93.93,0,0,1,.63.2.71.71,0,0,1,.24.56,1,1,0,0,1-.07.36,1.68,1.68,0,0,1-.21.36,4.31,4.31,0,0,1-.46.5l-.6.59v0h1.45Z"/><path d="M45.08,37.26a2.14,2.14,0,0,1-.23,1.11.87.87,0,0,1-1.43,0,2.06,2.06,0,0,1-.24-1.1,2.14,2.14,0,0,1,.23-1.11.78.78,0,0,1,.72-.37.8.8,0,0,1,.71.38A2.06,2.06,0,0,1,45.08,37.26Zm-1.55,0a2,2,0,0,0,.15.9.46.46,0,0,0,.45.28.47.47,0,0,0,.45-.29,2,2,0,0,0,.15-.89,2,2,0,0,0-.15-.89.46.46,0,0,0-.45-.28.49.49,0,0,0-.46.27A2.21,2.21,0,0,0,43.53,37.26Z"/><path d="M49.46,38.7h-1.9v-.3l.75-.76a3.83,3.83,0,0,0,.45-.49,1.05,1.05,0,0,0,.17-.28.94.94,0,0,0,0-.3.45.45,0,0,0-.14-.35.49.49,0,0,0-.37-.13.92.92,0,0,0-.33.06,1.38,1.38,0,0,0-.36.21l-.19-.24a1.38,1.38,0,0,1,.88-.33,1,1,0,0,1,.64.2.7.7,0,0,1,.23.56.86.86,0,0,1-.07.36,1.3,1.3,0,0,1-.2.36,5.48,5.48,0,0,1-.46.5l-.6.59v0h1.45Z"/><path d="M51.09,38.7h-.34v-2c0-.18,0-.34,0-.49l-.11.11-.44.36L50,36.43l.78-.6h.29Z"/><path d="M6.2,44.73H4.31v-.29l.75-.76.45-.49a1.21,1.21,0,0,0,.16-.29.73.73,0,0,0,.06-.3.45.45,0,0,0-.14-.35.49.49,0,0,0-.37-.13,1,1,0,0,0-.34.06,1.53,1.53,0,0,0-.35.21l-.19-.23a1.32,1.32,0,0,1,.88-.34.93.93,0,0,1,.63.2.71.71,0,0,1,.24.56A.94.94,0,0,1,6,43a1.47,1.47,0,0,1-.21.35,3.62,3.62,0,0,1-.46.5l-.6.59v0H6.2Z"/><path d="M8.5,44.73H6.6v-.29l.76-.76.45-.49A1.71,1.71,0,0,0,8,42.9a.73.73,0,0,0,0-.3.45.45,0,0,0-.13-.35.51.51,0,0,0-.37-.13,1,1,0,0,0-.34.06,1.53,1.53,0,0,0-.35.21l-.19-.23a1.32,1.32,0,0,1,.88-.34,1,1,0,0,1,.63.2.71.71,0,0,1,.24.56,1.16,1.16,0,0,1-.07.37,1.9,1.9,0,0,1-.21.35,3.62,3.62,0,0,1-.46.5l-.6.59v0H8.5Z"/><path d="M13.94,44.73H12v-.29l.75-.76.45-.49a1.21,1.21,0,0,0,.16-.29.73.73,0,0,0,.06-.3.45.45,0,0,0-.14-.35.49.49,0,0,0-.37-.13.88.88,0,0,0-.33.06,1.38,1.38,0,0,0-.36.21l-.19-.23a1.32,1.32,0,0,1,.88-.34.93.93,0,0,1,.63.2.71.71,0,0,1,.24.56.94.94,0,0,1-.07.37,1.47,1.47,0,0,1-.21.35,3.62,3.62,0,0,1-.46.5l-.6.59v0h1.46Z"/><path d="M16.12,42.53A.66.66,0,0,1,16,43a.76.76,0,0,1-.44.24h0a.86.86,0,0,1,.51.22.63.63,0,0,1,.17.46.76.76,0,0,1-.28.64,1.29,1.29,0,0,1-.82.22,2.77,2.77,0,0,1-.42,0,1.82,1.82,0,0,1-.37-.13v-.32a1.79,1.79,0,0,0,.39.13,1.48,1.48,0,0,0,.41,0c.48,0,.72-.19.72-.56s-.27-.51-.8-.51h-.28v-.3H15a.82.82,0,0,0,.53-.15.45.45,0,0,0,.19-.4.39.39,0,0,0-.14-.32.61.61,0,0,0-.38-.11,1,1,0,0,0-.35.05,1.45,1.45,0,0,0-.37.19l-.18-.24a1.16,1.16,0,0,1,.41-.22,1.53,1.53,0,0,1,.49-.08,1,1,0,0,1,.65.19A.62.62,0,0,1,16.12,42.53Z"/><path d="M21.67,44.73h-1.9v-.29l.75-.76.45-.49a1.21,1.21,0,0,0,.16-.29.73.73,0,0,0,.06-.3.45.45,0,0,0-.14-.35.49.49,0,0,0-.37-.13.88.88,0,0,0-.33.06,1.38,1.38,0,0,0-.36.21l-.19-.23a1.32,1.32,0,0,1,.88-.34.93.93,0,0,1,.63.2.71.71,0,0,1,.24.56.94.94,0,0,1-.07.37,1.47,1.47,0,0,1-.21.35,3.62,3.62,0,0,1-.46.5l-.6.59v0h1.46Z"/><path d="M24.09,44.08h-.41v.65h-.35v-.65H22v-.3l1.35-1.94h.37v1.92h.41Zm-.76-.32v-.9c0-.18,0-.39,0-.64h0a1.15,1.15,0,0,1-.08.15,1.94,1.94,0,0,1-.1.17l-.86,1.22Z"/><path d="M28.36,44.73h-1.9v-.29l.75-.76a6,6,0,0,0,.45-.49,1.21,1.21,0,0,0,.16-.29.73.73,0,0,0,.06-.3.45.45,0,0,0-.14-.35.49.49,0,0,0-.37-.13.88.88,0,0,0-.33.06,1.38,1.38,0,0,0-.36.21l-.19-.23a1.32,1.32,0,0,1,.88-.34A1,1,0,0,1,28,42a.74.74,0,0,1,.23.56.94.94,0,0,1-.07.37,1.41,1.41,0,0,1-.2.35,4.4,4.4,0,0,1-.46.5l-.6.59v0h1.45Z"/><path d="M29.67,43a1,1,0,0,1,.71.23.77.77,0,0,1,.26.61.91.91,0,0,1-.29.71,1.19,1.19,0,0,1-.79.25,1.38,1.38,0,0,1-.74-.16v-.33a1.42,1.42,0,0,0,.35.14,1.83,1.83,0,0,0,.4,0,.75.75,0,0,0,.52-.16.59.59,0,0,0,.18-.46c0-.39-.24-.58-.71-.58a2.27,2.27,0,0,0-.5.06l-.17-.12L29,41.86h1.43v.32H29.3l-.07.83A2.25,2.25,0,0,1,29.67,43Z"/><path d="M36.09,44.73h-1.9v-.29l.75-.76a6,6,0,0,0,.45-.49,1.21,1.21,0,0,0,.16-.29.73.73,0,0,0,.06-.3.45.45,0,0,0-.14-.35.49.49,0,0,0-.37-.13.88.88,0,0,0-.33.06,1.38,1.38,0,0,0-.36.21l-.19-.23a1.32,1.32,0,0,1,.88-.34,1,1,0,0,1,.64.2.74.74,0,0,1,.23.56.94.94,0,0,1-.07.37,1.41,1.41,0,0,1-.2.35,4.4,4.4,0,0,1-.46.5l-.6.59v0h1.45Z"/><path d="M36.52,43.5c0-1.12.44-1.68,1.31-1.68a1.19,1.19,0,0,1,.36,0v.3a1.23,1.23,0,0,0-.35,0,.86.86,0,0,0-.7.28,1.44,1.44,0,0,0-.27.88h0a.77.77,0,0,1,.68-.34.78.78,0,0,1,.61.24.9.9,0,0,1,.23.64,1,1,0,0,1-.25.7.87.87,0,0,1-.67.26.88.88,0,0,1-.85-.59A1.72,1.72,0,0,1,36.52,43.5Zm1,1a.51.51,0,0,0,.42-.17.74.74,0,0,0,.15-.49.59.59,0,0,0-.15-.44.5.5,0,0,0-.41-.16.64.64,0,0,0-.31.07.56.56,0,0,0-.23.2.43.43,0,0,0-.09.26,1,1,0,0,0,.08.37.84.84,0,0,0,.22.27A.57.57,0,0,0,37.49,44.47Z"/><path d="M42.77,44.73H40.88v-.29l.75-.76.45-.49a1.71,1.71,0,0,0,.16-.29.73.73,0,0,0,0-.3.45.45,0,0,0-.13-.35.49.49,0,0,0-.37-.13,1,1,0,0,0-.34.06,1.53,1.53,0,0,0-.35.21l-.19-.23a1.32,1.32,0,0,1,.88-.34.93.93,0,0,1,.63.2.71.71,0,0,1,.24.56,1.16,1.16,0,0,1-.07.37,1.9,1.9,0,0,1-.21.35,3.62,3.62,0,0,1-.46.5l-.6.59v0h1.45Z"/><path d="M43.53,44.73l1.18-2.55H43.16v-.32h1.92v.27l-1.16,2.6Z"/><path d="M49.46,44.73h-1.9v-.29l.75-.76a6,6,0,0,0,.45-.49,1.28,1.28,0,0,0,.17-.29.94.94,0,0,0,0-.3.45.45,0,0,0-.14-.35.49.49,0,0,0-.37-.13.92.92,0,0,0-.33.06,1.38,1.38,0,0,0-.36.21l-.19-.23a1.34,1.34,0,0,1,.88-.34,1,1,0,0,1,.64.2.7.7,0,0,1,.23.56.94.94,0,0,1-.07.37,1.41,1.41,0,0,1-.2.35,4.4,4.4,0,0,1-.46.5l-.6.59v0h1.45Z"/><path d="M50.81,41.82a1,1,0,0,1,.63.18.59.59,0,0,1,.23.51.58.58,0,0,1-.13.38,1.17,1.17,0,0,1-.41.32,1.44,1.44,0,0,1,.49.35.67.67,0,0,1,.14.43.71.71,0,0,1-.25.57,1.05,1.05,0,0,1-.69.21,1.15,1.15,0,0,1-.71-.2.7.7,0,0,1-.25-.57.85.85,0,0,1,.6-.77,1.1,1.1,0,0,1-.39-.33.69.69,0,0,1-.11-.4.6.6,0,0,1,.23-.5A1,1,0,0,1,50.81,41.82ZM50.21,44a.44.44,0,0,0,.16.36.69.69,0,0,0,.45.13.68.68,0,0,0,.44-.13.44.44,0,0,0,.16-.37.46.46,0,0,0-.15-.34,1.64,1.64,0,0,0-.52-.27,1,1,0,0,0-.41.27A.49.49,0,0,0,50.21,44Zm.6-1.89a.54.54,0,0,0-.37.11.36.36,0,0,0-.14.3.4.4,0,0,0,.06.22.47.47,0,0,0,.15.17,1.55,1.55,0,0,0,.32.16.89.89,0,0,0,.38-.24.44.44,0,0,0,.11-.31.37.37,0,0,0-.14-.31A.58.58,0,0,0,50.81,42.11Z"/><path d="M6.2,50.76H4.31v-.29l.75-.76c.22-.23.37-.39.45-.49a1.21,1.21,0,0,0,.16-.29.72.72,0,0,0,.06-.29.47.47,0,0,0-.14-.36.54.54,0,0,0-.37-.13,1,1,0,0,0-.34.06,1.31,1.31,0,0,0-.35.22l-.19-.24a1.32,1.32,0,0,1,.88-.34.89.89,0,0,1,.63.21.68.68,0,0,1,.24.55A.94.94,0,0,1,6,49a1.35,1.35,0,0,1-.21.36,4.41,4.41,0,0,1-.46.49l-.6.6H6.2Z"/><path d="M8.5,49.12q0,1.68-1.32,1.68a1.19,1.19,0,0,1-.36,0v-.3a1,1,0,0,0,.36,0,1,1,0,0,0,.52-.12A.85.85,0,0,0,8,50a2.06,2.06,0,0,0,.13-.65h0a.76.76,0,0,1-.68.33.78.78,0,0,1-.6-.23.9.9,0,0,1-.23-.64,1,1,0,0,1,.25-.71.9.9,0,0,1,.67-.26A.88.88,0,0,1,8,48a1,1,0,0,1,.34.44A1.76,1.76,0,0,1,8.5,49.12Zm-1-1a.54.54,0,0,0-.42.17.76.76,0,0,0-.15.5.66.66,0,0,0,.14.44.54.54,0,0,0,.41.15.79.79,0,0,0,.32-.07.57.57,0,0,0,.23-.2.4.4,0,0,0,.09-.25.91.91,0,0,0-.08-.37.6.6,0,0,0-.22-.27A.51.51,0,0,0,7.53,48.15Z"/><path d="M13.83,48.56a.65.65,0,0,1-.16.46.81.81,0,0,1-.44.23v0a.86.86,0,0,1,.52.22.64.64,0,0,1,.17.46.76.76,0,0,1-.29.63,1.29,1.29,0,0,1-.82.22,2.77,2.77,0,0,1-.42,0,1.33,1.33,0,0,1-.37-.12v-.33a3,3,0,0,0,.39.14,2,2,0,0,0,.41,0q.72,0,.72-.57c0-.34-.26-.51-.8-.51h-.28v-.3h.29a.87.87,0,0,0,.52-.14.47.47,0,0,0,.19-.4.38.38,0,0,0-.13-.32.61.61,0,0,0-.39-.12,1.29,1.29,0,0,0-.35.05,1.86,1.86,0,0,0-.37.19L12,48.15a1.34,1.34,0,0,1,.41-.22,1.53,1.53,0,0,1,.49-.08,1,1,0,0,1,.65.19A.63.63,0,0,1,13.83,48.56Z"/><path d="M16.24,49.32A2.1,2.1,0,0,1,16,50.44a.81.81,0,0,1-.72.36.79.79,0,0,1-.71-.37,2.08,2.08,0,0,1-.24-1.11,2.14,2.14,0,0,1,.23-1.11.81.81,0,0,1,.72-.36.79.79,0,0,1,.71.37A2.09,2.09,0,0,1,16.24,49.32Zm-1.55,0a2,2,0,0,0,.15.9.5.5,0,0,0,.9,0,2.75,2.75,0,0,0,0-1.79.46.46,0,0,0-.45-.28.48.48,0,0,0-.46.28A2.13,2.13,0,0,0,14.69,49.32Z"/><path d="M21.56,48.56a.65.65,0,0,1-.16.46.81.81,0,0,1-.44.23v0a.86.86,0,0,1,.52.22.64.64,0,0,1,.17.46.76.76,0,0,1-.29.63,1.29,1.29,0,0,1-.82.22,2.77,2.77,0,0,1-.42,0,1.18,1.18,0,0,1-.36-.12v-.33a2.24,2.24,0,0,0,.39.14,1.83,1.83,0,0,0,.4,0q.72,0,.72-.57c0-.34-.26-.51-.8-.51h-.28v-.3h.29A.87.87,0,0,0,21,49a.47.47,0,0,0,.19-.4.38.38,0,0,0-.13-.32.59.59,0,0,0-.39-.12,1.29,1.29,0,0,0-.35.05,1.86,1.86,0,0,0-.37.19l-.18-.24a1.34,1.34,0,0,1,.41-.22,1.57,1.57,0,0,1,.49-.08,1,1,0,0,1,.65.19A.63.63,0,0,1,21.56,48.56Z"/><path d="M23.3,50.76H23v-2c0-.18,0-.35,0-.5l-.12.11-.44.36-.18-.24.78-.6h.29Z"/></g></g></g></svg>