<svg xmlns="http://www.w3.org/2000/svg" viewBox="0 0 11.38 11.38"><defs><style>.cls-1{fill:#d22940;}.cls-2{fill:#f1f2f2;}.cls-3{fill:#231f20;}</style></defs><title>2Recurso 3</title><g id="Capa_2" data-name="Capa 2"><g id="Layer_1" data-name="Layer 1"><path class="cls-1" d="M11.38,5.69A5.69,5.69,0,1,1,5.69,0,5.69,5.69,0,0,1,11.38,5.69Z"/><path class="cls-2" d="M10.05,5.69A4.36,4.36,0,1,1,5.69,1.33,4.36,4.36,0,0,1,10.05,5.69Z"/><path class="cls-3" d="M5.69,10.26a4.57,4.57,0,1,1,4.56-4.57A4.57,4.57,0,0,1,5.69,10.26Zm0-8.73A4.16,4.16,0,1,0,9.85,5.69,4.17,4.17,0,0,0,5.69,1.53Z"/><polygon class="cls-2" points="8.65 7.03 5.69 5.69 5.69 3.54 8.65 7.03"/><path class="cls-3" d="M8.65,7.23l-.08,0-3-1.33a.21.21,0,0,1-.12-.19V3.54a.2.2,0,0,1,.4,0v2L8.73,6.84a.21.21,0,0,1,.11.27A.21.21,0,0,1,8.65,7.23Z"/></g></g></svg>