<svg xmlns="http://www.w3.org/2000/svg" viewBox="0 0 7.13 10.68"><defs><style>.cls-1{fill:#f1f2f2;}.cls-2{fill:#231f20;}.cls-3{fill:#d22940;}</style></defs><title>2Recurso 1</title><g id="Capa_2" data-name="Capa 2"><g id="Layer_1" data-name="Layer 1"><path class="cls-1" d="M.2,3.57a3.37,3.37,0,1,1,6.73,0,3.48,3.48,0,0,1-.4,1.6L5.66,6.55,5.38,8.49H1.75L1.42,6.55.61,5.16A3.3,3.3,0,0,1,.2,3.57Z"/><path class="cls-2" d="M5.38,8.69H1.75a.2.2,0,0,1-.2-.17l-.32-1.9L.43,5.27A3.64,3.64,0,0,1,0,3.57a3.57,3.57,0,1,1,7.13,0,3.65,3.65,0,0,1-.42,1.69L5.86,6.62l-.28,1.9A.2.2,0,0,1,5.38,8.69Zm-3.46-.4H5.2l.26-1.77,0-.07.86-1.39A3.16,3.16,0,1,0,.41,3.57a3.26,3.26,0,0,0,.37,1.5l.81,1.38a.09.09,0,0,1,0,.07Z"/><polygon class="cls-1" points="2.43 4.95 3.57 8.54 4.53 4.95 2.43 4.95"/><path class="cls-2" d="M3.57,8.74a.2.2,0,0,1-.2-.14L2.23,5a.19.19,0,0,1,0-.18.2.2,0,0,1,.17-.09h2.1a.18.18,0,0,1,.16.08.2.2,0,0,1,0,.18l-1,3.59a.19.19,0,0,1-.19.15ZM2.7,5.15l.85,2.67.72-2.67Z"/><rect class="cls-3" x="1.73" y="8.49" width="3.64" height="2.19"/></g></g></svg>