<svg id="Layer_1" data-name="Layer 1" xmlns="http://www.w3.org/2000/svg" xmlns:xlink="http://www.w3.org/1999/xlink" viewBox="0 0 43.78 34.17"><defs><style>.cls-1{fill:none;}.cls-2{fill:#e6e7e8;}.cls-3{fill:#fff;}.cls-4{fill:#212121;}.cls-5{fill:#f5c185;}.cls-6{fill:#f65338;}.cls-7{fill:#e2a971;}.cls-8{fill:#06c;}.cls-9{fill:#e5e5e5;}.cls-10{fill:#231f20;}.cls-11{fill:#2d2d2d;}.cls-12{fill:#66240e;}.cls-13{fill:#843817;}.cls-14{fill:#c0fff7;}.cls-15{fill:#9ee2ff;}.cls-16{fill:#d22940;}.cls-17{fill:#ffc200;}.cls-18{clip-path:url(#clip-path);}</style><clipPath id="clip-path"><ellipse class="cls-1" cx="-21.79" cy="-79.64" rx="14.98" ry="14.98" transform="translate(57.91 -101.2) rotate(-89.83)"/></clipPath></defs><title>15553 [Convertido]</title><rect class="cls-2" x="-169.24" y="-373.24" width="473" height="450"/><rect class="cls-3" x="-144.99" y="-348.45" width="201.96" height="400.65"/><rect class="cls-4" x="-144.99" y="-30.51" width="201.96" height="82.71"/><rect class="cls-3" x="-43.68" width="43.78" height="43"/><rect class="cls-2" width="43.78" height="43"/><path class="cls-5" d="M31.7,16.67c0,.14-.07.2,0,.36a1.78,1.78,0,0,0,.18.43,1.74,1.74,0,0,0,.69.74h0l0,.09c0,.1.09.24.23.21.34-.07,1.07-.5.7-.89a.19.19,0,0,0-.11-.07l-.14-.15,0,0-.07-.1A1,1,0,0,0,33,17.1l-.44-.44-.09-.08,0,0,0,0,0,0,0,0-.1-.12c-.06-.12-.26-.08-.2,0v0a.44.44,0,0,0-.2,0C31.71,16.47,31.72,16.56,31.7,16.67Zm.85.93.13.09,0,0,.08.1a2.39,2.39,0,0,0-.12.22,1.15,1.15,0,0,1-.17-.26c0-.06.05-.11.05-.17Z"/><path class="cls-5" d="M32.08,16.4a6,6,0,0,0-1.2-1.51,13.5,13.5,0,0,0-1.31-1.2c-.43-.34-.42-.83-.56-1.32a11.58,11.58,0,0,0-.73-1.91,1,1,0,0,1-.76.78.7.7,0,0,1-.35,0,8.77,8.77,0,0,0,.72,1.62c.22.41.42.85.65,1.26a4.1,4.1,0,0,0,1.16,1.15l.27.2c.36.27.73.54,1.11.8.21.15.92.81,1.05.39C32.17,16.53,32.15,16.54,32.08,16.4Z"/><path class="cls-6" d="M27.61,9.2c-.19-.94-.89-1.93-.88-2.83a2.59,2.59,0,0,0-.55-2,3.15,3.15,0,0,0-2.1-.87,1.92,1.92,0,0,0-1.63.79,2.82,2.82,0,0,0-.62,1.91,2.89,2.89,0,0,0,.34,1c.06.11.12.22.17.33V7.7a15.3,15.3,0,0,0,.26,1.65,6.44,6.44,0,0,0,.3,1.45,1.86,1.86,0,0,0,1.67,1.12,3,3,0,0,0,1.31-.26c.39-.17.76-.4,1.15-.56l.26-.12-.21-.86.36.75c.23-.2.28-.47.25-1A5.05,5.05,0,0,0,27.61,9.2Z"/><path class="cls-5" d="M22,19.9a.51.51,0,0,0-.08-.17h0c.12,0,0-.2-.09-.18h-.19l-.05,0h-.08l-.11,0-.58-.07a1.33,1.33,0,0,0-.2,0h-.16l-.2,0a.15.15,0,0,0-.1,0c-.42.44-.46.77-.34,1.07a.17.17,0,0,0,.29,0l.05-.08,0,0a1.65,1.65,0,0,0,.95.08,1.69,1.69,0,0,0,.44-.12c.14-.06.17-.14.27-.24S22,20,22,19.9Zm-1.31.17c-.06,0-.06.11-.12.14a2.36,2.36,0,0,1-.29,0,2.29,2.29,0,0,0,.1-.23h.17l.14.05Z"/><path class="cls-5" d="M28.79,25.79c0-.11,0-.22,0-.33l-.51-.07-.75-.14-.19,0h-.1l-.17,0H27c0,1.15.06,2.3.11,3.45,0,1,.09,2,.09,2.95a6,6,0,0,0,.11,1c0,.56.12,1.13.17,1.7a.31.31,0,0,0,0,.1l0,.4a.32.32,0,0,0,.34.28.36.36,0,0,0,.32-.32c0-.06,0-.12,0-.18a.41.41,0,0,0,.1-.22c.2-1.43.5-2.84.63-4.27a13.72,13.72,0,0,0,0-2.22A16.2,16.2,0,0,1,28.79,25.79Z"/><path class="cls-5" d="M25.69,25.07a12.25,12.25,0,0,1-1.58-.22,6,6,0,0,1,.11.95A16.42,16.42,0,0,1,24,27.88a15.07,15.07,0,0,0-.07,2.23c.07,1.43.31,2.85.45,4.27a.3.3,0,0,0,.09.22l0,.19a.35.35,0,0,0,.31.32.34.34,0,0,0,.35-.27c0-.14,0-.27.05-.4s0-.07,0-.11c.07-.57.17-1.13.25-1.7a7.1,7.1,0,0,0,.15-1c.05-1,.14-2,.22-3,.1-1.18.18-2.36.26-3.55Z"/><path class="cls-5" d="M24.35,9.63a.84.84,0,0,0,1.16-.28A.25.25,0,0,0,25.64,9l0-.06a.42.42,0,0,0,0-.1c-.05-.12-.09-.24-.13-.36l-.06-.14s0-.07,0-.1a.3.3,0,0,0-.08-.16V8a.3.3,0,0,1,0-.08c-.13-.26-.39-.14-.39.09a.26.26,0,0,0-.07.19.06.06,0,0,0,0,0,1.23,1.23,0,0,0,0,.19h0a.17.17,0,0,0-.23.08.1.1,0,0,0-.09,0l0,0-.05-.07c-.12-.16-.34,0-.34.17a.39.39,0,0,0,0,.14l.06.18,0,.15h0c0,.08,0,.17.05.26A.32.32,0,0,0,24.35,9.63Z"/><path class="cls-7" d="M24.07,8.76l.06.18,0,.15h0s.66.76,1.42-.27l-.19-.5s0-.07,0-.1a.3.3,0,0,0-.08-.16V8l-.51.24-.38.18L24,8.62A.39.39,0,0,0,24.07,8.76Z"/><path class="cls-5" d="M22.41,5.47a.64.64,0,0,1,.22-.21c.18-.13.52-.1.72-.18s.84-.39,1.19-.16.35.65.47,1a1.43,1.43,0,0,0,.08.22h0A.44.44,0,0,1,25.37,6a.22.22,0,0,1,.23.11.86.86,0,0,1-.17.81h0a1.61,1.61,0,0,1,.08.38,2,2,0,0,1-.45,1.22.93.93,0,0,1-.95.42,1.18,1.18,0,0,1-.88-.62,3.15,3.15,0,0,1-.56-1.13C22.54,6.64,22.08,6,22.41,5.47Z"/><path class="cls-5" d="M22.31,16.16a4.58,4.58,0,0,0,0-1.28c.35,0,.72.56,1,.32l.05,0c0,.28,0,.56.07.84A4,4,0,0,1,23,17.58l-.12.32c-.16.42-.34.85-.53,1.27-.1.23-.35,1.17-.68.88-.12-.1-.09-.11-.11-.26a6.24,6.24,0,0,1,.23-1.92A12.81,12.81,0,0,1,22.31,16.16Z"/><path class="cls-5" d="M23.11,11.15a3.71,3.71,0,0,0-.32-1,3.78,3.78,0,0,1,.4-.22l.2-.08.42-.2a.78.78,0,0,1,.59-.14,1.34,1.34,0,0,0,.4.07c.23,0,.32-.22.47-.36a.67.67,0,0,1,.21-.13c.17-.05.41.06.58.08l.65.07h0l.25,0,.24,0h.1a.4.4,0,0,1,.32.27.9.9,0,0,1,.06.22.43.43,0,0,0,0,.07,1.2,1.2,0,0,0-.13.58.36.36,0,0,1,0,.11,4.51,4.51,0,0,0,0,.52.31.31,0,0,1-.11.29l-.1.05-.34.07-.48,0H26.4l-.22,0a.17.17,0,0,1,0,.11,1.33,1.33,0,0,1-1.78.41.22.22,0,0,1-.08-.09l-.22,0a.27.27,0,0,1-.31.1,1.09,1.09,0,0,1-.55-.49.79.79,0,0,1-.1-.42S23.11,11.17,23.11,11.15Z"/><path class="cls-8" d="M29.69,22.21c0-.53.17-5-.48-4.56l0-.06-.24-.48,0-.05c0-.1-.17-.57-.26-.61a1.15,1.15,0,0,0-.28-.07H28.3a4.39,4.39,0,0,0-.72.07c-.66.09-1.34,0-2,.09a3.25,3.25,0,0,0-.45.08.31.31,0,0,0-.56.08l0,.07c-.2.57-.33,1-.5,1.59A10,10,0,0,0,23.81,21a17.33,17.33,0,0,0,.11,3.53,4.92,4.92,0,0,1,.1,1.58,10.08,10.08,0,0,1-.55,1.45c-.35,1.18,5,1.46,5.53.62a1.28,1.28,0,0,0,.17-.75,16.93,16.93,0,0,1,0-2.66c.13-.87.4-1.72.49-2.6Z"/><path class="cls-3" d="M28.61,15.79a5,5,0,0,1-.76-1.57,2.22,2.22,0,0,1,0-.63c0-.09,0-.19,0-.29l.12.18a7.62,7.62,0,0,1,.64,1.11c0,.06.42-.06.66-.16a1.58,1.58,0,0,0,.23-.11.49.49,0,0,0,.16-.64c-.14-.26-.3-.51-.42-.78a17.29,17.29,0,0,1-.62-1.84A3.64,3.64,0,0,0,27.8,9.4C27.28,8.93,26.59,9.09,26,9h0a2.65,2.65,0,0,0-.11-.3.3.3,0,0,0-.21-.15A1.94,1.94,0,0,1,24,9a.31.31,0,0,0-.08.28c0,.11,0,.21,0,.31a2.58,2.58,0,0,0-1,.39,1.52,1.52,0,0,0-.62,1.15,10.65,10.65,0,0,0-.1,1.37c0,.64.1,1.28,0,1.92a1,1,0,0,0,.16.82,4.72,4.72,0,0,0,.65.51.32.32,0,0,0,.45-.17,3,3,0,0,0,.22-.85c0-.13,0-.26,0-.39.05.06.11.12.16.19a1,1,0,0,1,.18.37,4.72,4.72,0,0,1,0,1.3,8.37,8.37,0,0,0,0,2.18.48.48,0,0,0,.05.12l.05.06a1.48,1.48,0,0,0,1.06.3,6.31,6.31,0,0,0,3.41-.53,1.22,1.22,0,0,0,.74-1,3.73,3.73,0,0,0-.56-1.28A2.48,2.48,0,0,0,28.61,15.79Z"/><path class="cls-9" d="M24.09,14.37a.32.32,0,0,0-.23.17c-.05-.07-.11-.13-.16-.19,0,.13,0,.26,0,.39-.28-.42-.86-1.42-.48-2A1.48,1.48,0,0,0,24.09,14.37Z"/><path class="cls-9" d="M27.34,13.8s.3-.25.56-.5c0,.1,0,.2,0,.29A2.11,2.11,0,0,1,27.34,13.8Z"/><path class="cls-9" d="M28.14,13.3a.41.41,0,0,1-.12.18l-.12-.18c.27-.24-.3-1.42-.32-1.47S28.26,13,28.14,13.3Z"/><polygon class="cls-10" points="26.61 25.32 29.22 25.32 29.76 22.76 27.2 22.76 26.61 25.32"/><polygon class="cls-11" points="25.51 25.32 28.75 25.32 28.91 24.97 25.7 24.98 25.51 25.32"/><polygon class="cls-10" points="28.91 24.97 29.61 24.97 29.61 25.3 28.75 25.3 28.91 24.97"/><polygon class="cls-11" points="23.25 23.61 33.21 24.46 33.21 15.74 23.25 16.59 23.25 23.61"/><polygon class="cls-3" points="32.58 23.77 32.58 16.43 23.7 17.08 23.7 23.07 32.58 23.77"/><polygon class="cls-10" points="33.21 15.74 33.65 16.53 33.65 23.98 33.21 24.46 33.21 15.74"/><polygon class="cls-10" points="14.55 16.07 13.36 15.95 12.59 14.78 12.66 14.73 13.41 15.87 14.55 15.98 14.55 16.07"/><path class="cls-10" d="M14.15,16.05a.3.3,0,0,0,.3.31.31.31,0,0,0,.31-.31.3.3,0,0,0-.31-.3A.29.29,0,0,0,14.15,16.05Z"/><path class="cls-3" d="M17.33,29.57,19.23,39Z"/><path class="cls-10" d="M19.23,39.1a.12.12,0,0,1-.11-.09l-1.9-9.42a.11.11,0,0,1,.09-.13c.06,0,.11,0,.13.09L19.34,39a.12.12,0,0,1-.09.13Z"/><path class="cls-3" d="M10.83,29.57,8.93,39Z"/><path class="cls-10" d="M8.93,39.1h0A.12.12,0,0,1,8.82,39l1.9-9.42c0-.06.08-.11.13-.09a.11.11,0,0,1,.09.13L9,39A.12.12,0,0,1,8.93,39.1Z"/><polygon class="cls-12" points="16.89 29.07 10.97 29.07 9.46 30.25 16.89 30.25 16.89 29.07"/><path class="cls-13" d="M11.66,31.49h5.23V30.26H9.45A2.62,2.62,0,0,0,11.66,31.49Z"/><path class="cls-13" d="M9.45,30.26,8.61,21.1a1.06,1.06,0,0,1,.75-1.2L11.62,19a1.07,1.07,0,0,1,1.35,1l-.13,8.64Z"/><path class="cls-5" d="M23.87,25.41c0-.22,0-.58-.26-.7l-.05,0h0a1,1,0,0,0-.54-.21,1.85,1.85,0,0,0-.68,0,3.38,3.38,0,0,0-1.21.32c-.23.13-.16.32,0,.41a.07.07,0,0,0,0,.08c.05.07,0,.16.12.24a1,1,0,0,0,.27.12,2.11,2.11,0,0,0,.83,0,.29.29,0,0,0,.1,0,1.27,1.27,0,0,0,.74-.17.28.28,0,0,0,.24,0C23.47,25.58,23.86,25.59,23.87,25.41Zm-.79-.27h-.24l-.18,0h0a0,0,0,0,0,0,0,.11.11,0,0,0,0-.08h0l.15,0h0l.19.09Z"/><polygon class="cls-14" points="21.08 24.4 21.52 24.47 21.34 25.54 20.8 25.42 21.08 24.4"/><path class="cls-10" d="M17.83,30.57c-.16-.75-4.48-1.12-4.59-1.71a.41.41,0,0,1,.18-.46,13.19,13.19,0,0,1-.1-1.78c0-.44.71-.47.7,0,0,.14,0,.27,0,.4h0a3.17,3.17,0,0,0,.06-.75.28.28,0,0,1,.06-.21.32.32,0,0,1,.41-.33,4.56,4.56,0,0,1,.52.18.36.36,0,0,1,.66,0v0A4.38,4.38,0,0,1,15.88,27c1.29,1,3.75,1,3.84,1.71C20,31.21,18.53,30.46,17.83,30.57Z"/><path class="cls-10" d="M18.08,30.38a7.34,7.34,0,0,0,1.64-1.65c.76,2.06,2.84,7.86,2.77,8.05a2.66,2.66,0,0,1-.48.72c-.38.44-.85.37-1.38.62-.17.08-2.17-5.77-2.8-7.55Z"/><path class="cls-5" d="M13,17.51a.58.58,0,0,0,.3.55,2,2,0,0,0,.78.24c.42,0,1.11-.11,1.1-.6,0-.06,0-.28,0-.54s0-.47,0-.69a1.68,1.68,0,0,0-.08-.54.46.46,0,0,0-.49.09l-.1,0a.35.35,0,0,0-.15.12h0a.35.35,0,0,0-.14,0,.41.41,0,0,0-.34-.09.44.44,0,0,0-.37,0s0-.1,0-.14c0,.21-.08.41-.13.62S13.09,17.18,13,17.51Z"/><path class="cls-7" d="M13.26,16.53a1.32,1.32,0,0,0,1.89.63c0-.22,0-.47,0-.69-.07,0-.34-.23-.67-.42a.35.35,0,0,0-.15.12h0a.35.35,0,0,0-.14,0,.41.41,0,0,0-.34-.09.44.44,0,0,0-.37,0s0-.1,0-.14C13.35,16.12,13.31,16.32,13.26,16.53Z"/><path class="cls-11" d="M15.42,32.06l.33-.13a12.43,12.43,0,0,0,2-1c1.3,2.75,2.81,5.88,3.59,7.26.09.16-1.33,1.08-1.9,1.12-.29,0-.44-.33-.55-.58S17,35.07,15.42,32.06Z"/><path class="cls-11" d="M14.64,28c0,.37.8.89.51,1.07,0,.2,2.64,1.33,2.63,1.89-.21,1.15-2.11,1.09-2.36,1.15-4.53-1.26-4.25-2.55-4.3-2.87a5.89,5.89,0,0,1,.22-2,1.67,1.67,0,0,1,.3-.85v0s0-.08,0-.13a.41.41,0,0,1,.06-.23.34.34,0,0,1,.44-.34,5.13,5.13,0,0,1,1.82.92.37.37,0,0,1,.73,0,5,5,0,0,1-.07,1C14.61,27.88,14.66,27.68,14.64,28Z"/><path class="cls-10" d="M11.11,28.44s3.57.87,4.81-.18c.6-.51-2.37-1.63-2.37-1.63l-2.21.57Z"/><path class="cls-14" d="M15.37,17.42l-.1,0a.16.16,0,0,0-.1.15,1.1,1.1,0,0,1-.9.39,1.31,1.31,0,0,1-1.28-.5h0a.21.21,0,0,0-.16,0c-.43.14-.92.19-1.36.37h0L11.1,18c-.25.09.64,3.66.63,3.85,0,.53-.09,1.07-.13,1.6s-.08,1.22-.14,1.82c0,.13,0,.26,0,.39a3.3,3.3,0,0,0,0,1.13c.06.22.18.05.33.22a10.62,10.62,0,0,0,2.43.38c.69.05,1.41.15,1.89-.37.28-.29.49-.33.58-.72s-.24-3.56-.24-3.8a11.1,11.1,0,0,1,0-1.41C16.46,19.93,17.13,17.38,15.37,17.42Z"/><path class="cls-11" d="M12.41,17.62s1.88,4,1.89,4.34.38,4.49.48,5.53c0,.12-.09.92-.22.92-.7,0-3,0-3.43-.37.12-1.93.24-6.34.24-6.34s-1.23-3.54-.76-3.68A7.31,7.31,0,0,1,12.41,17.62Z"/><path class="cls-10" d="M14.16,21.43l-1.35-3.92-.9.11a.12.12,0,0,0-.08.16l2.54,5L14.29,22A1.38,1.38,0,0,0,14.16,21.43Z"/><path class="cls-11" d="M15.37,17.42a2.67,2.67,0,0,1,1.72.82c.49.72,1.24,5.24,1.24,5.24l2.9.67L21,25.82s-3.71-.54-4-.88a8.7,8.7,0,0,1-.54-2.25l.29,5s-1.37.91-1.54.56-.34-6.34-.34-6.34Z"/><path class="cls-10" d="M14.93,22.62l0-.86.47-4.34a2.85,2.85,0,0,1,1,.17C16,19.06,14.93,22.62,14.93,22.62Z"/><polygon class="cls-15" points="14.53 18 13.11 17.12 12.81 17.51 14.11 18.65 14.53 18"/><polygon class="cls-15" points="14.53 18 14.88 18.56 15.37 17.42 15.22 17.16 14.53 18"/><path class="cls-13" d="M12.38,11.64c.34-.3.82-.51,1.2-.16.18.16-.08.44-.26.27a.41.41,0,0,0-.52,0,.18.18,0,0,1,.12.22,8.36,8.36,0,0,0-.25.81.15.15,0,0,1-.2.14c0,.19.09.37.13.54A4.39,4.39,0,0,0,13,14.64l.22.35a.53.53,0,0,1,.12.29c0,.23-.37.25-.38,0h0v0h0l0-.09L12.77,15a2.67,2.67,0,0,1-.22-.41,7.91,7.91,0,0,1-.47-1.73A1.25,1.25,0,0,1,12.38,11.64Z"/><path class="cls-13" d="M13,15.32h0Z"/><polygon class="cls-13" points="12.97 15.31 12.97 15.31 12.97 15.31 12.97 15.31"/><path class="cls-5" d="M12.92,15c-.06-.17-.19-.14-.29-.23a.84.84,0,0,1-.24-.83.48.48,0,0,1,.51-.32h0a1.16,1.16,0,0,0-.08-.32v-.37a.8.8,0,0,1,.08-.16,1.2,1.2,0,0,1,.9-.43c.77-.06,1.59.33,2.31-.1l0,.12a7.89,7.89,0,0,1-.13,2l0,.51a2.72,2.72,0,0,0,0,.49h0a2.18,2.18,0,0,1-.29.88,1.22,1.22,0,0,1-.14.35.93.93,0,0,1-.84.33,1.1,1.1,0,0,1-.84-.21,4.67,4.67,0,0,1-.59-.74A3.37,3.37,0,0,1,12.92,15Z"/><polygon class="cls-10" points="15.42 29.24 14.65 30.25 12.84 28.72 15.15 29.02 15.42 29.24"/><path class="cls-13" d="M12.69,12.82a.37.37,0,0,1,.2-.19.31.31,0,0,1,.38.2A1.25,1.25,0,0,1,13.09,14c-.1.22,0,.32,0,.51s-.05.43-.22.23a1.46,1.46,0,0,1-.25-.41c-.11-.35-.53-1.53-.53-1.53Z"/><polygon class="cls-15" points="14.53 18 14.95 27.43 14.78 27.48 14.37 18.11 14.53 18"/><path class="cls-5" d="M15,29.44a.4.4,0,0,1,.31-.43,4.14,4.14,0,0,1,1.35.14,3.52,3.52,0,0,1,.5.05,1.73,1.73,0,0,1,.74.48c.27.22.26.47.39.72a.3.3,0,0,1,.06.11c0,.09-.09.16-.2.15l-.06.07s0,0-.11,0a1.16,1.16,0,0,1-.38-.06c.21.06-.09.32-.26.15s-.72-.24-1.09-.38-1-.47-1.2-.8A.46.46,0,0,1,15,29.44Z"/><polygon class="cls-14" points="15.4 28.7 15.77 28.96 15.13 29.84 14.7 29.49 15.4 28.7"/><path class="cls-11" d="M10.5,18.09s-.85,1.38,0,7.11c.1.66,4.16,4.68,4.16,4.68l1.11-1.47-3.41-3.74L11.64,21Z"/><polygon class="cls-10" points="11.64 21.04 12.64 24.66 14.66 27.2 12.36 24.85 11.64 21.04"/><path class="cls-13" d="M17.05,11.47a5.93,5.93,0,0,1-.83-.12,1.93,1.93,0,0,0-1.51-1,1.39,1.39,0,0,0-1.14.41,2.13,2.13,0,0,0-.67.1,2.06,2.06,0,0,0-1.26,2.23,1.92,1.92,0,0,0,.79,1.35c.21.16.46-.13.34-.34s-.19-.34-.28-.55a.28.28,0,0,0,.25-.18v-.07a.2.2,0,0,0,.2-.23s0-.08,0-.11,0,0,0-.06l0,0,0,0a.43.43,0,0,1,.23-.14,3,3,0,0,1,1-.1,7.65,7.65,0,0,0,2.34-.11,1,1,0,0,0,.75-.71A.26.26,0,0,0,17.05,11.47Zm-.48.49v0h.06Z"/><rect class="cls-13" x="16.05" y="25.3" width="19.92" height="1.5" transform="translate(52.01 52.1) rotate(180)"/><rect class="cls-12" x="17.07" y="26.7" width="17.87" height="0.98" transform="translate(52.01 54.39) rotate(180)"/><polygon class="cls-13" points="34.86 39.06 35.78 39.06 33.67 27.68 32.05 27.68 34.86 39.06"/><polygon class="cls-13" points="17.15 39.06 16.23 39.06 18.33 27.68 19.95 27.68 17.15 39.06"/><polygon class="cls-15" points="19.9 6.36 18.56 5.37 19.96 4.86 19.9 6.36"/><path class="cls-15" d="M20.74,3.46a2.06,2.06,0,1,1-2.32-1.77A2.06,2.06,0,0,1,20.74,3.46Z"/><path class="cls-3" d="M18.44,4.11l0-.14a.59.59,0,0,1,0-.27.67.67,0,0,1,.2-.23l.16-.17a.22.22,0,0,0,0-.16.12.12,0,0,0-.07-.1.28.28,0,0,0-.16,0,1.17,1.17,0,0,0-.53.24l-.28-.4a1.58,1.58,0,0,1,.79-.33.81.81,0,0,1,.57.08.5.5,0,0,1,.26.39.55.55,0,0,1-.05.34.9.9,0,0,1-.24.3.79.79,0,0,0-.19.19.27.27,0,0,0,0,.12V4Zm0,.56a.27.27,0,0,1,.05-.24.39.39,0,0,1,.24-.11.34.34,0,0,1,.25,0,.28.28,0,0,1,.12.21.29.29,0,0,1-.06.23.43.43,0,0,1-.48.07A.25.25,0,0,1,18.45,4.67Z"/><polygon class="cls-16" points="24.48 21.82 24.34 21.74 26.57 18.14 28.52 20.2 29.18 18.96 30.36 20.66 31.07 19.23 31.22 19.31 30.39 20.98 29.2 19.28 28.56 20.48 28.48 20.4 26.6 18.41 24.48 21.82"/><polygon class="cls-17" points="26.89 20.71 25.42 18.88 24.58 20.23 24.44 20.14 25.4 18.6 26.88 20.44 28.82 17.94 30.34 18.58 30.93 18.08 31.04 18.21 30.36 18.77 28.87 18.14 26.89 20.71"/><path class="cls-10" d="M31.65,22.93h0l-7.24-.6a.1.1,0,0,1-.1-.11V18.88a.11.11,0,0,1,.22,0v3.24l7.14.59a.11.11,0,0,1,.1.12A.12.12,0,0,1,31.65,22.93Z"/></svg>