<svg xmlns="http://www.w3.org/2000/svg" viewBox="0 0 37.35 4.19"><defs><style>.cls-1{fill:#fff;}.cls-2{fill:#d22940;}</style></defs><title>2Recurso 2</title><g id="Capa_2" data-name="Capa 2"><g id="Layer_1" data-name="Layer 1"><path class="cls-1" d="M2.18.72a1,1,0,0,0-.66.22A1.57,1.57,0,0,0,1,1.61a2.45,2.45,0,0,0-.17.94,1,1,0,0,0,.19.69.74.74,0,0,0,.6.23,2.48,2.48,0,0,0,1-.22V4a3.13,3.13,0,0,1-1.12.21,1.46,1.46,0,0,1-1.1-.41A1.68,1.68,0,0,1,0,2.6,3.17,3.17,0,0,1,.29,1.25,2.17,2.17,0,0,1,1.06.32,2,2,0,0,1,2.18,0,2.9,2.9,0,0,1,2.8.06a2.4,2.4,0,0,1,.58.23L3.05,1A2.69,2.69,0,0,0,2.56.77,1.73,1.73,0,0,0,2.18.72Z"/><path class="cls-1" d="M7.08,1.52A3.32,3.32,0,0,1,6.8,2.93a2,2,0,0,1-.75.94,1.9,1.9,0,0,1-1.11.32,1.5,1.5,0,0,1-1.11-.41,1.58,1.58,0,0,1-.4-1.14,3.25,3.25,0,0,1,.28-1.36A2.2,2.2,0,0,1,4.47.33,1.94,1.94,0,0,1,5.59,0a1.46,1.46,0,0,1,1.1.4A1.54,1.54,0,0,1,7.08,1.52ZM5.52.72A.89.89,0,0,0,4.9,1a1.75,1.75,0,0,0-.44.7,2.78,2.78,0,0,0-.16,1,.94.94,0,0,0,.18.62A.68.68,0,0,0,5,3.47a.91.91,0,0,0,.61-.24,1.7,1.7,0,0,0,.43-.69,2.86,2.86,0,0,0,.16-1A1,1,0,0,0,6,.93.64.64,0,0,0,5.52.72Z"/><path class="cls-1" d="M11.25.06,10.69,2.7a2,2,0,0,1-.61,1.12,1.76,1.76,0,0,1-1.17.37A1.32,1.32,0,0,1,8,3.88,1.15,1.15,0,0,1,7.65,3a1.72,1.72,0,0,1,0-.39L8.23.06h.85L8.54,2.62A1.7,1.7,0,0,0,8.5,3c0,.33.17.5.52.5a.67.67,0,0,0,.54-.22,1.23,1.23,0,0,0,.29-.63L10.4.06Z"/><path class="cls-1" d="M12.52,2.57l-.33,1.57h-.85L12.2.06h1a1.48,1.48,0,0,1,1,.29,1,1,0,0,1,.33.83,1.22,1.22,0,0,1-.23.76,1.37,1.37,0,0,1-.66.47l.72,1.73h-.92l-.58-1.57Zm.15-.7h.22a.85.85,0,0,0,.56-.16.55.55,0,0,0,.21-.48.44.44,0,0,0-.13-.34.62.62,0,0,0-.42-.12H12.9Z"/><path class="cls-1" d="M17.19.72a1.08,1.08,0,0,0-.67.22,1.64,1.64,0,0,0-.47.67,2.46,2.46,0,0,0-.18.94,1,1,0,0,0,.2.69.73.73,0,0,0,.6.23,2.4,2.4,0,0,0,.94-.22V4a3.08,3.08,0,0,1-1.11.21,1.46,1.46,0,0,1-1.1-.41A1.68,1.68,0,0,1,15,2.6a3,3,0,0,1,.29-1.35,2.17,2.17,0,0,1,.77-.93A2,2,0,0,1,17.19,0a2.8,2.8,0,0,1,.61.06,2.25,2.25,0,0,1,.58.23l-.33.7a2.38,2.38,0,0,0-.48-.22A1.73,1.73,0,0,0,17.19.72Z"/><path class="cls-1" d="M20.58,4.14H18.3L19.16.06h2.28l-.15.71H19.86l-.18.9H21l-.16.7H19.52l-.22,1h1.43Z"/><path class="cls-1" d="M23.88,2.93a1.13,1.13,0,0,1-.41.92,1.7,1.7,0,0,1-1.12.34,1.73,1.73,0,0,1-1-.25V3.18a2.07,2.07,0,0,0,1,.3.83.83,0,0,0,.48-.12A.37.37,0,0,0,23,3a.46.46,0,0,0,0-.21.45.45,0,0,0-.11-.17,2.07,2.07,0,0,0-.34-.29A1.72,1.72,0,0,1,22,1.83,1.2,1.2,0,0,1,22,.6,1.11,1.11,0,0,1,22.5.16,1.67,1.67,0,0,1,23.23,0a2.34,2.34,0,0,1,1.11.27L24,.93a1.84,1.84,0,0,0-.8-.21.6.6,0,0,0-.38.13.4.4,0,0,0-.15.33.54.54,0,0,0,.1.3,1.87,1.87,0,0,0,.41.33,1.7,1.7,0,0,1,.5.5A1.13,1.13,0,0,1,23.88,2.93Z"/><polygon class="cls-2" points="26.4 0.05 25.53 4.13 36.37 4.13 37.35 0.05 26.4 0.05"/><path class="cls-1" d="M28.32,1.09a.34.34,0,0,0-.17,0A.38.38,0,0,0,28,1.3a.49.49,0,0,0,0,.21.21.21,0,0,0,.05.16.17.17,0,0,0,.14.06l.18,0v.08a.45.45,0,0,1-.2,0,.26.26,0,0,1-.2-.08.33.33,0,0,1-.08-.22A.63.63,0,0,1,28,1.25a.38.38,0,0,1,.15-.18A.44.44,0,0,1,28.32,1a.38.38,0,0,1,.19.05l0,.08A.28.28,0,0,0,28.32,1.09Z"/><path class="cls-1" d="M29.23,1.32a.75.75,0,0,1-.05.26.44.44,0,0,1-.14.18.36.36,0,0,1-.2.06.29.29,0,0,1-.22-.08.34.34,0,0,1-.08-.23.75.75,0,0,1,.05-.26.38.38,0,0,1,.15-.18.31.31,0,0,1,.2-.07.26.26,0,0,1,.21.09A.32.32,0,0,1,29.23,1.32Zm-.29-.23a.25.25,0,0,0-.15,0,.42.42,0,0,0-.11.15.78.78,0,0,0,0,.22.21.21,0,0,0,.05.16.17.17,0,0,0,.14.06A.24.24,0,0,0,29,1.68a.31.31,0,0,0,.1-.15.54.54,0,0,0,0-.22.25.25,0,0,0-.05-.16A.16.16,0,0,0,28.94,1.09Z"/><path class="cls-1" d="M29.69,1.66,30,1h.16L30,1.81h-.1l.1-.47a1.2,1.2,0,0,1,.06-.23h0l-.38.7h-.08l-.08-.7h0a1,1,0,0,1,0,.22l-.1.48h-.1L29.47,1h.14l.08.64Z"/><path class="cls-1" d="M30.82,1.22a.26.26,0,0,1-.09.21.45.45,0,0,1-.26.07H30.4l-.06.31h-.1L30.41,1h.17a.24.24,0,0,1,.18.05A.18.18,0,0,1,30.82,1.22Zm-.4.19h.07a.29.29,0,0,0,.17,0,.19.19,0,0,0,.06-.15.1.1,0,0,0,0-.09.16.16,0,0,0-.11,0h-.08Z"/><path class="cls-1" d="M31.24,1.56H31l-.12.25h-.11L31.17,1h.1l.1.79h-.1Zm0-.09,0-.16a1.58,1.58,0,0,1,0-.19.59.59,0,0,1,0,.08s-.06.12-.14.27Z"/><path class="cls-1" d="M32,1.81h-.1l-.25-.66h0c0,.06,0,.14,0,.23l-.09.43h-.09L31.63,1h.11l.24.65h0s0-.07,0-.12a.58.58,0,0,0,0-.1l.1-.43h.09Z"/><path class="cls-1" d="M32.5,1.41,32.76,1h.11l-.34.49-.06.3h-.1l.07-.3L32.31,1h.1Z"/><path class="cls-1" d="M27.79,3.14h-.1l.15-.71h-.22l0-.08h.54l0,.08h-.22Z"/><path class="cls-1" d="M28.49,2.89h-.27l-.13.25H28l.43-.79h.11l.1.79h-.1Zm0-.09,0-.16a1.58,1.58,0,0,1,0-.19.59.59,0,0,0,0,.08l-.14.27Z"/><path class="cls-1" d="M29.11,2.72h.25l-.08.39-.12,0h-.11a.29.29,0,0,1-.22-.08.31.31,0,0,1-.08-.22.71.71,0,0,1,.05-.26A.43.43,0,0,1,29,2.4a.41.41,0,0,1,.22-.07l.11,0a.27.27,0,0,1,.12,0l0,.09-.09,0-.1,0a.25.25,0,0,0-.17.06.25.25,0,0,0-.11.15.46.46,0,0,0,0,.21.21.21,0,0,0,.05.16.18.18,0,0,0,.15.06l.14,0,.05-.23h-.16Z"/><path class="cls-1" d="M29.47,3.14l.16-.79h.1l-.15.7h.31l0,.09Z"/><path class="cls-1" d="M30.21,3.14h-.28V3.08l.09,0,.14-.64-.09,0,0,0h.27v0l-.09,0-.14.64.09,0Z"/><path class="cls-1" d="M30.93,3.14h-.1l-.25-.66h0c0,.06,0,.14,0,.23l-.09.43h-.1l.17-.79h.11l.24.65h0s0-.07,0-.12a.58.58,0,0,0,0-.1l.1-.43h.09Z"/><path class="cls-1" d="M31.54,3.14h-.4l.17-.79h.4l0,.08h-.3l-.06.25h.29l0,.09h-.28l-.06.28h.3Z"/><path class="cls-1" d="M32.54,3.14h-.1l.08-.37h-.35l-.07.37H32l.17-.79h.09l-.07.33h.35l.07-.33h.1Z"/><path class="cls-1" d="M33.15,3.14h-.4l.17-.79h.4l0,.08H33l0,.25h.28l0,.09h-.28l-.06.28h.3Z"/><path class="cls-1" d="M33.49,2.81l-.07.33h-.1l.17-.79h.17c.16,0,.25.06.25.2a.24.24,0,0,1-.2.24l.13.35h-.11l-.11-.33Zm0-.08h.08a.25.25,0,0,0,.16,0,.14.14,0,0,0,0-.13.12.12,0,0,0,0-.09.17.17,0,0,0-.12,0h-.08Z"/><path class="cls-1" d="M34.36,3.14H34l.16-.79h.41l0,.08H34.2l-.05.25h.28v.09h-.29l-.06.28h.31Z"/></g></g></svg>