<svg id="Layer_1" data-name="Layer 1" xmlns="http://www.w3.org/2000/svg" xmlns:xlink="http://www.w3.org/1999/xlink" viewBox="0 0 43.78 34.28"><defs><style>.cls-1{fill:none;}.cls-2{fill:#e6e7e8;}.cls-3{fill:#fff;}.cls-4{fill:#212121;}.cls-5{fill:#231f20;}.cls-6{fill:#d6d6d6;}.cls-7{fill:#1568a0;}.cls-8{fill:#96c1e2;}.cls-9{fill:#d22940;}.cls-10{fill:#ffc200;}.cls-11{fill:#d1d3d4;}.cls-12{fill:#dd3f2a;}.cls-13{fill:#1c75bc;}.cls-14{fill:#f65338;}.cls-15{fill:#f5c185;}.cls-16{fill:#e2a971;}.cls-17{fill:#c7e7ff;}.cls-18{clip-path:url(#clip-path);}</style><clipPath id="clip-path"><ellipse class="cls-1" cx="64.53" cy="-79.64" rx="14.98" ry="14.98" transform="translate(143.98 -14.88) rotate(-89.83)"/></clipPath></defs><title>oratory</title><rect class="cls-2" x="-38.19" y="-373.24" width="473" height="450"/><rect class="cls-3" x="-13.94" y="-348.45" width="201.96" height="400.65"/><rect class="cls-4" x="-13.94" y="-30.51" width="201.96" height="82.71"/><rect class="cls-3" width="43.78" height="43"/><rect class="cls-2" x="43.68" width="43.78" height="43"/><path class="cls-5" d="M23,23.07a.15.15,0,0,1-.14-.15V21.46a.14.14,0,0,1,.14-.14.15.15,0,0,1,.15.14v1.46A.15.15,0,0,1,23,23.07Z"/><path class="cls-3" d="M23.56,23.5A.55.55,0,1,1,23,23,.55.55,0,0,1,23.56,23.5Z"/><path class="cls-5" d="M23,24.19a.69.69,0,1,1,.7-.69A.69.69,0,0,1,23,24.19Zm0-1.09a.4.4,0,1,0,.41.4A.4.4,0,0,0,23,23.1Z"/><rect class="cls-2" x="11.46" y="4.47" width="23.12" height="16.99"/><path class="cls-6" d="M14.78,5c-2.86,0-3.28,10.7-3.32,15.19V4.47h4.06C15.69,4.8,15.5,5,14.78,5Z"/><rect class="cls-7" x="9.85" y="4.22" width="26.34" height="0.79"/><rect class="cls-8" x="16.87" y="12.54" width="1.52" height="4.5"/><rect class="cls-8" x="19.57" y="10.64" width="1.52" height="6.41"/><rect class="cls-9" x="22.26" y="9.31" width="1.52" height="7.74"/><rect class="cls-10" x="24.95" y="14.29" width="1.52" height="2.76"/><rect class="cls-8" x="27.65" y="13.18" width="1.52" height="3.87"/><path class="cls-5" d="M32,17.21H14a.15.15,0,0,1-.15-.14V8A.15.15,0,0,1,14,7.87a.15.15,0,0,1,.14.15v8.91H32a.14.14,0,0,1,0,.28Z"/><rect class="cls-11" x="14.03" y="18.15" width="17.92" height="0.67"/><rect class="cls-11" x="14.03" y="19.46" width="13.62" height="0.67"/><path class="cls-12" d="M8.87,5.18a.28.28,0,0,1,0,.18A.7.7,0,0,0,8.34,5a1.08,1.08,0,0,0-.68.16A1.14,1.14,0,0,0,7.07,6a.43.43,0,0,1,.28-.26A2.17,2.17,0,0,0,7.05,7a1.94,1.94,0,0,0,.11.63,8,8,0,0,0,.66,1.08A1,1,0,0,1,8,9a.48.48,0,0,1-.08.37.45.45,0,0,1-.41.14.7.7,0,0,1-.38-.2.7.7,0,0,0,.46.38,1,1,0,0,0,.76-.06,1,1,0,0,0,.5-.58,1.13,1.13,0,0,0,.06-.32.92.92,0,0,0,0-.37,1.28,1.28,0,0,0-.19-.34,7.14,7.14,0,0,1-.43-.64A1.61,1.61,0,0,1,8,6.67a.55.55,0,0,1,.08-.31c.09-.14.27-.2.41-.29C8.82,5.91,9.26,5.51,8.87,5.18Z"/><path class="cls-13" d="M9.08,6c0-.13-.1-.28-.19-.3s-.64.29-.54.51.26.12.4.06S9.1,6.14,9.08,6Z"/><path class="cls-7" d="M12.37,20.31c-.06-.31-.11-.62-.14-.94a2.13,2.13,0,0,0-.58-.3,1.28,1.28,0,0,0-1.05,0l-.09.06a.61.61,0,0,0-.44,0,1.32,1.32,0,0,0-.62.82,4.91,4.91,0,0,0-.23,1.14,13.49,13.49,0,0,0-.07,2.29c0,.61.14,1.22.18,1.83a8.24,8.24,0,0,1-.1,1.79,56.92,56.92,0,0,0-.93,8.25c.74.45,1.13,0,1.51,0a29.56,29.56,0,0,0,.45-3.85,55.91,55.91,0,0,1,1.83-7.37,8,8,0,0,0,.29-1.29A7.58,7.58,0,0,0,12.37,20.31Z"/><path class="cls-13" d="M8.05,31.71a68.43,68.43,0,0,1,1.58-7.15c.11-.45.25-.89.35-1.34a13.71,13.71,0,0,0,.22-1.43c0-.13,0-.27,0-.4A2.16,2.16,0,0,0,10.82,20a.2.2,0,0,0-.2-.18h0a.2.2,0,0,0-.36-.12l0,.06,0-.06a1.5,1.5,0,0,0-.86-.63,1.28,1.28,0,0,0-1.05,0l-.09.06h0a.62.62,0,0,0-.4,0c-.33.15-.8,1.58-.84,2a12.54,12.54,0,0,0-.08,2.29c0,.61.14,1.22.18,1.83a8.24,8.24,0,0,1-.1,1.79l0,.12a57.61,57.61,0,0,0-1,7.85c0,.2.51.44.72.48h0l.33,0a2.8,2.8,0,0,0,.71-.19A34.42,34.42,0,0,1,8.05,31.71Z"/><path class="cls-14" d="M11,9.06a2,2,0,0,0,0-2.69A1.84,1.84,0,0,0,9.92,5.8a1.69,1.69,0,0,0-1.09.25h0a1.7,1.7,0,0,0-.88,2.28,2.63,2.63,0,0,0,.54.89,4.41,4.41,0,0,1,.58.83,2.14,2.14,0,0,1,.16.65c.21,0,.43,0,.65,0A5.75,5.75,0,0,1,11,9.06Z"/><path class="cls-15" d="M10.11,11.29a.78.78,0,0,1-1.1,0c-.12,0-.24-.11-.2-.31a.43.43,0,0,0,0-.05.36.36,0,0,1,0-.1c0-.12,0-.24.05-.35s0-.1,0-.15a.28.28,0,0,0,0-.09.24.24,0,0,1,0-.16v0S9,10,9,10c.06-.26.32-.21.37,0a.28.28,0,0,1,.1.15v0a1.13,1.13,0,0,1,0,.18h0a.17.17,0,0,1,.23,0,.11.11,0,0,1,.08,0l0,0,0-.07c.08-.17.3-.11.34.08a.28.28,0,0,1,0,.13,1,1,0,0,0,0,.17v.14h0c0,.08,0,.17,0,.25A.29.29,0,0,1,10.11,11.29Z"/><path class="cls-12" d="M11,6.37a.94.94,0,0,1-.6.76,1.31,1.31,0,0,1-1-.15,1.22,1.22,0,0,1-.58-.92h0A1.69,1.69,0,0,1,9.92,5.8,1.84,1.84,0,0,1,11,6.37Z"/><path class="cls-16" d="M10.18,10.45a1,1,0,0,0,0,.17v.14h0s-.44.83-1.34.06c0-.05.06-.45.06-.5a.28.28,0,0,0,0-.09.24.24,0,0,1,0-.16v0l.5.11.39.09.34.08A.28.28,0,0,1,10.18,10.45Z"/><path class="cls-15" d="M11,7.19A.72.72,0,0,0,10.78,7c-.19-.08-.5,0-.7,0s-.83-.19-1.1.09-.2.65-.24,1a1.43,1.43,0,0,1,0,.22h0a.33.33,0,0,0-.27-.1.19.19,0,0,0-.19.14.78.78,0,0,0,.31.7h0a1.45,1.45,0,0,0,0,.36,1.89,1.89,0,0,0,.63,1,.86.86,0,0,0,.94.2,1.1,1.1,0,0,0,.69-.73,3.21,3.21,0,0,0,.3-1.13C11.12,8.28,11.4,7.57,11,7.19Z"/><path class="cls-15" d="M7.76,14.65c0-.35.06-2.69-.25-3-.11-.1-.34.21-.41.3a2.84,2.84,0,0,0-.35,1,13.82,13.82,0,0,0-.3,2.81c0,1.13-.2,2.29-.31,3.43-.07.66-.09,1.33-.1,2,0,.36,0,.71,0,1.07,0,.18,0,.4.14.49s.31-.2.35-.41c.09-.44.18-.87.26-1.3a27,27,0,0,0,.46-3,6,6,0,0,1,.18-1A11,11,0,0,0,7.76,15c0-.1,0-.2,0-.3Z"/><path class="cls-15" d="M13.74,17.13l.24.19c.33.27.67.53,1,.78.19.14.83.78,1,.39,0-.13,0-.12,0-.25a5.82,5.82,0,0,0-1.06-1.45,12.93,12.93,0,0,0-1.19-1.15c-.38-.32-.36-.78-.48-1.24a11.63,11.63,0,0,0-.63-1.83c-.16-.37-.52-1.35-1-1.44-.23-.05-.25.52-.1.59a4.1,4.1,0,0,0,0,1.16.24.24,0,0,0,0,.15,7.54,7.54,0,0,0,.69,1.81c.2.39.37.8.57,1.19A3.87,3.87,0,0,0,13.74,17.13Z"/><path class="cls-17" d="M12.67,12.4l.75,2.68a1.36,1.36,0,0,0,.14.33,1,1,0,0,0,.27.24,10.9,10.9,0,0,1,1.7,1.94c.05.31-.41.4-.63.62a7.31,7.31,0,0,1-1.43-1.05,5.83,5.83,0,0,1-.85-.87,4.53,4.53,0,0,1-.48-1,12.67,12.67,0,0,1-.59-2.17c-.08-.43-.52-1.81,0-2C12.27,11.22,12.57,12,12.67,12.4Z"/><path class="cls-7" d="M7.74,19.2c-.33.15-.8,1.58-.84,2a12.54,12.54,0,0,0-.08,2.29c0,.61.14,1.22.18,1.83a8.24,8.24,0,0,1-.1,1.79l0,.12a57.61,57.61,0,0,0-1,7.85c0,.2.51.44.72.48h0a.77.77,0,0,0-.07-.26l0,.08,0-.11a.74.74,0,0,0,0-.14l0-.15v-.06h0v0c0-.08,0,0,0,0a2.19,2.19,0,0,0,0-.36c0-.13,0-.26,0-.39,0-.53,0-1.06.06-1.59a15.87,15.87,0,0,1,.11-1.82v-.12a1.7,1.7,0,0,0,0-.22c0-.17,0-.34.08-.51l.18-1a16.72,16.72,0,0,0,.47-4c0-.64-.13-1.26-.18-1.9a6.15,6.15,0,0,1,0-1s0-.09,0-.13v-.06a1.57,1.57,0,0,1,0-.23,10.06,10.06,0,0,1,.26-1.35c0-.1.06-.21.1-.31a.49.49,0,0,1,0-.11l0-.07a2,2,0,0,1,.12-.19.67.67,0,0,0,.31-.45A.62.62,0,0,0,7.74,19.2Z"/><path class="cls-15" d="M12.14,18.61c-.1-.3-.24-.59-.34-.89a2.87,2.87,0,0,1-.14-1A16.11,16.11,0,0,1,12,14.73v0h0s0-.09,0-.13a1.48,1.48,0,0,0,0-.21,1.94,1.94,0,0,0,0-.24V14c-.05-.31-.14-.62-.22-.92a5,5,0,0,1-.21-2,9.65,9.65,0,0,0-1-.15A.71.71,0,0,0,10,11a1.14,1.14,0,0,1-.33.17c-.21,0-.34-.1-.52-.18a.42.42,0,0,0-.22,0c-.16,0-.34.16-.48.23-.33.16-.66.29-1,.44a.4.4,0,0,0-.29.37,4.16,4.16,0,0,0,.14.77,9.38,9.38,0,0,0,.18,1.06c.16.68.43,1.33.58,2a2.58,2.58,0,0,1-.1,1.58l-.39,1.06a2.38,2.38,0,0,0-.21.56c0,.41.81.53,1.09.61a10.08,10.08,0,0,0,1.95.4A3.8,3.8,0,0,0,11.58,20a1.89,1.89,0,0,0,.69-.3A8.86,8.86,0,0,0,12.14,18.61Z"/><path class="cls-17" d="M12,15.51a1.21,1.21,0,0,1,.13-.35h0a2.09,2.09,0,0,0,.27-.43c.22-.67-.3-1.39-.55-2a4.21,4.21,0,0,1-.18-1.54l-.23-.07a3.06,3.06,0,0,0-1.26-.17c-.12.35-.39,1.1-.43,1.18a2.47,2.47,0,0,1-.24-.43A6.41,6.41,0,0,0,8.63,11c-.11,0-1,.53-1.14.59a3.14,3.14,0,0,1,.41,1.23,6,6,0,0,1,.11.94c0,.11,0,.21,0,.31H8a3.13,3.13,0,0,1-.22.85c.09.3.19.6.25.9a2.58,2.58,0,0,1-.1,1.58l-.39,1.06a2.38,2.38,0,0,0-.21.56c0,.23.24.37.52.46s.45.11.57.15a10.08,10.08,0,0,0,1.95.4A3.8,3.8,0,0,0,11.58,20a1.89,1.89,0,0,0,.69-.3c0-.2,0-.41,0-.61s-.1-.65-.15-1a.68.68,0,0,0,0-.14V17.9c0-.08,0-.16,0-.24s-.07-.33-.09-.5A3.67,3.67,0,0,1,12,15.8Z"/><path class="cls-8" d="M12.18,15.14h0a1.21,1.21,0,0,0-.13.35,1.45,1.45,0,0,1-.66-.15A1.07,1.07,0,0,0,12.18,15.14Z"/><path class="cls-8" d="M8.49,15.58a5,5,0,0,1,0,2.16c-.12.31-.47,1.3-.64,1.77-.28-.09-.53-.23-.52-.46a2.38,2.38,0,0,1,.21-.56l.39-1.06A2.58,2.58,0,0,0,8,15.85c-.06-.3-.16-.6-.25-.9A3.13,3.13,0,0,0,8,14.1c0,.09,0,1.16.49,1.22a2.33,2.33,0,0,0,.78,0A1,1,0,0,1,8.49,15.58Z"/><path class="cls-15" d="M6.66,23.66c0-.08,0-.17-.13-.12a.67.67,0,0,1-.12.06h0a.84.84,0,0,0,.14-.06.11.11,0,0,0,0-.14h0a1.05,1.05,0,0,0,.17-.31,1.15,1.15,0,0,0-.06-.73c0-.16-.08-.36-.24-.4a.45.45,0,0,0-.16,0v0a.09.09,0,1,0-.17,0,.53.53,0,0,1,0,.17l0,.05a.43.43,0,0,1,0,.05,1.12,1.12,0,0,0-.05.13,4.72,4.72,0,0,0-.18.53.87.87,0,0,0,0,.67,1.12,1.12,0,0,0,.34.5c.2.11.37-.1.54-.18S6.74,23.67,6.66,23.66Zm-.38-.53c.07,0,0,.18,0,.25v.05a.31.31,0,0,0-.11.09s0-.05,0-.08S6.16,23.09,6.28,23.13Z"/><path class="cls-15" d="M16.89,18.5a3.18,3.18,0,0,1,1,.63c.07.06.11.13.06.2a1.57,1.57,0,0,1-.67-.36,2.19,2.19,0,0,1,.61.52c0,.07-.17,0-.24,0s-.39-.23-.56-.37a1.8,1.8,0,0,1,.55.55,0,0,0,0,1,0,.05,1.94,1.94,0,0,1-.71-.42c.16.15.39.22.5.4a.75.75,0,0,1-.51-.14c-.22-.13-.47-.21-.7-.32a1.19,1.19,0,0,1-.57-.51.42.42,0,0,1,.12-.51c.17-.13.28-.09.5,0S16.68,18.42,16.89,18.5Z"/><path class="cls-17" d="M6.82,12.27a5,5,0,0,0-.31,1.63c-.15,1.92-.29,3.83-.44,5.74a6.52,6.52,0,0,0,0,1.71,2.44,2.44,0,0,0,.71.1c.54-2.4.7-4.13,1.1-6.45a13.49,13.49,0,0,0,.25-1.69,3.18,3.18,0,0,0-.37-1.44C7.52,11.26,7,11.82,6.82,12.27Z"/><path class="cls-15" d="M17.05,18.22a.14.14,0,0,1,.16,0,.1.1,0,0,1,0,.09s0,0,0,.06a.78.78,0,0,1-.4.15.7.7,0,0,1-.48-.15,4.19,4.19,0,0,0-.49-.2c.1-.14.47-.08.64,0A.93.93,0,0,0,17.05,18.22Z"/><polygon class="cls-8" points="9.27 12.18 9.56 11.69 8.84 10.76 8.55 11.05 9.27 12.18"/><polygon class="cls-8" points="9.96 11.7 10.38 11.97 10.34 10.84 10.18 10.72 9.96 11.7"/><path class="cls-8" d="M9.8,12.12a10.26,10.26,0,0,1,.71,2.2c.14,1.38,0,5.75,0,5.75a.53.53,0,0,0,.26,0c.1-.05-.1-5.64-.11-5.91A10,10,0,0,0,9.86,12Z"/><polygon class="cls-8" points="14.8 18.21 15.53 18.52 15.97 18.02 15.53 17.51 14.8 18.21"/><polygon class="cls-8" points="5.93 21.09 6.07 21.93 6.61 22.03 6.9 21.16 5.93 21.09"/><polygon class="cls-8" points="29.75 24.92 28.62 23.82 29.99 23.52 29.75 24.92"/><circle class="cls-8" cx="28.95" cy="22.31" r="1.95"/><path class="cls-3" d="M28.65,22.62v-.13a.49.49,0,0,1,.06-.25.66.66,0,0,1,.21-.19,1,1,0,0,0,.18-.14.24.24,0,0,0,0-.14.1.1,0,0,0-.06-.1.2.2,0,0,0-.14,0,1.1,1.1,0,0,0-.53.16l-.21-.41a1.58,1.58,0,0,1,.78-.21.81.81,0,0,1,.52.15.47.47,0,0,1,.2.4.54.54,0,0,1-.09.31.94.94,0,0,1-.27.25,1.21,1.21,0,0,0-.2.15.16.16,0,0,0,0,.12v.07Zm-.06.53a.29.29,0,0,1,.08-.22.32.32,0,0,1,.23-.07.28.28,0,0,1,.23.08.32.32,0,0,1,0,.42.37.37,0,0,1-.46,0A.25.25,0,0,1,28.59,23.15Z"/><path class="cls-5" d="M25.65,27.28a2.75,2.75,0,0,0,0-.64c-.09-.61-.48-1.34-1.19-1.34-.17,0-.34,0-.52,0s-.44-.2-.7-.25a1.63,1.63,0,0,0-.76,0,1.77,1.77,0,0,0-1.22.8.64.64,0,0,0-.34.27.25.25,0,0,0-.13.12,2.1,2.1,0,0,0-.15,1.63,4.83,4.83,0,0,0,.46,1.25,1.21,1.21,0,0,0,.46.91,1.78,1.78,0,0,0,1.05.08,6.2,6.2,0,0,1,2.06-.07.61.61,0,0,0,.65-.27,1.09,1.09,0,0,0,.13-.34,2.31,2.31,0,0,0,.2-.63A3.78,3.78,0,0,0,25.65,27.28Z"/><path class="cls-5" d="M21.77,30.41a3.85,3.85,0,0,1-.24-.91,1.24,1.24,0,0,1,0-.27A4.52,4.52,0,0,0,21.39,28c0-.24,0-.47,0-.7a1,1,0,0,1,.43-.89,1.59,1.59,0,0,1,1-.12c.54.06,1.13-.16,1.65.08a1.3,1.3,0,0,1,.68,1.35,7.61,7.61,0,0,1-.09.82,8.81,8.81,0,0,0,0,.89,6.69,6.69,0,0,1-.67,1.84,1.65,1.65,0,0,1-1.44.46,1.17,1.17,0,0,1-1-.77A4.88,4.88,0,0,1,21.77,30.41Z"/><path class="cls-5" d="M24.84,29.33a.11.11,0,0,1,0-.06v-.06a.11.11,0,0,1,0-.1l0-.05a1,1,0,0,1,.12-.42c-.07,0-.14-.07-.09-.15s.23-.37.42-.27.15.37.13.53-.12.82-.53.77C24.76,29.51,24.77,29.38,24.84,29.33Z"/><path class="cls-5" d="M21.32,28.32a.2.2,0,0,1,.11-.06c.13,0,.2.15.24.28a.13.13,0,0,1-.06.15c0,.18.07.37.09.46a.13.13,0,0,1-.06.15v0l.07.11c.07.12-.06.26-.14.16a1.53,1.53,0,0,1-.34-.7s0,0,0,0S21.16,28.39,21.32,28.32Z"/><path class="cls-5" d="M25.67,26.08a1.41,1.41,0,0,0-.39-.8,1.6,1.6,0,0,0-.89-.44,4.34,4.34,0,0,0-1.08.09l-.18-.07a2.27,2.27,0,0,0-1.48.06,1.23,1.23,0,0,0-.45.4,1.08,1.08,0,0,0-.45.38c-.39.54-.42,1.48.34,1.67,0,.45.1.93.5,1.08s0-.26,0-.3a.68.68,0,0,1-.1-.57c.13-.41.66-.47,1-.63l.14-.07a1.66,1.66,0,0,0,.31-.12,2.41,2.41,0,0,0,.67-.56c.4.32.88.51,1.25.86a1.53,1.53,0,0,1,.35.8c0,.12.18.08.2,0s0,0,0-.05a2.46,2.46,0,0,0,0-.47h.08a.12.12,0,0,0,.17-.06A1.9,1.9,0,0,0,25.67,26.08Zm-2.9-1c-.29,0-.58.06-.86.09l-.27,0a1,1,0,0,1,.21-.09,2.35,2.35,0,0,1,1.15,0Z"/><path class="cls-14" d="M35.18,28l0-.23A4,4,0,0,0,34.67,26a2.56,2.56,0,0,0-4.28.23,1.73,1.73,0,0,0-.1,1,2.66,2.66,0,0,1,0,2.09,1.43,1.43,0,0,1-.6.64l0,0,0,0h0l.11.12a4.17,4.17,0,0,0,4.15.84,5.77,5.77,0,0,0,1.38-.58c.31-.17.78-.44.87-.81C35.49,29.53,35.27,28.7,35.18,28Z"/><path class="cls-14" d="M30.89,26.73a.73.73,0,0,1,.27-.2c.22-.1.57,0,.8-.06.4-.09,1-.27,1.29,0s.26.75.33,1.15a1.84,1.84,0,0,0,.05.25h0a.46.46,0,0,1,.31-.13.22.22,0,0,1,.23.15.91.91,0,0,1-.32.83h0a1.4,1.4,0,0,1,0,.41,2.16,2.16,0,0,1-.68,1.22,1,1,0,0,1-1.09.29,1.29,1.29,0,0,1-.83-.81,3.73,3.73,0,0,1-.41-1.3C30.83,28,30.46,27.19,30.89,26.73Z"/><path class="cls-13" d="M27.84,40H19.17V33.74a4.34,4.34,0,0,1,4.33-4.33h0a4.35,4.35,0,0,1,4.34,4.33Z"/><path class="cls-13" d="M37.27,40H28.6V33.74a4.35,4.35,0,0,1,4.34-4.33h0a4.34,4.34,0,0,1,4.33,4.33Z"/><path class="cls-7" d="M24.42,29.51a10.52,10.52,0,0,0-2.64,1.74C19.74,33.08,20,40,20,40h-.83V33.74a4.34,4.34,0,0,1,4.33-4.33A4,4,0,0,1,24.42,29.51Z"/><path class="cls-7" d="M33.85,29.51a10.52,10.52,0,0,0-2.64,1.74c-2,1.83-1.78,8.74-1.78,8.74H28.6V33.74a4.35,4.35,0,0,1,4.34-4.33A3.91,3.91,0,0,1,33.85,29.51Z"/></svg>