<svg xmlns="http://www.w3.org/2000/svg" viewBox="0 0 12.34 10.94"><defs><style>.cls-1{fill:#d22940;}.cls-2{fill:#f1f2f2;}.cls-3{fill:#231f20;}</style></defs><title>2Recurso 2</title><g id="Capa_2" data-name="Capa 2"><g id="Layer_1" data-name="Layer 1"><path class="cls-1" d="M.38,3.62H4.29a0,0,0,0,1,0,0v6.5a0,0,0,0,1,0,0H.38A.38.38,0,0,1,0,9.73V4A.38.38,0,0,1,.38,3.62Z"/><rect class="cls-2" x="1.64" y="2.96" width="2.65" height="7.78" rx="0.82"/><path class="cls-3" d="M3.47,10.94h-1a1,1,0,0,1-1-1V3.78a1,1,0,0,1,1-1h1a1,1,0,0,1,1,1V9.92A1,1,0,0,1,3.47,10.94Zm-1-7.78a.62.62,0,0,0-.62.62V9.92a.62.62,0,0,0,.62.62h1a.61.61,0,0,0,.61-.62V3.78a.61.61,0,0,0-.61-.62Z"/><path class="cls-2" d="M7.52,4.17s1.9-5-.42-3.76c0,2.16-2.81,3.76-2.81,3.76V9.69h6.33a.76.76,0,0,0,.74-.62l.76-4A.7.7,0,0,0,12,4.45a.74.74,0,0,0-.58-.28Z"/><path class="cls-3" d="M10.62,9.89H4.29a.21.21,0,0,1-.21-.2V4.17A.18.18,0,0,1,4.19,4S6.9,2.42,6.9.41A.22.22,0,0,1,7,.23C7.51,0,7.9-.08,8.16.15c.69.6,0,2.91-.35,3.82h3.57a1,1,0,0,1,.74.35.94.94,0,0,1,.2.79l-.76,4A1,1,0,0,1,10.62,9.89Zm-6.13-.4h6.13A.56.56,0,0,0,11.16,9l.76-4a.52.52,0,0,0-.11-.45.58.58,0,0,0-.43-.21H7.52a.21.21,0,0,1-.17-.08.19.19,0,0,1,0-.19c.49-1.29,1-3.28.57-3.64-.14-.12-.4,0-.6.08C7.21,2.51,5,4,4.49,4.29Z"/><path class="cls-2" d="M3.55,9.1A.58.58,0,0,1,3,9.69.59.59,0,1,1,3,8.51.58.58,0,0,1,3.55,9.1Z"/><path class="cls-3" d="M3,9.89a.79.79,0,1,1,.79-.79A.79.79,0,0,1,3,9.89ZM3,8.71a.39.39,0,0,0,0,.78.39.39,0,1,0,0-.78Z"/></g></g></svg>