<svg id="Layer_1" data-name="Layer 1" xmlns="http://www.w3.org/2000/svg" xmlns:xlink="http://www.w3.org/1999/xlink" viewBox="0 0 43.78 34.28"><defs><style>.cls-1{fill:none;}.cls-2{fill:#e6e7e8;}.cls-3{fill:#fff;}.cls-4{fill:#212121;}.cls-5{fill:#231f20;}.cls-6{fill:#2d2d2d;}.cls-7{fill:#d22940;}.cls-8{fill:#96c1e2;}.cls-9{fill:#66240e;}.cls-10{fill:#843817;}.cls-11{fill:#f5c185;}.cls-12{fill:#c7e7ff;}.cls-13{fill:#e2a971;}.cls-14{clip-path:url(#clip-path);}</style><clipPath id="clip-path"><ellipse class="cls-1" cx="20.84" cy="-79.64" rx="14.98" ry="14.98" transform="translate(100.42 -58.56) rotate(-89.83)"/></clipPath></defs><title>social</title><rect class="cls-2" x="-81.87" y="-373.24" width="473" height="450"/><rect class="cls-3" x="-57.62" y="-348.45" width="201.96" height="400.65"/><rect class="cls-4" x="-57.62" y="-30.51" width="201.96" height="82.71"/><rect class="cls-3" x="-43.68" width="43.78" height="43"/><rect class="cls-2" width="43.78" height="43"/><rect class="cls-3" x="43.68" width="43.78" height="43"/><polygon class="cls-5" points="15.62 22.81 12.31 22.81 11.62 19.56 14.87 19.56 15.62 22.81"/><polygon class="cls-6" points="17.02 22.81 12.9 22.81 12.71 22.36 16.78 22.37 17.02 22.81"/><polygon class="cls-5" points="12.71 22.36 11.81 22.36 11.81 22.78 12.9 22.78 12.71 22.36"/><path class="cls-7" d="M28.32,8.35c0,.78.41,1.41.92,1.41s.93-.63.93-1.41-.42-1.42-.93-1.42S28.32,7.57,28.32,8.35Z"/><polygon class="cls-6" points="19.9 20.63 7.23 21.72 7.23 10.63 19.9 11.72 19.9 20.63"/><polygon class="cls-8" points="8.04 20.84 8.04 11.5 19.32 12.34 19.32 19.95 8.04 20.84"/><polygon class="cls-2" points="10.9 12.35 10.78 19.99 18.74 19.54 18.74 12.77 10.9 12.35"/><polygon class="cls-2" points="8.48 12.13 8.48 20.16 10.26 20.07 10.36 12.3 8.48 12.13"/><polygon class="cls-5" points="7.23 10.63 6.67 11.64 6.67 21.11 7.23 21.72 7.23 10.63"/><ellipse class="cls-7" cx="14.71" cy="16.22" rx="1.1" ry="1.3"/><polygon class="cls-3" points="14.51 15.58 15.29 16.22 14.51 16.85 14.51 15.58"/><path class="cls-3" d="M27.43,28.21,25,40.19Z"/><path class="cls-5" d="M25,40.38h0a.2.2,0,0,1-.15-.23l2.42-12a.18.18,0,0,1,.22-.15.2.2,0,0,1,.16.23l-2.42,12A.19.19,0,0,1,25,40.38Z"/><path class="cls-3" d="M35.69,28.21l2.41,12Z"/><path class="cls-5" d="M38.1,40.38a.19.19,0,0,1-.19-.15l-2.41-12a.19.19,0,0,1,.15-.23.2.2,0,0,1,.23.15l2.41,12a.2.2,0,0,1-.15.23Z"/><polygon class="cls-9" points="27.98 27.57 35.51 27.57 37.44 29.09 27.98 29.09 27.98 27.57"/><path class="cls-10" d="M34.63,30.65H28V29.09h9.46A3.3,3.3,0,0,1,34.63,30.65Z"/><path class="cls-10" d="M37.44,29.09l1.07-11.64a1.34,1.34,0,0,0-1-1.53l-2.87-1.09A1.34,1.34,0,0,0,33,16.14l.16,11Z"/><path class="cls-11" d="M19.8,22.92a.33.33,0,0,0,.29,0,1.43,1.43,0,0,0,.88.21.33.33,0,0,0,.12.05,2.54,2.54,0,0,0,1,0A.86.86,0,0,0,22.4,23c.1-.1.08-.21.15-.31a.12.12,0,0,0,0-.1c.22-.11.31-.35,0-.52a3.63,3.63,0,0,0-1.44-.4,2,2,0,0,0-.82.07,1.08,1.08,0,0,0-.64.26h0l-.05,0c-.36.16-.34.61-.32.9S19.81,23.14,19.8,22.92Zm.58-.41.23-.1h0l.18,0h0a.11.11,0,0,0,0,.1,0,0,0,0,0,0,0h0l-.22,0a1.31,1.31,0,0,1-.28,0A.3.3,0,0,0,20.38,22.51Z"/><polygon class="cls-12" points="22.66 21.64 22.09 21.73 22.32 23.09 23.01 22.93 22.66 21.64"/><path class="cls-5" d="M26.79,29.49c.21-.95,5.7-1.43,5.84-2.18a.53.53,0,0,0-.24-.59,14.21,14.21,0,0,0,.13-2.26c0-.56-.9-.59-.88,0V25h0a3.69,3.69,0,0,1-.07-.94.41.41,0,0,0-.07-.28.4.4,0,0,0-.53-.41c-.22.06-.44.14-.65.22a.46.46,0,0,0-.84,0l0,0A5.13,5.13,0,0,0,29.27,25c-1.64,1.31-4.77,1.22-4.88,2.16C24,30.3,25.9,29.35,26.79,29.49Z"/><path class="cls-5" d="M26.46,29.24a9.37,9.37,0,0,1-2.07-2.1c-1,2.62-3.61,10-3.52,10.25a3,3,0,0,0,.6.9c.49.56,1.08.48,1.75.79.23.1,2.77-7.34,3.57-9.59Z"/><path class="cls-11" d="M32.94,12.88a.77.77,0,0,1-.38.7,2.33,2.33,0,0,1-1,.3c-.54,0-1.42-.13-1.4-.76,0-.07,0-.35,0-.68s0-.6,0-.88a2,2,0,0,1,.09-.69A.58.58,0,0,1,31,11l.12,0a.43.43,0,0,1,.2.15h0a.39.39,0,0,1,.18,0A.52.52,0,0,1,31.9,11a.55.55,0,0,1,.47,0s0-.13.07-.17c.05.26.1.52.16.78C32.7,12.05,32.81,12.47,32.94,12.88Z"/><path class="cls-13" d="M32.6,11.63a1.69,1.69,0,0,1-2.41.81c0-.28,0-.6,0-.88.09-.06.43-.29.84-.53a.43.43,0,0,1,.2.15h0a.39.39,0,0,1,.18,0A.52.52,0,0,1,31.9,11a.55.55,0,0,1,.47,0s0-.13.07-.17C32.49,11.11,32.54,11.37,32.6,11.63Z"/><path class="cls-6" d="M29.85,31.38l-.42-.16a16.9,16.9,0,0,1-2.58-1.31c-1.65,3.5-3.57,7.48-4.56,9.24-.12.2,1.69,1.37,2.42,1.42.36,0,.55-.42.69-.73C25.63,39.33,27.79,35.2,29.85,31.38Z"/><path class="cls-6" d="M30.84,26.15c0,.47-1,1.14-.65,1.36,0,.26-3.35,1.7-3.34,2.4.27,1.47,2.69,1.39,3,1.47,5.76-1.6,5.4-3.24,5.47-3.65a7.8,7.8,0,0,0-.27-2.53,2.2,2.2,0,0,0-.39-1.07v-.06c0-.05,0-.11,0-.16a.39.39,0,0,0-.08-.29.43.43,0,0,0-.56-.44,6.73,6.73,0,0,0-2.31,1.17.46.46,0,0,0-.92.06,7,7,0,0,0,.08,1.3C30.88,26.06,30.82,25.81,30.84,26.15Z"/><path class="cls-5" d="M35.33,26.78s-4.54,1.1-6.11-.23c-.76-.65,3-2.07,3-2.07l2.82.72Z"/><path class="cls-12" d="M29.91,12.77a.31.31,0,0,1,.13.06.22.22,0,0,1,.13.19,1.42,1.42,0,0,0,1.15.5,1.66,1.66,0,0,0,1.62-.64h0a.23.23,0,0,1,.2,0c.55.18,1.17.25,1.73.47l0,0a3.09,3.09,0,0,1,.43.14c.31.11-.82,4.65-.8,4.88,0,.69.1,1.37.16,2.05s.1,1.54.18,2.31a4,4,0,0,1,0,.5,4,4,0,0,1,0,1.43c-.09.28-.23.07-.43.27a13.29,13.29,0,0,1-3.08.49c-.88.06-1.8.19-2.41-.46-.36-.38-.62-.43-.73-.93s.29-4.52.29-4.82a12,12,0,0,0,0-1.8C28.53,16,27.68,12.71,29.91,12.77Z"/><path class="cls-6" d="M33.68,13s-2.39,5.09-2.4,5.52-.49,5.7-.61,7c0,.16.11,1.18.27,1.18.9,0,3.8,0,4.37-.47-.16-2.45-.31-8.06-.31-8.06s1.56-4.51,1-4.69A9.41,9.41,0,0,0,33.68,13Z"/><path class="cls-5" d="M31.46,17.86l1.71-5,1.15.14a.14.14,0,0,1,.09.2l-3.22,6.41.09-1A2,2,0,0,1,31.46,17.86Z"/><path class="cls-6" d="M29.91,12.77a3.34,3.34,0,0,0-2.18,1c-.63.91-1.58,6.66-1.58,6.66l-3.68.85.24,2.13s4.72-.69,5.09-1.12a11.41,11.41,0,0,0,.68-2.87l-.36,6.38s1.73,1.15,1.95.71.43-8.06.43-8.06Z"/><path class="cls-5" d="M30.48,19.37l0-1.09-.6-5.51A3.67,3.67,0,0,0,28.7,13C29.18,14.85,30.48,19.37,30.48,19.37Z"/><polygon class="cls-8" points="30.98 13.51 32.79 12.39 33.17 12.88 31.52 14.33 30.98 13.51"/><polygon class="cls-8" points="30.98 13.51 30.53 14.21 29.91 12.77 30.11 12.43 30.98 13.51"/><path class="cls-10" d="M33.72,5.42c-.43-.39-1-.65-1.53-.21-.23.21.1.56.33.35a.53.53,0,0,1,.67,0,.23.23,0,0,0-.16.28,9.43,9.43,0,0,1,.32,1,.19.19,0,0,0,.25.17c-.05.24-.11.47-.17.69a5.39,5.39,0,0,1-.51,1.46l-.28.45a.73.73,0,0,0-.16.37c0,.29.48.32.49,0h0v0h0L33,10l.18-.29a5.05,5.05,0,0,0,.28-.51A10.54,10.54,0,0,0,34.1,7,1.6,1.6,0,0,0,33.72,5.42Z"/><path class="cls-10" d="M33,10.09Z"/><polygon class="cls-10" points="32.97 10.09 32.97 10.08 32.97 10.08 32.97 10.09"/><path class="cls-11" d="M33,9.68c.07-.23.23-.18.36-.3a1.07,1.07,0,0,0,.3-1.05.61.61,0,0,0-.65-.41h0a1.6,1.6,0,0,1,.09-.41c0-.16,0-.31,0-.47l-.1-.2a1.48,1.48,0,0,0-1.14-.54c-1-.08-2,.41-2.94-.13a.88.88,0,0,0-.05.15,10.4,10.4,0,0,0,.17,2.55c0,.22,0,.43.05.65s0,.41,0,.61h0a3,3,0,0,0,.37,1.11,1.83,1.83,0,0,0,.17.45,1.17,1.17,0,0,0,1.07.42,1.4,1.4,0,0,0,1.07-.27,6.25,6.25,0,0,0,.76-.94A4.71,4.71,0,0,0,33,9.68Z"/><path class="cls-10" d="M33.52,5.75a.35.35,0,0,0,0-.13c-.26-.52-.61-1.22-1.23-1.38a1.09,1.09,0,0,0-.85.14.67.67,0,0,0-.24-.09,1,1,0,0,0-.8.24,1.5,1.5,0,0,0-.88-.16c-.51.1-1.17.26-1.21.89a4.1,4.1,0,0,0,.19.91c.05.25.23,1.15,1.26.68a2.26,2.26,0,0,1,2.78.7s.07.06.08.09c.32-.22.4-.44.8-.56a1.09,1.09,0,0,0,.43-.18C34.08,6.67,33.81,6.16,33.52,5.75Z"/><polygon class="cls-5" points="29.85 27.79 30.83 29.09 33.13 27.13 30.19 27.51 29.85 27.79"/><path class="cls-10" d="M33.32,6.92a.43.43,0,0,0-.26-.25.4.4,0,0,0-.48.26,1.63,1.63,0,0,0,.23,1.44c.13.28,0,.4,0,.65,0,.09.06.54.27.29a1.83,1.83,0,0,0,.32-.53c.14-.44.67-1.93.67-1.93Z"/><polygon class="cls-8" points="30.98 13.51 30.45 25.49 30.67 25.56 31.19 13.65 30.98 13.51"/><path class="cls-11" d="M30.27,28.05a.17.17,0,0,0,0-.1c.14-.17.09-.4-.26-.45a4.15,4.15,0,0,0-1.56.18,1.75,1.75,0,0,0-.44.17,2.23,2.23,0,0,0-1,.51c-.3.28-.3.59-.45.91,0,.05-.05.09-.07.13s.11.21.24.2.05.08.06.08.05,0,.13,0a1.07,1.07,0,0,0,.44-.07c-.24.08.1.41.3.19a4.69,4.69,0,0,1,1.44-.75,2.5,2.5,0,0,0,.6-.27h0a1.83,1.83,0,0,0,.39-.21.68.68,0,0,0,.21-.24C30.34,28.24,30.25,28.15,30.27,28.05Z"/><polygon class="cls-12" points="29.88 27.1 29.41 27.44 30.22 28.55 30.76 28.11 29.88 27.1"/><path class="cls-6" d="M36.11,13.62s1.07,1.75,0,9c-.12.84-5.28,6-5.28,6l-1.41-1.86L33.75,22l.91-4.61Z"/><polygon class="cls-5" points="34.66 17.37 33.39 21.98 30.82 25.2 33.75 22.21 34.66 17.37"/><rect class="cls-10" x="3.73" y="22.78" width="25.33" height="1.91"/><rect class="cls-9" x="5.03" y="24.57" width="22.72" height="1.25"/><polygon class="cls-10" points="5.14 40.28 3.97 40.28 6.65 25.82 8.71 25.82 5.14 40.28"/><polygon class="cls-10" points="27.65 40.28 28.82 40.28 26.15 25.82 24.09 25.82 27.65 40.28"/><path class="cls-5" d="M33.65,7l-.29,0a2.52,2.52,0,0,0-.55-1.74,4,4,0,0,0-2.44-.65L31,4.24A2.61,2.61,0,0,1,33,5,2.81,2.81,0,0,1,33.65,7Z"/><polygon class="cls-5" points="30.96 11.06 30.95 10.92 32.4 10.78 33.34 9.34 33.46 9.42 32.48 10.92 32.45 10.92 30.96 11.06"/><path class="cls-5" d="M31.47,11a.38.38,0,0,1-.39.38.39.39,0,1,1,0-.77A.38.38,0,0,1,31.47,11Z"/><path class="cls-5" d="M34.14,8.35c0,.87-.39,1.57-.89,1.57s-.88-.7-.88-1.57.39-1.58.88-1.58S34.14,7.48,34.14,8.35Z"/><path class="cls-7" d="M34.43,8.35c0,.78-.42,1.41-.93,1.41s-.92-.63-.92-1.41.41-1.42.92-1.42S34.43,7.57,34.43,8.35Z"/><g class="cls-14"><path class="cls-9" d="M14.71-1.58,7.23.12A1.35,1.35,0,0,0,6.18,1.44h0A1.34,1.34,0,0,0,7.53,2.79H18.15A1.35,1.35,0,0,0,19.48,1.2L19.17-.51a1.34,1.34,0,0,0-1.33-1.11H15A1,1,0,0,0,14.71-1.58Z"/><path class="cls-10" d="M25.08-.36,18.13,2.37c-.68.27-.84,1.08-.42,1.9h0a2.3,2.3,0,0,0,2.21,1.32l8-1.45c.47-.08.81-.8.73-1.54L28.42.88C28.34.16,28-.4,27.5-.4H25.33A.69.69,0,0,0,25.08-.36Z"/><path class="cls-5" d="M11.72-27.93c0-1.65,2.17-10.51,2.41-16.72a33.81,33.81,0,0,1,.37-5.14l0-.09A1,1,0,0,1,16.44-50a14.51,14.51,0,0,1,1.48-.55.92.92,0,0,1,1.22.92.87.87,0,0,1,.19.62,32.18,32.18,0,0,0,.21,4.17v0c0-.39,0-.78,0-1.17-.07-1.29,1.93-1.28,2,0a66.2,66.2,0,0,1-.16,7.19c.48.25.66-3.26.58-2.72-1.13,7-2.75,15.45-2.83,16.48-.05.64.66,24.69,0,24.72-1.68.07-2.79.87-4.36.24A7.07,7.07,0,0,1,12.56-1.3C12-1.79,11.72-27.1,11.72-27.93Z"/><path class="cls-6" d="M20-42.59a15.55,15.55,0,0,1-.27-3,1.07,1.07,0,0,1,2.11-.2C23.36-47,25.12-50,27-50.58a1,1,0,0,1,1.3,1,1,1,0,0,1,.19.66c0,.12,0,2.27,0,2.39v.13A5,5,0,0,1,29.46-44c.37,1.89,1,3.84.76,5.75-.71,5.08-.84,34.41-.74,36.63,0,.79.13,1.88-.63,2.22-1.53.67-6.42.19-6.4-.34.32-8.46-1-33.34-1.06-37.07-.85-.49-1.32-.31-1.43-1.37C19.89-39,20-41.8,20-42.59Z"/></g></svg>