<svg xmlns="http://www.w3.org/2000/svg" viewBox="0 0 12.37 9.33"><defs><style>.cls-1{fill:#d22940;}.cls-2{fill:#f1f2f2;}.cls-3{fill:#231f20;}</style></defs><title>2Recurso 5</title><g id="Capa_2" data-name="Capa 2"><g id="Layer_1" data-name="Layer 1"><polygon class="cls-1" points="8.62 3.24 12.37 3.24 12.37 7.96 10.81 7.96 10.81 8.44 10.81 8.7 10.82 9.33 10.43 9.09 10.26 8.99 9.9 8.77 9.83 8.72 9.4 8.45 9.37 8.43 8.96 8.18 8.83 8.1 8.59 7.96 3.95 7.96 3.95 4.94 8.62 3.24"/><polygon class="cls-2" points="0.2 0.2 0.2 4.92 1.76 4.92 1.75 6.29 3.98 4.92 8.62 4.92 8.62 0.2 0.2 0.2"/><path class="cls-3" d="M1.75,6.49a.18.18,0,0,1-.1,0,.22.22,0,0,1-.1-.18V5.12H.2a.2.2,0,0,1-.2-.2V.2A.2.2,0,0,1,.2,0H8.62a.2.2,0,0,1,.21.2V4.92a.2.2,0,0,1-.21.2H4L1.86,6.46A.2.2,0,0,1,1.75,6.49ZM.41,4.71H1.76a.22.22,0,0,1,.14.06A.2.2,0,0,1,2,4.92v1L3.87,4.74a.2.2,0,0,1,.11,0H8.42V.41h-8Z"/></g></g></svg>