<svg id="Layer_1" data-name="Layer 1" xmlns="http://www.w3.org/2000/svg" xmlns:xlink="http://www.w3.org/1999/xlink" viewBox="0 0 43.78 34.44"><defs><style>.cls-1{fill:none;}.cls-2{fill:#e6e7e8;}.cls-3{fill:#fff;}.cls-4{fill:#212121;}.cls-5{fill:#231f20;}.cls-6{fill:#2d2d2d;}.cls-7{fill:#00386f;}.cls-8{fill:#f5c185;}.cls-9{fill:#f65338;}.cls-10{fill:#e2a971;}.cls-11{fill:#004a8e;}.cls-12{fill:#9ee2ff;}.cls-13{fill:#843817;}.cls-14{fill:#bef4ff;}.cls-15{fill:#66240e;}.cls-16{clip-path:url(#clip-path);}</style><clipPath id="clip-path"><ellipse class="cls-1" cx="21.89" cy="-79.64" rx="14.98" ry="14.98" transform="translate(101.47 -57.52) rotate(-89.83)"/></clipPath></defs><title>team</title><rect class="cls-2" x="-125.56" y="-373.24" width="473" height="450"/><rect class="cls-3" x="-101.31" y="-348.45" width="201.96" height="400.65"/><rect class="cls-4" x="-101.31" y="-30.51" width="201.96" height="82.71"/><rect class="cls-2" x="-43.68" width="43.78" height="43"/><rect class="cls-3" width="43.78" height="43"/><rect class="cls-2" x="43.68" width="43.78" height="43"/><path class="cls-3" d="M14,29l-1.5,8.79Z"/><path class="cls-5" d="M12.5,38h0a.17.17,0,0,1-.13-.19L13.84,29a.16.16,0,0,1,.19-.13.15.15,0,0,1,.13.18l-1.5,8.79A.17.17,0,0,1,12.5,38Z"/><path class="cls-3" d="M20.43,29l1.51,8.79Z"/><path class="cls-5" d="M21.94,38a.16.16,0,0,1-.16-.14L20.28,29a.15.15,0,0,1,.13-.18.15.15,0,0,1,.18.13l1.51,8.79A.18.18,0,0,1,22,38Z"/><path class="cls-3" d="M13.78,26.7l-2,10Z"/><path class="cls-5" d="M11.77,36.82h0a.17.17,0,0,1-.12-.19l2-10a.14.14,0,0,1,.18-.12.16.16,0,0,1,.13.19l-2,10A.15.15,0,0,1,11.77,36.82Z"/><path class="cls-3" d="M20.65,26.7l2,10Z"/><path class="cls-5" d="M22.66,36.82a.17.17,0,0,1-.16-.13l-2-10a.16.16,0,0,1,.12-.19.15.15,0,0,1,.19.12l2,10a.16.16,0,0,1-.13.19Z"/><path class="cls-3" d="M30.26,28.41l-2,10Z"/><path class="cls-5" d="M28.25,38.53h0a.17.17,0,0,1-.13-.19l2-10a.16.16,0,0,1,.19-.13.17.17,0,0,1,.13.19l-2,10A.16.16,0,0,1,28.25,38.53Z"/><path class="cls-3" d="M37.13,28.41l2,10Z"/><path class="cls-5" d="M39.14,38.53a.16.16,0,0,1-.16-.12l-2-10a.17.17,0,0,1,.13-.19.16.16,0,0,1,.19.13l2,10a.17.17,0,0,1-.13.19Z"/><path class="cls-6" d="M12.3,27.92s-.24,1.25,2.26,1.25c6.63,0,7.38.26,7.59-1.25C19.86,27.38,12.3,27.92,12.3,27.92Z"/><path class="cls-6" d="M21.38,26.42H13.07l-.2-7.81a1.67,1.67,0,0,1,1.67-1.67h5.37a1.67,1.67,0,0,1,1.67,1.67Z"/><path class="cls-5" d="M21.57,28.51H12.88a.58.58,0,0,1-.58-.59s.66-1.74,1-1.74h7.87c.33,0,1,1.74,1,1.74A.58.58,0,0,1,21.57,28.51Z"/><path class="cls-7" d="M13.69,28.51s-.6,1.08,5.23.48C18.28,26.82,13.69,28.51,13.69,28.51Z"/><path class="cls-8" d="M20.68,23.89a6.19,6.19,0,0,0,.74,0,4.83,4.83,0,0,1-.24-.92,1.41,1.41,0,0,0-.52-1,2.66,2.66,0,0,1-.47-1.31h0l-.06.19h0l0,.08a.85.85,0,0,0,0,.17.86.86,0,0,0,0,.13s0,.13,0,.15A4.18,4.18,0,0,0,20,22a2,2,0,0,0,.07.5C20.24,23,20.34,23.61,20.68,23.89Z"/><path class="cls-9" d="M19.67,17.79c0-1.18-.53-2.53-.38-3.62a5.67,5.67,0,0,0-.22-2.94,2.34,2.34,0,0,0-1.79-1.08,2.19,2.19,0,0,0-2,.65A3.81,3.81,0,0,0,14.83,13a10.21,10.21,0,0,0,.26,1.78s0,.09,0,.14c0,.68,0,1.37,0,2.06a11.13,11.13,0,0,0,.06,1.83,2.05,2.05,0,0,0,1.36,1.71,2.1,2.1,0,0,0,1.24-.07c.38-.13.75-.34,1.13-.46a1.18,1.18,0,0,0,.25-.1l-.06-1.08.22,1c.24-.2.32-.52.38-1.16A8,8,0,0,0,19.67,17.79Z"/><path class="cls-8" d="M8.2,24a2.81,2.81,0,0,1,1.16.27l.1-.1c.09-.08.19-.14.16-.26a.44.44,0,0,0-.08-.17h0c.15,0,.07-.21-.07-.18a.32.32,0,0,1-.17,0H9c-.56,0-2.4.28-1.9.5A9.84,9.84,0,0,1,8.2,24Z"/><path class="cls-8" d="M16.6,16.36a.9.9,0,0,0,1.26,0,.28.28,0,0,0,.23-.36s0,0,0-.06a.36.36,0,0,0,0-.11c0-.14,0-.27-.05-.41a.88.88,0,0,1,0-.16v-.11a.3.3,0,0,0-.05-.18v0a.19.19,0,0,1,0-.08c-.08-.3-.37-.24-.43,0a.32.32,0,0,0-.12.17s0,0,0,.05a1.23,1.23,0,0,0,0,.2h0a.19.19,0,0,0-.25,0,.18.18,0,0,0-.1,0l0,0a.19.19,0,0,0,0-.08c-.1-.2-.35-.13-.4.09a.38.38,0,0,0,0,.15,1.23,1.23,0,0,1,0,.2v.15h0c0,.1,0,.19,0,.28A.36.36,0,0,0,16.6,16.36Z"/><path class="cls-10" d="M16.52,15.4a1.23,1.23,0,0,1,0,.2v.15h0s.5.95,1.52.07c0-.06-.07-.52-.07-.57v-.11a.3.3,0,0,0-.05-.18v0l-.58.14-.43.1-.4.09A.38.38,0,0,0,16.52,15.4Z"/><path class="cls-8" d="M15.46,11.73a.88.88,0,0,1,.26-.19c.22-.1.57,0,.79-.07.39-.08.94-.26,1.27,0s.26.74.32,1.14a2,2,0,0,0,0,.24h0a.46.46,0,0,1,.31-.13.23.23,0,0,1,.22.15.93.93,0,0,1-.31.82h0a1.85,1.85,0,0,1,0,.41,2.13,2.13,0,0,1-.67,1.2,1,1,0,0,1-1.07.28,1.24,1.24,0,0,1-.81-.8,3.37,3.37,0,0,1-.4-1.27C15.4,13,15,12.18,15.46,11.73Z"/><path class="cls-8" d="M13.86,20.25c-.1.13-.2.27-.29.41-.3.46-.45.95-1,1.16a13.83,13.83,0,0,0-1.71.78,6.48,6.48,0,0,0-1.69,1.15c-.11.12-.14.1-.14.26,0,.47.92,0,1.18-.06q.7-.21,1.38-.45l.34-.12a4.35,4.35,0,0,0,1.53-.78c.33-.3.63-.63.94-1A6,6,0,0,1,13.86,20.25Z"/><path class="cls-8" d="M15,17.63a4.18,4.18,0,0,0-.1-1.11,2.52,2.52,0,0,1,.47-.13l.22,0,.48-.1a.82.82,0,0,1,.65,0,1.34,1.34,0,0,0,.39.16c.25,0,.38-.15.57-.26a.73.73,0,0,1,.25-.08c.18,0,.4.15.57.22l.66.23h0l.25.08.25.08.1,0a.42.42,0,0,1,.26.35.71.71,0,0,1,0,.25l-.06.05a1.46,1.46,0,0,0-.27.58.22.22,0,0,1,0,.11,5.17,5.17,0,0,0-.11.54.32.32,0,0,1-.17.27.28.28,0,0,1-.13,0H18.9c-.17,0-.34,0-.51-.06l-.13,0-.22,0a.23.23,0,0,1-.07.1,1.39,1.39,0,0,1-1.94,0,.24.24,0,0,1-.06-.11h-.23a.27.27,0,0,1-.34,0,1.06,1.06,0,0,1-.46-.63.86.86,0,0,1,0-.45A.11.11,0,0,1,15,17.63Z"/><path class="cls-11" d="M19.54,23.72a5,5,0,0,1-.41-1.8,2.6,2.6,0,0,1,.15-.64l.12-.3a1.8,1.8,0,0,0,.08.21c.17.42.62,1.85.72,2.29,0,.07.44,0,.71,0l.26-.06c.26-.09.07-1.35,0-1.61s-.19-.6-.25-.9a17.56,17.56,0,0,1-.2-2,3.84,3.84,0,0,0-.51-1.91c-.24-.35-1.88-.11-3.23-.17a17.76,17.76,0,0,1-2-.39,1.61,1.61,0,0,0-.91,1,13.16,13.16,0,0,0-.43,1.39c-.19.65-.19,1.34-.42,2-.1.3-4.07,2.46-3.91,2.75a4.28,4.28,0,0,0,.47.77,26.44,26.44,0,0,0,4.47-2,2.9,2.9,0,0,0,.42-.82c.05-.13.09-.27.13-.4l.13.23a1.18,1.18,0,0,1,.09.43,4.68,4.68,0,0,1-.31,1.33,8.41,8.41,0,0,0-.5,2.25.28.28,0,0,0,0,.14.3.3,0,0,0,0,.08,1.5,1.5,0,0,0,1,.55,6.63,6.63,0,0,0,3.63.27,1.32,1.32,0,0,0,1-.82,3.88,3.88,0,0,0-.27-1.45C19.62,24,19.58,23.84,19.54,23.72Z"/><path class="cls-7" d="M15.21,21.18a.43.43,0,0,0-.27.12l-.13-.23c0,.13-.08.27-.13.4-.19-.5-.54-1.67,0-2.2A1.57,1.57,0,0,0,15.21,21.18Z"/><path class="cls-7" d="M18.7,21.36s.36-.18.7-.38l-.12.3A2.36,2.36,0,0,1,18.7,21.36Z"/><path class="cls-7" d="M19.64,21a.39.39,0,0,1-.16.15A1.8,1.8,0,0,1,19.4,21c.33-.19,0-1.53,0-1.59S19.84,20.72,19.64,21Z"/><path class="cls-10" d="M14.64,28.32A4.58,4.58,0,0,1,15.92,28c.5,0,1.15.07,1.15.07l-1,1Z"/><path class="cls-8" d="M18.41,30.81c-.09-1,0-2.61-1.34-2.75a1.76,1.76,0,0,0-.94,0,3.3,3.3,0,0,0,.08,1.58c.23,1,.46,2,.65,3.05a7.88,7.88,0,0,0,.31,1c.17.58.35,1.15.51,1.73a.2.2,0,0,0,0,.11c0,.14.07.27.1.41a.35.35,0,0,0,.41.23.38.38,0,0,0,.27-.4v-.2a.31.31,0,0,0,.07-.24C18.5,33.85,18.55,32.32,18.41,30.81Z"/><path class="cls-8" d="M17.05,36a.45.45,0,0,0,0-.11c-.07-.6-.11-1.21-.17-1.81a6.82,6.82,0,0,0-.1-1.1c-.2-1-.35-2.05-.51-3.08C16.12,29,16,28.32,15,28.27a1.25,1.25,0,0,0-.77.37,3.35,3.35,0,0,0,0,1.46,14.63,14.63,0,0,0,.4,1.74c.43,1.46,1,2.86,1.53,4.29a.39.39,0,0,0,.15.2l.08.18a.36.36,0,0,0,.4.26.37.37,0,0,0,.29-.37Z"/><path class="cls-8" d="M21.32,23.58c-.19-.18-.53-.11-.76-.06s-.3.21-.32.48.2.19.22,0V24a.19.19,0,0,0,.1.13,1.08,1.08,0,0,0,.71,0A.33.33,0,0,0,21.32,23.58Z"/><path class="cls-11" d="M19.78,26.69c.44-1.12.67-2.24-1-2.29h-.08c-.25,0-.51,0-.76,0-.7,0-1.42,0-2.12,0-.17,0-.33,0-.49,0a1.89,1.89,0,0,0-1.7,1.74,5.86,5.86,0,0,0,0,2.47c.37.66.56-1.37,4.05-.51.17.05,1.17.9,1.16.79A10.93,10.93,0,0,1,19.78,26.69Z"/><polygon class="cls-12" points="32.85 7.27 31.59 6.05 33.12 5.71 32.85 7.27"/><circle class="cls-12" cx="31.96" cy="4.35" r="2.19"/><path class="cls-3" d="M31.62,4.7V4.56a.51.51,0,0,1,.07-.28.65.65,0,0,1,.24-.22,1.25,1.25,0,0,0,.19-.15.25.25,0,0,0,.06-.16.11.11,0,0,0-.06-.11A.29.29,0,0,0,32,3.59a1.31,1.31,0,0,0-.59.18l-.23-.45A1.7,1.7,0,0,1,32,3.08a.94.94,0,0,1,.59.16.54.54,0,0,1,.21.45.65.65,0,0,1-.09.35,1.09,1.09,0,0,1-.31.29l-.22.16a.2.2,0,0,0,0,.13V4.7Zm-.07.59a.32.32,0,0,1,.09-.24A.4.4,0,0,1,31.9,5a.38.38,0,0,1,.26.08.37.37,0,0,1,0,.48.35.35,0,0,1-.26.08.37.37,0,0,1-.26-.08A.3.3,0,0,1,31.55,5.29Z"/><polygon class="cls-12" points="20.49 9.87 21.75 8.64 20.21 8.31 20.49 9.87"/><circle class="cls-12" cx="21.38" cy="6.95" r="2.19"/><path class="cls-3" d="M21.61,7.3h-.56L21,5.71h.72ZM21,7.89a.3.3,0,0,1,.1-.24.34.34,0,0,1,.26-.08.35.35,0,0,1,.26.08.32.32,0,0,1,.09.24.29.29,0,0,1-.09.23.37.37,0,0,1-.26.09.36.36,0,0,1-.26-.09A.29.29,0,0,1,21,7.89Z"/><polygon class="cls-5" points="30.72 27.88 36.98 27.88 38.59 29.14 30.72 29.14 30.72 27.88"/><path class="cls-6" d="M36.25,30.44H30.72v-1.3h7.87A2.74,2.74,0,0,1,36.25,30.44Z"/><path class="cls-6" d="M38.59,29.14l.89-9.68a1.11,1.11,0,0,0-.8-1.27l-2.38-.91a1.12,1.12,0,0,0-1.43,1.09L35,27.51Z"/><path class="cls-13" d="M35.75,10a1.39,1.39,0,0,0-.69-1.25,1.42,1.42,0,0,0-1.12-.12A1.1,1.1,0,0,0,33,8.34a1,1,0,0,0-.71.53.45.45,0,0,0-.45-.15.56.56,0,0,0-.47.34.94.94,0,0,0,0,.16.64.64,0,0,0-.75.46c-.19.66.41,1.08.86,1.42.25.19.49-.23.24-.42l-.11-.08h.07a.19.19,0,0,0,.17-.06h0c.45,0,.94.16,1.29-.21l0,0a1.6,1.6,0,0,1,.79.22c.15.09.28.22.44.31a.71.71,0,0,0,.74.05.43.43,0,0,0,.12-.11.5.5,0,0,0,.22-.13A.92.92,0,0,0,35.75,10Z"/><path class="cls-8" d="M23.69,24A.33.33,0,0,0,24,24a1.47,1.47,0,0,0,.8.18l.11,0a2.47,2.47,0,0,0,.9,0,.86.86,0,0,0,.29-.13c.09-.08.07-.17.14-.25a.13.13,0,0,0,0-.08c.19-.1.27-.3,0-.44A3.57,3.57,0,0,0,24.92,23a2,2,0,0,0-.74.05,1.16,1.16,0,0,0-.57.22h0l-.05,0c-.33.13-.3.51-.28.75S23.7,24.19,23.69,24Zm.53-.34.21-.09h0l.16,0h0a.08.08,0,0,0,0,.08v0h0l-.2,0h-.26Z"/><polygon class="cls-14" points="26.29 22.94 25.82 23.02 26.02 24.15 26.58 24.02 26.29 22.94"/><path class="cls-7" d="M29.73,29.47c.17-.79,4.74-1.19,4.86-1.81a.45.45,0,0,0-.2-.49,13,13,0,0,0,.11-1.88c0-.47-.75-.49-.74,0,0,.14,0,.29,0,.43h0a3,3,0,0,1-.06-.79.36.36,0,0,0-.06-.22.34.34,0,0,0-.44-.35,5.1,5.1,0,0,0-.55.19.38.38,0,0,0-.69,0l0,0a4.74,4.74,0,0,0-.16,1.13c-1.36,1.1-4,1-4.06,1.8C27.43,30.15,29,29.35,29.73,29.47Z"/><path class="cls-7" d="M29.46,29.27a8,8,0,0,1-1.73-1.75c-.8,2.18-3,8.32-2.93,8.52a2.81,2.81,0,0,0,.51.76c.4.46.9.39,1.45.65.19.09,2.3-6.1,3-8Z"/><path class="cls-8" d="M34.85,15.65a.65.65,0,0,1-.32.59,2,2,0,0,1-.82.25c-.45,0-1.18-.11-1.17-.63,0-.06,0-.29,0-.57s0-.5,0-.73a1.63,1.63,0,0,1,.08-.58.48.48,0,0,1,.52.11l.1,0a.52.52,0,0,1,.17.13h0l.15,0a.44.44,0,0,1,.36-.1.44.44,0,0,1,.39,0s0-.11.06-.14c0,.21.08.43.13.64S34.74,15.31,34.85,15.65Z"/><path class="cls-10" d="M34.56,14.61a1.41,1.41,0,0,1-2,.68c0-.24,0-.5,0-.73l.7-.45a.52.52,0,0,1,.17.13h0l.15,0a.44.44,0,0,1,.36-.1.44.44,0,0,1,.39,0s0-.11.06-.14C34.47,14.18,34.51,14.4,34.56,14.61Z"/><path class="cls-11" d="M32.27,31.05l-.34-.14a13.94,13.94,0,0,1-2.15-1.08c-1.38,2.91-3,6.22-3.8,7.68-.09.16,1.41,1.14,2,1.18.3,0,.46-.35.58-.61C28.77,37.66,30.56,34.22,32.27,31.05Z"/><path class="cls-11" d="M33.1,26.7c0,.39-.84.94-.54,1.13,0,.21-2.79,1.41-2.78,2C30,31.05,32,31,32.27,31.05c4.8-1.34,4.5-2.7,4.55-3a6.24,6.24,0,0,0-.22-2.1,1.84,1.84,0,0,0-.32-.9v0a.66.66,0,0,1,0-.14.36.36,0,0,0-.07-.24.37.37,0,0,0-.47-.37,5.89,5.89,0,0,0-1.92,1,.39.39,0,0,0-.77.06,5.55,5.55,0,0,0,.07,1.08C33.13,26.62,33.08,26.41,33.1,26.7Z"/><path class="cls-7" d="M36.83,27.22s-3.77.91-5.08-.19c-.63-.54,2.51-1.73,2.51-1.73l2.34.61Z"/><path class="cls-14" d="M32.33,15.56l.1,0a.18.18,0,0,1,.11.16,1.16,1.16,0,0,0,1,.42,1.38,1.38,0,0,0,1.35-.54l0,0a.2.2,0,0,1,.17,0c.46.16,1,.21,1.43.4h0a2.42,2.42,0,0,1,.35.12c.26.09-.68,3.87-.67,4.06,0,.57.09,1.14.14,1.7s.08,1.29.15,1.92a3,3,0,0,1,0,.42,3.18,3.18,0,0,1,0,1.19c-.07.23-.19.06-.35.23a10.94,10.94,0,0,1-2.57.41c-.73,0-1.5.15-2-.39-.3-.31-.51-.35-.61-.77a36.82,36.82,0,0,1,.25-4,12.56,12.56,0,0,0,0-1.5C31.18,18.22,30.47,15.52,32.33,15.56Z"/><path class="cls-11" d="M35.47,15.77s-2,4.24-2,4.59-.41,4.75-.51,5.85c0,.13.09,1,.23,1,.74,0,3.15,0,3.63-.38-.13-2.05-.26-6.71-.26-6.71s1.3-3.75.81-3.9A7.73,7.73,0,0,0,35.47,15.77Z"/><path class="cls-7" d="M33.61,19.8,35,15.65l1,.12a.12.12,0,0,1,.07.17l-2.68,5.33.08-.83A1.57,1.57,0,0,1,33.61,19.8Z"/><path class="cls-11" d="M32.33,15.56a2.84,2.84,0,0,0-1.82.87C30,17.19,29.2,22,29.2,22l-3.07.71.2,1.77s3.93-.57,4.24-.93a9.54,9.54,0,0,0,.57-2.39l-.31,5.31s1.45,1,1.63.59.36-6.71.36-6.71Z"/><path class="cls-7" d="M32.8,21.06l0-.91-.49-4.59a3.24,3.24,0,0,0-1,.18C31.72,17.29,32.8,21.06,32.8,21.06Z"/><polygon class="cls-12" points="33.22 16.18 34.73 15.25 35.04 15.65 33.67 16.86 33.22 16.18"/><polygon class="cls-12" points="33.22 16.18 32.84 16.77 32.33 15.56 32.49 15.29 33.22 16.18"/><path class="cls-13" d="M35.49,9.45c-.36-.32-.86-.54-1.27-.17-.19.17.09.46.28.29a.41.41,0,0,1,.55,0,.18.18,0,0,0-.13.23,6.54,6.54,0,0,1,.26.86.17.17,0,0,0,.22.14c0,.2-.1.39-.14.57a4.43,4.43,0,0,1-.43,1.22l-.24.37a.63.63,0,0,0-.12.31c0,.24.39.27.4,0h0v0l.06-.09.15-.24a2.55,2.55,0,0,0,.23-.43,7.76,7.76,0,0,0,.5-1.83A1.31,1.31,0,0,0,35.49,9.45Z"/><path class="cls-13" d="M34.87,13.34h0Z"/><polygon class="cls-13" points="34.87 13.33 34.87 13.33 34.87 13.33 34.87 13.33"/><path class="cls-8" d="M34.93,13c.06-.18.2-.14.3-.24a.91.91,0,0,0,.25-.88.5.5,0,0,0-.54-.34h0A2.09,2.09,0,0,1,35,11.2c0-.13,0-.26,0-.39l-.09-.17a1.24,1.24,0,0,0-.95-.45c-.81-.07-1.68.34-2.44-.1a.34.34,0,0,0,0,.12,8.87,8.87,0,0,0,.14,2.12c0,.18,0,.36,0,.54s0,.34.05.51h0a2.37,2.37,0,0,0,.3.93,1.25,1.25,0,0,0,.15.37A.93.93,0,0,0,33,15a1.18,1.18,0,0,0,.89-.22,5.18,5.18,0,0,0,.62-.78A4.18,4.18,0,0,0,34.93,13Z"/><polygon class="cls-7" points="32.27 28.06 33.09 29.14 35 27.51 32.56 27.83 32.27 28.06"/><path class="cls-13" d="M35.16,10.7a.32.32,0,0,0-.61,0,1.35,1.35,0,0,0,.19,1.2c.11.23,0,.33,0,.54s.06.45.23.24a1.45,1.45,0,0,0,.27-.44c.11-.37.56-1.61.56-1.61Z"/><polygon class="cls-12" points="33.22 16.18 32.77 26.15 32.96 26.21 33.39 16.3 33.22 16.18"/><path class="cls-8" d="M32.62,28.33a.09.09,0,0,0,0-.09c.11-.16.08-.37-.21-.42A3.35,3.35,0,0,0,31.1,28a2,2,0,0,0-.36.16,1.86,1.86,0,0,0-.82.47c-.25.26-.24.55-.37.85a.61.61,0,0,0-.05.12c0,.11.09.2.19.18l0,.08c.05,0,0,0,.11,0a1.1,1.1,0,0,0,.36-.07c-.2.07.09.38.24.18a3.61,3.61,0,0,1,1.2-.7,1.52,1.52,0,0,0,.49-.25h0a1.35,1.35,0,0,0,.33-.19.53.53,0,0,0,.17-.23C32.68,28.51,32.61,28.43,32.62,28.33Z"/><polygon class="cls-14" points="32.3 27.49 31.91 27.77 32.58 28.7 33.04 28.33 32.3 27.49"/><path class="cls-11" d="M37.48,16.27s.9,1.45,0,7.52c-.1.7-4.4,4.95-4.4,4.95l-1.17-1.56,3.61-4,.76-3.83Z"/><polygon class="cls-7" points="36.28 19.39 35.22 23.23 33.08 25.91 35.52 23.42 36.28 19.39"/><rect class="cls-13" x="4.8" y="23.89" width="26.81" height="1.59"/><rect class="cls-15" x="6.57" y="25.38" width="23.27" height="1.04"/><polygon class="cls-13" points="5.94 38.45 4.96 38.45 7.19 26.42 8.9 26.42 5.94 38.45"/><polygon class="cls-13" points="30.45 38.45 31.42 38.45 29.2 26.42 27.48 26.42 30.45 38.45"/><g class="cls-16"><path class="cls-6" d="M20.09-5l6.55,2.38c.63.23.81,1,.43,1.76h0a2.14,2.14,0,0,1-2,1.28L17.6-.78c-.44-.07-.78-.73-.72-1.42L17-3.8c.06-.68.4-1.21.82-1.23l2,0A.59.59,0,0,1,20.09-5Z"/></g></svg>