<svg xmlns="http://www.w3.org/2000/svg" viewBox="0 0 13.69 9.5"><defs><style>.cls-1{fill:#f1f2f2;}.cls-2{fill:#231f20;}.cls-3{fill:#d22940;}</style></defs><title>2Recurso 4</title><g id="Capa_2" data-name="Capa 2"><g id="Layer_1" data-name="Layer 1"><path class="cls-1" d="M4.46,2.48A2.11,2.11,0,1,1,2.35.38,2.1,2.1,0,0,1,4.46,2.48Z"/><path class="cls-2" d="M2.35,4.79A2.31,2.31,0,1,1,4.66,2.48,2.31,2.31,0,0,1,2.35,4.79Zm0-4.21a1.9,1.9,0,1,0,1.9,1.9A1.91,1.91,0,0,0,2.35.58Z"/><path class="cls-1" d="M4.51,7.4H.2V6.76A2.15,2.15,0,0,1,2.35,4.61h0A2.16,2.16,0,0,1,4.51,6.76Z"/><path class="cls-2" d="M4.51,7.6H.2A.2.2,0,0,1,0,7.4V6.76a2.36,2.36,0,0,1,4.71,0V7.4A.2.2,0,0,1,4.51,7.6ZM.41,7.19H4.3V6.76a1.95,1.95,0,1,0-3.89,0Z"/><path class="cls-1" d="M13.44,2.48A2.11,2.11,0,1,1,11.33.38,2.11,2.11,0,0,1,13.44,2.48Z"/><path class="cls-2" d="M11.33,4.79a2.31,2.31,0,1,1,2.31-2.31A2.31,2.31,0,0,1,11.33,4.79Zm0-4.21a1.9,1.9,0,1,0,1.9,1.9A1.91,1.91,0,0,0,11.33.58Z"/><path class="cls-1" d="M13.48,7.4H9.18V6.76a2.15,2.15,0,0,1,2.15-2.15h0a2.15,2.15,0,0,1,2.15,2.15Z"/><path class="cls-2" d="M13.48,7.6H9.18A.2.2,0,0,1,9,7.4V6.76a2.36,2.36,0,0,1,4.71,0V7.4A.2.2,0,0,1,13.48,7.6Zm-4.1-.41h3.9V6.76a2,2,0,1,0-3.9,0Z"/><path class="cls-1" d="M9.63,3A2.79,2.79,0,1,1,6.84.2,2.78,2.78,0,0,1,9.63,3Z"/><path class="cls-2" d="M6.84,6a3,3,0,1,1,3-3A3,3,0,0,1,6.84,6Zm0-5.57A2.58,2.58,0,1,0,9.43,3,2.58,2.58,0,0,0,6.84.41Z"/><path class="cls-3" d="M9.69,9.5H4V8.66A2.85,2.85,0,0,1,6.84,5.81h0A2.84,2.84,0,0,1,9.69,8.66Z"/></g></g></svg>