<svg xmlns="http://www.w3.org/2000/svg" viewBox="0 0 41.65 42.13"><defs><style>.cls-1{isolation:isolate;}.cls-2{fill:#e6e7e8;mix-blend-mode:multiply;}.cls-3{fill:#66240e;}.cls-4{fill:#231f20;}.cls-5{fill:#5a3522;}.cls-6{fill:#f5c185;}.cls-7{fill:#e2a971;}.cls-8{fill:#bef4ff;}.cls-9{fill:#aa3229;}.cls-10{fill:#d22940;}.cls-11{fill:#9ee2ff;}.cls-12{fill:#ffc200;}.cls-13{fill:#004a8e;}.cls-14{fill:#843817;}.cls-15{fill:#2d2d2d;}.cls-16{fill:#fff;}</style></defs><title>2Recurso 3</title><g class="cls-1"><g id="Capa_2" data-name="Capa 2"><g id="Layer_1" data-name="Layer 1"><path class="cls-2" d="M10.86,37.15h20a13.86,13.86,0,0,1,6.4,1.57l4,2.1A.69.69,0,0,1,41,42.13H.69a.69.69,0,0,1-.31-1.31L4.5,38.69A13.91,13.91,0,0,1,10.86,37.15Z"/><path class="cls-3" d="M15.87,24.18H27.06l.27-10.52a2.25,2.25,0,0,0-2.25-2.25H17.85a2.25,2.25,0,0,0-2.25,2.25Z"/><path class="cls-4" d="M18.64,25a11.75,11.75,0,0,0,5.95.07l-.48-.3a27.18,27.18,0,0,1-5.25,0A.36.36,0,0,1,18.64,25Z"/><path class="cls-5" d="M19.41,9.22l.05,0a3.05,3.05,0,0,0,2.16.48c.42-.08.83-.25,1.24-.34l0-.07C23.77,9.22,24,8.19,24,7.44a3.18,3.18,0,0,0-.14-1.3A1.94,1.94,0,0,0,22.6,5a2.58,2.58,0,0,0-1-.17c-.32,0-.64.07-.95.09a1.77,1.77,0,0,0-1.39.72,2.27,2.27,0,0,0-.26,1.73A6.89,6.89,0,0,0,19.41,9.22Z"/><path class="cls-6" d="M22.86,13V13a4.15,4.15,0,0,1-.23-.76s0,0,0-.07a5.14,5.14,0,0,1-.08-.88c-.06,0-.15,0-.15.07a.24.24,0,0,0,0,.12.59.59,0,0,0-.45,0,.51.51,0,0,0-.41.13.47.47,0,0,0-.17,0h0a.46.46,0,0,0-.32-.17.55.55,0,0,0-.61-.1l0,.29a3.14,3.14,0,0,1-.08.4h0a2.22,2.22,0,0,1-.34.81l0,.21h0a.38.38,0,0,0,0,.58.83.83,0,0,0,.52.21.49.49,0,0,0,.39.25,2.53,2.53,0,0,0,2.08-.41A.42.42,0,0,0,22.86,13Z"/><path class="cls-7" d="M22.62,12.19a4.54,4.54,0,0,1-1.19.17A3.18,3.18,0,0,1,20.29,12a3.14,3.14,0,0,0,.08-.4l0-.29a.55.55,0,0,1,.61.1.46.46,0,0,1,.32.17h0a.47.47,0,0,1,.17,0,.51.51,0,0,1,.41-.13.59.59,0,0,1,.45,0,.24.24,0,0,1,0-.12c0-.08.09-.1.15-.07a5.14,5.14,0,0,0,.08.88S22.61,12.17,22.62,12.19Z"/><path class="cls-6" d="M23,10.66a5.31,5.31,0,0,0,.25-.92c0-.1,0-.19,0-.28,0-.57.08-1.13.09-1.7s0-1-.43-1.21a1.61,1.61,0,0,0-1-.13c-.55.07-1.15-.16-1.68.08a1.32,1.32,0,0,0-.69,1.38,8,8,0,0,0,.09.84,6.76,6.76,0,0,1,0,.9,6.68,6.68,0,0,0,.69,1.88,1.65,1.65,0,0,0,1.46.47,1.22,1.22,0,0,0,1-.79C22.84,11,22.92,10.85,23,10.66Z"/><path class="cls-6" d="M19.86,9.56a.08.08,0,0,0,0-.06V9.44a.11.11,0,0,0,0-.1l0-.05a.94.94,0,0,0-.13-.43.11.11,0,0,0,.1-.16c-.08-.13-.24-.37-.43-.27s-.16.37-.14.54.13.83.55.79C19.94,9.75,19.93,9.61,19.86,9.56Z"/><path class="cls-6" d="M23.45,8.54a.19.19,0,0,0-.11-.07c-.13,0-.21.15-.25.28a.13.13,0,0,0,.07.16c-.05.18-.08.38-.1.46a.14.14,0,0,0,.06.16v0l-.07.12c-.07.11.06.26.15.16a1.74,1.74,0,0,0,.34-.71s0,0,0,0S23.61,8.61,23.45,8.54Z"/><path class="cls-8" d="M24.65,17.42a.32.32,0,0,0,.15-.17,1.91,1.91,0,0,0,.18-.81c0-.3-.2-.55-.23-.84a.3.3,0,0,0-.19-.26,5.76,5.76,0,0,1,.3-1.8c.19-.52-1.12-.74-2.06-.83a1.69,1.69,0,0,1-.27.47c-.36,0-.72.07-1.08.09s-.89.05-1.12-.26a.27.27,0,0,0-.27-.11l-.14-.21c-1.11.09-2.23.31-2.17.89a.77.77,0,0,0,.1.26.27.27,0,0,0-.1.22,9.88,9.88,0,0,0,.15,1.63c.06.55.1,1.1.11,1.65a.26.26,0,0,0,0,.14,2.78,2.78,0,0,1-.17.51.27.27,0,0,1,0,.12,23,23,0,0,1,.28,3.8c0,.9-.14,1.82-.15,2.73l.17.08.1,0a10.28,10.28,0,0,0,4.78.71,3,3,0,0,0,1.7-.58.6.6,0,0,1,.08-.08l.34-.35A43.77,43.77,0,0,1,24.65,17.42Z"/><path class="cls-9" d="M21.42,13.29l-.39.42s.23.65.39.65.38-.64.38-.64Z"/><path class="cls-10" d="M21.22,14.14l-.35,2.33v3.82l.48.53a6.37,6.37,0,0,0,.59-.49V16.48l-.32-2.34Z"/><polygon class="cls-11" points="20.16 12.39 21.44 13.29 20.91 14.27 19.79 12.68 20.16 12.39"/><polygon class="cls-11" points="22.71 12.39 21.42 13.29 21.96 14.27 23.07 12.68 22.71 12.39"/><path class="cls-6" d="M16.85,28.85a.22.22,0,0,0-.08-.24.92.92,0,0,0,.07-.76.35.35,0,0,0,0-.11,1.56,1.56,0,0,0-.21-.81.66.66,0,0,0-.24-.23c-.12-.06-.24,0-.37-.06a.14.14,0,0,0-.11,0,.37.37,0,0,0-.6.08A2.44,2.44,0,0,0,15.18,28a1.25,1.25,0,0,0,.24.65.84.84,0,0,0,.42.47h0l.05,0c.24.26.74.15,1.06.07S17.1,28.79,16.85,28.85Zm-.57-.4-.16-.17v0s0-.11,0-.15h0a.17.17,0,0,0,.12,0h0a.08.08,0,0,0,0,0c0,.06,0,.11.07.18s0,.15.05.23Z"/><path class="cls-8" d="M18,13.06a1.39,1.39,0,0,0-1,.87,10.2,10.2,0,0,0-.78,2.21,9.6,9.6,0,0,0-.49,2.12c0,.3,0,.61,0,.91-.08,1.09-.47,2.16-.58,3.27l0,4.36a2,2,0,0,0,.85,0c.3-.05.58-.13.87-.2.05-1.05.13-2.09.21-3.13a8.09,8.09,0,0,0,.12-.84c0-.45.05-.91.07-1.37,0-.17,0-.35.08-.53a10.86,10.86,0,0,1,.33-1.11c.19-.59.39-1.19.56-1.79C18.14,16.26,18.07,14.66,18,13.06Z"/><path class="cls-5" d="M23.43,6.14h-.06a.31.31,0,0,0,0-.3v0c0-.43-.67-.45-.7-.06h-.08a12.66,12.66,0,0,0-1.38.15,6.92,6.92,0,0,0-1.11.17.28.28,0,0,0-.44.17.65.65,0,0,0,0,.19.39.39,0,0,0-.09.17l0,.12-.09.11h0c-.14.17.58.6.67.63a2.59,2.59,0,0,0,1.29.22,2.76,2.76,0,0,0,1.12-.34c.31-.17.58-.53,1-.51S23.88,6.16,23.43,6.14Z"/><path class="cls-6" d="M27.53,26.72a.36.36,0,0,0-.59-.08.16.16,0,0,0-.12,0c-.12,0-.24,0-.37.06a.63.63,0,0,0-.23.23,1.47,1.47,0,0,0-.21.81.2.2,0,0,0,0,.11.87.87,0,0,0,0,.67l.13,0c.2-.05.22-.22.33-.36a.16.16,0,0,1,.23,0h0a.21.21,0,0,1,0,.31,1.14,1.14,0,0,0-.09.16.13.13,0,0,1,0,.1c-.17.28-.56.36-.87.48a.17.17,0,0,0,.1.06c.32.08.83.19,1.07-.07l.05,0h0a.88.88,0,0,0,.42-.47A1.25,1.25,0,0,0,27.7,28,2.34,2.34,0,0,0,27.53,26.72Z"/><path class="cls-8" d="M24.18,14a1.17,1.17,0,0,1,.29-.6.27.27,0,0,1,.22-.39,1.31,1.31,0,0,1,1.19.88,9.69,9.69,0,0,1,.78,2.21,8.59,8.59,0,0,1,.49,2.12c0,.3,0,.61,0,.91.08,1.09.48,2.16.58,3.27,0,1.46,0,2.91,0,4.36a2.08,2.08,0,0,1-.86,0c-.29-.05-.57-.13-.86-.2-.05-1.05-.13-2.09-.21-3.13a6.07,6.07,0,0,1-.12-.84c0-.45-.05-.91-.07-1.37,0-.17-.05-.35-.09-.53a8.76,8.76,0,0,0-.32-1.11c-.25-.78-.52-1.56-.71-2.35A.26.26,0,0,1,24.7,17a1.91,1.91,0,0,1,0-.47,1.16,1.16,0,0,0-.15-.27l0,0a.45.45,0,0,1-.54-.3A3.59,3.59,0,0,1,24.18,14Z"/><path class="cls-6" d="M26.33,27.18a1,1,0,0,0-.41.54,2.35,2.35,0,0,0,0,.65.26.26,0,0,0,.52,0c0-.26,0-.56.19-.73S26.6,27,26.33,27.18Z"/><rect class="cls-11" x="6.37" y="23.06" width="7.55" height="1.11"/><rect class="cls-11" x="5.66" y="19.62" width="7.55" height="1.11"/><rect class="cls-12" x="5.66" y="22.19" width="7.55" height="0.87"/><rect class="cls-10" x="6.37" y="20.84" width="7.55" height="1.29"/><rect class="cls-13" x="6.37" y="18.52" width="7.55" height="1.11"/><rect class="cls-10" x="5.66" y="15.08" width="7.55" height="1.11"/><rect class="cls-11" x="5.66" y="17.65" width="7.55" height="0.87"/><rect class="cls-12" x="6.37" y="16.3" width="7.55" height="1.29"/><rect class="cls-13" x="28.19" y="23.16" width="7.55" height="1.01"/><rect class="cls-13" x="28.59" y="19.84" width="7.55" height="1.61"/><rect class="cls-12" x="28.19" y="22.5" width="7.55" height="0.66"/><rect class="cls-10" x="27.8" y="21.49" width="7.55" height="0.97"/><rect class="cls-4" x="29.69" y="17" width="2.22" height="2.79"/><path class="cls-4" d="M29.69,19.44h0a1,1,0,1,1,0-2,.21.21,0,0,1,.21.18v1.62A.18.18,0,0,1,29.69,19.44Zm-.17-1.61a.63.63,0,0,0-.5.62.64.64,0,0,0,.5.63Z"/><rect class="cls-14" x="3.11" y="23.96" width="35.4" height="1.73"/><rect class="cls-3" x="4.94" y="25.57" width="31.75" height="1.12"/><rect class="cls-14" x="5.09" y="26.69" width="31.6" height="13.05"/><rect class="cls-4" x="11.78" y="13.62" width="11.56" height="8.34"/><rect class="cls-15" x="16.42" y="20.99" width="2.44" height="2.43"/><rect class="cls-15" x="15.38" y="23.42" width="4.53" height="0.54"/><path class="cls-10" d="M37.39,5.47a2.82,2.82,0,1,1-2.82-2.82A2.82,2.82,0,0,1,37.39,5.47Z"/><path class="cls-16" d="M36.73,5.47a2.16,2.16,0,1,1-2.16-2.16A2.16,2.16,0,0,1,36.73,5.47Z"/><polygon class="cls-16" points="36.04 6.14 34.57 5.47 34.57 4.41 36.04 6.14"/><path class="cls-4" d="M36,6.31H36L34.5,5.63a.17.17,0,0,1-.1-.16V4.41a.17.17,0,0,1,.17-.18.18.18,0,0,1,.18.18v1L36.11,6a.17.17,0,0,1,.09.23A.19.19,0,0,1,36,6.31Z"/><polygon class="cls-11" points="17.15 8.86 14.05 7.52 16.59 5.87 17.15 8.86"/><path class="cls-11" d="M17.5,2.72A4.21,4.21,0,1,1,12.07.27,4.22,4.22,0,0,1,17.5,2.72Z"/><path class="cls-4" d="M12.25,5.62a.19.19,0,0,1-.1,0,.2.2,0,0,1,0-.25l.57-.79a.17.17,0,0,1,.22,0l.9.46L15,3a.17.17,0,1,1,.3.18L14,5.28a.19.19,0,0,1-.23.06l-.91-.46-.48.67A.21.21,0,0,1,12.25,5.62Z"/><polygon class="cls-10" points="14.18 3.31 15.44 2.57 15.44 3.83 14.18 3.31"/><path class="cls-4" d="M15.35,6.18H11.78A.17.17,0,0,1,11.6,6V2.66a.18.18,0,0,1,.18-.18.18.18,0,0,1,.17.18V5.84h3.4a.17.17,0,0,1,0,.34Z"/></g></g></g></svg>