<svg xmlns="http://www.w3.org/2000/svg" viewBox="0 0 37.26 42.96"><defs><style>.cls-1{isolation:isolate;}.cls-2{fill:#e6e7e8;mix-blend-mode:multiply;}.cls-3{fill:#fff;}.cls-4{fill:#231f20;}.cls-5{fill:#004a8e;}.cls-6{fill:#d22940;}.cls-7{fill:#9ee2ff;}.cls-8{fill:#ff9537;}.cls-9{fill:#d1d3d4;}.cls-10{fill:#f1f2f2;}.cls-11{fill:#c9c9c9;}.cls-12{fill:#4c2a1b;}.cls-13{fill:#843817;}.cls-14{fill:#f5c185;}.cls-15{fill:#e2a971;}.cls-16{fill:#00386f;}.cls-17{fill:#aa3229;}.cls-18{fill:#06c;}.cls-19{fill:#e5e5e5;}</style></defs><title>2Recurso 4</title><g class="cls-1"><g id="Capa_2" data-name="Capa 2"><g id="Layer_1" data-name="Layer 1"><path class="cls-2" d="M35.62,37.64a.88.88,0,0,1,.6,1.52c-1.41,1.3-4.33,3-10.11,3-6.5,0-18-1-24.66-1.71a.64.64,0,0,1,0-1.27l10.22-1.5Z"/><path class="cls-3" d="M10.46,2.17v0Z"/><path class="cls-4" d="M10.46,2.3a.13.13,0,0,1-.13-.13V.37a.13.13,0,0,1,.13-.13.12.12,0,0,1,.12.13v1.8A.12.12,0,0,1,10.46,2.3Z"/><path class="cls-3" d="M9.79,26.44v0Z"/><path class="cls-4" d="M9.79,41.62a.13.13,0,0,1-.13-.13v-15a.13.13,0,1,1,.26,0V41.49A.13.13,0,0,1,9.79,41.62Z"/><path class="cls-3" d="M5.92,26.44l-3,13.28Z"/><path class="cls-4" d="M2.9,39.85h0a.13.13,0,0,1-.1-.15l3-13.28a.14.14,0,0,1,.16-.1.13.13,0,0,1,.09.16L3,39.75A.13.13,0,0,1,2.9,39.85Z"/><path class="cls-3" d="M13.64,26.44l3,13.28Z"/><path class="cls-4" d="M16.66,39.85a.15.15,0,0,1-.13-.1l-3-13.28a.14.14,0,0,1,.1-.16.13.13,0,0,1,.15.1l3,13.28a.11.11,0,0,1-.09.15Z"/><rect class="cls-3" x="1.22" y="2.17" width="17" height="26.3"/><rect class="cls-5" y="28.47" width="19.69" height="1.86"/><path class="cls-6" d="M9.92,4.7a5.67,5.67,0,0,1,3.13.93L9.92,10.19l.7,5.86h0a5.37,5.37,0,0,1-.7,0,5.7,5.7,0,0,1,0-11.39Z"/><path class="cls-7" d="M15.62,10.4a5.65,5.65,0,0,1-1.18,3.46L9.92,10.19l3.13-4.56a5.29,5.29,0,0,1,.9.74A5.76,5.76,0,0,1,15.45,9,5.83,5.83,0,0,1,15.62,10.4Z"/><path class="cls-8" d="M14.48,13.81l0,0a5.67,5.67,0,0,1-3.82,2.19l-.7-5.86Z"/><rect class="cls-9" x="6.5" y="18.33" width="6.55" height="0.83" transform="translate(19.54 37.48) rotate(180)"/><rect class="cls-9" x="4.23" y="20.28" width="11.09" height="0.83" transform="translate(19.54 41.38) rotate(180)"/><rect class="cls-9" x="4.23" y="21.68" width="11.09" height="0.83" transform="translate(19.54 44.18) rotate(180)"/><rect class="cls-9" x="4.23" y="23.07" width="11.09" height="0.83" transform="translate(19.54 46.97) rotate(180)"/><rect class="cls-9" x="4.23" y="24.47" width="11.09" height="0.83" transform="translate(19.54 49.77) rotate(180)"/><rect class="cls-9" x="4.23" y="25.87" width="11.09" height="0.83" transform="translate(19.54 52.57) rotate(180)"/><path class="cls-10" d="M18.22,2.18l-3.35,0c.29.06,2.78.69,2.78,5.7,0,4,.57,20.57.57,20.57Z"/><path class="cls-11" d="M16.49,2.2h.11A.16.16,0,0,0,16.49,2.2Z"/><path class="cls-12" d="M31.75,39h.06a.8.8,0,0,1,.56,0,2.4,2.4,0,0,1,.48.1,2.47,2.47,0,0,1,1,.63,13.9,13.9,0,0,1,1,1.23,1.09,1.09,0,0,1,.3.65c0,.31-.28.52-.64.6a1.9,1.9,0,0,1-1.64-.48,8.68,8.68,0,0,1-1.27-1.19c-.12-.16-.74-.54-.86-.69C30.45,39.54,31.17,38.05,31.75,39Z"/><path class="cls-12" d="M28.61,39.14h-.05c-.11-.09-.39,0-.52.09a1.37,1.37,0,0,0-.45.13,2.23,2.23,0,0,0-.79.88,13.38,13.38,0,0,0-.6,1.5,1.06,1.06,0,0,0-.1.69.81.81,0,0,0,.66.53A1.28,1.28,0,0,0,28,42.39a7.31,7.31,0,0,0,.91-1.28c.09-.17.59-.63.68-.82C29.79,39.85,29.11,37.69,28.61,39.14Z"/><path class="cls-13" d="M32.81,4.5l0,0a3.18,3.18,0,0,1-2.2.49c-.44-.09-.86-.27-1.28-.36a.14.14,0,0,1,0-.07c-.9-.09-1.14-1.14-1.18-1.9a3.52,3.52,0,0,1,.15-1.33A2,2,0,0,1,29.56.17a2.72,2.72,0,0,1,1-.17c.33,0,.65.07,1,.08a1.84,1.84,0,0,1,1.42.74,2.36,2.36,0,0,1,.26,1.77A6.88,6.88,0,0,1,32.81,4.5Z"/><path class="cls-14" d="M29.33,8V8a5.23,5.23,0,0,0,.23-.77s0,0,0-.08a5.26,5.26,0,0,0,.08-.89.11.11,0,0,1,.16.07v.13a.57.57,0,0,1,.46,0,.52.52,0,0,1,.41.13l.18,0h0a.48.48,0,0,1,.31-.17.58.58,0,0,1,.64-.1c0,.1,0,.2,0,.3s.05.27.08.4h0a2.34,2.34,0,0,0,.35.83l0,.21h0a.4.4,0,0,1,0,.6.92.92,0,0,1-.53.21.52.52,0,0,1-.4.25,2.59,2.59,0,0,1-2.12-.41A.44.44,0,0,1,29.33,8Z"/><path class="cls-15" d="M29.57,7.18a4.7,4.7,0,0,0,1.21.17A3.21,3.21,0,0,0,31.94,7c0-.13-.06-.27-.08-.4s0-.2,0-.3a.58.58,0,0,0-.64.1.48.48,0,0,0-.31.17h0l-.18,0a.52.52,0,0,0-.41-.13.57.57,0,0,0-.46,0V6.28a.11.11,0,0,0-.16-.07,5.26,5.26,0,0,1-.08.89S29.58,7.15,29.57,7.18Z"/><path class="cls-14" d="M29.19,5.62a4.71,4.71,0,0,1-.25-.94l0-.29c0-.45-.1-1.8-.09-2a1,1,0,0,1,.44-.92,1.74,1.74,0,0,1,1.06-.14c.56.07,1.17-.15,1.71.09a1.31,1.31,0,0,1,.7,1.4,6.27,6.27,0,0,1-.09.86c0,.31,0,.61,0,.92a6.84,6.84,0,0,1-.69,1.91,1.71,1.71,0,0,1-1.5.48,1.23,1.23,0,0,1-1-.8A5.27,5.27,0,0,1,29.19,5.62Z"/><path class="cls-14" d="M32.39,4.5a.09.09,0,0,1,0-.06V4.38a.14.14,0,0,1,0-.11l0,0a1.17,1.17,0,0,1,.13-.44.12.12,0,0,1-.1-.16c.09-.14.25-.38.44-.28s.16.38.14.55-.13.85-.56.81C32.3,4.69,32.31,4.55,32.39,4.5Z"/><path class="cls-14" d="M28.72,3.45a.17.17,0,0,1,.12-.06c.13,0,.2.15.25.28a.13.13,0,0,1-.07.16c.05.19.08.39.1.48a.14.14,0,0,1-.06.16h0s.05.09.07.13-.06.26-.15.16a1.67,1.67,0,0,1-.35-.72s0,0,0,0C28.57,3.83,28.56,3.52,28.72,3.45Z"/><path class="cls-3" d="M27.5,12.5s0,0,0-.05c.33-.63.1-1.21.1-2a5.68,5.68,0,0,0-.31-1.92c-.19-.52,1.14-.75,2.11-.84a1.64,1.64,0,0,0,.27.48c.37,0,.73.07,1.1.09s.9.05,1.15-.27a.26.26,0,0,1,.27-.11c0-.07.1-.14.14-.21,1.13.08,2.27.31,2.21.91a3.44,3.44,0,0,1-.25.56,4.07,4.07,0,0,0-.22.83A4.31,4.31,0,0,0,34,11.33a8,8,0,0,0,.4,1.76.5.5,0,0,0,0,.12,22.76,22.76,0,0,0-.28,3.87c0,.93.14,1.86.15,2.79l-.17.08L34,20a10.53,10.53,0,0,1-4.87.72,3,3,0,0,1-1.73-.59L27.29,20a.94.94,0,0,1-.1-.1A47.41,47.41,0,0,0,27.5,12.5Z"/><path class="cls-5" d="M27.05,27.71a45.23,45.23,0,0,1-.18-5.34c0-.39,0-.79,0-1.2a8,8,0,0,1,.07-1.48c.29.06.59.09.89.14s.57.11.86.16a16.35,16.35,0,0,0,1.85.2,11,11,0,0,0,3.66-.36h0l0,.09a6.13,6.13,0,0,1,0,1.42c0,.66.06,1.32.09,2,0,.93,0,1.87-.05,2.8a38.75,38.75,0,0,1-.52,4.28c-.16,1.43,0,3.39,0,4.85,0,.76,0,1.51-.1,2.26,0,.58.12,1.25-.42,1.64a1.55,1.55,0,0,1-1.11.24c-.48-.06-1.23-.2-1.4-.73a2.65,2.65,0,0,1-.08-.63c-.14-2.5.16-5.05.27-7.54a72.68,72.68,0,0,1,0-7.53c0,.05-.5.05-.56.05a10,10,0,0,0-.16,2.68c0,1.6-.27,3.11-.41,4.68a6.19,6.19,0,0,0,.09,1.55c.07.51.15,1,.17,1.53s0,1,0,1.54c-.05.89-.1,1.77-.13,2.66s-.51,2.36-1.85,2c-.86-.22-1-1-1-1.79-.07-2.48-.41-5.15.2-7.58a4.8,4.8,0,0,1-.06-.56C27.16,29.07,27.1,28.39,27.05,27.71Z"/><path class="cls-16" d="M32.55,19.4c.29.4.65.87.65.87a1.78,1.78,0,0,0,1,1.07,8.68,8.68,0,0,1,0-1c0-.31,0-.64-.26-.83a1.85,1.85,0,0,0-1.07-.1Z"/><path class="cls-16" d="M26.87,21.17A1.76,1.76,0,0,0,28,20.09l.3-.4L28,19.64v0a.33.33,0,0,0-.32-.34h0a.22.22,0,0,0,0-.08,1,1,0,0,0-.49.13.67.67,0,0,0-.21.23A6.75,6.75,0,0,0,26.87,21.17Z"/><polygon class="cls-16" points="31.44 20.59 30.94 22.12 30.94 20.21 31.44 20.59"/><path class="cls-17" d="M30.79,8.29l.4.43s-.24.67-.4.67-.39-.65-.39-.65Z"/><path class="cls-16" d="M33.62,20.19a11.89,11.89,0,0,1-6.06.07l.49-.3a28.22,28.22,0,0,0,5.35,0A.36.36,0,0,0,33.62,20.19Z"/><path class="cls-6" d="M31,9.17l.36,2.37v3.89l-.49.55a5.43,5.43,0,0,1-.6-.51V11.55l.33-2.38Z"/><path class="cls-5" d="M31.19,12.32c0,.26.1,5.16.12,7.58a.49.49,0,0,0,.54.49c.64-.05,1.21-.38,1.85-.49.18,0,.57-.26.75-.29a20.64,20.64,0,0,1-.09-5.75c0-.5,0-.77,0-.77l.39-4.8A4.65,4.65,0,0,0,33,7.76S31.19,12,31.19,12.32Z"/><path class="cls-14" d="M19.55,14.78a.42.42,0,0,1-.07-.54c-.13-.12-.21-.28-.09-.44s.42-.21.61-.3a.2.2,0,0,1,.13,0,1.54,1.54,0,0,1,.58-.08l.43,0a1.38,1.38,0,0,1,.79.39,3.16,3.16,0,0,0,.44.38.52.52,0,0,1-.18.33.26.26,0,0,1,0,.15c-.07.14,0,.3-.13.44a.84.84,0,0,1-.31.25,1.81,1.81,0,0,1-1,.12.17.17,0,0,1-.12-.05.91.91,0,0,1-.67-.08h-.09A.45.45,0,0,1,19.55,14.78Z"/><path class="cls-5" d="M27.69,11.36h-.05a.83.83,0,0,0-.15.27,2,2,0,0,1,0,.48.26.26,0,0,1,.13.29c-.2.81-.47,1.61-.72,2.4a8,8,0,0,0-.33,1.13c0,.18-.24.36-.26.55s0,.14,0,.22A1.57,1.57,0,0,0,26,16.6a2.5,2.5,0,0,0-1.41-.36h-.06c.15-.65-.09-.41,0-1.06,0-.31.41-1.51.44-1.82a8.74,8.74,0,0,1,.5-2.15A10.07,10.07,0,0,1,26.24,9a1.32,1.32,0,0,1,1.21-.89.27.27,0,0,1,.24.39,1.16,1.16,0,0,1,.29.61,3.64,3.64,0,0,1,.25,2A.45.45,0,0,1,27.69,11.36Z"/><path class="cls-5" d="M26.74,19.36a5.74,5.74,0,0,0,.92.5,11.89,11.89,0,0,0,2.42.61.49.49,0,0,0,.51-.51c-.05-2.4-.23-7.25-.23-7.51s-1.8-4.69-1.8-4.69a4.65,4.65,0,0,0-1.82.53l.4,4.8s0,.24,0,.68A16.48,16.48,0,0,1,26.74,19.36Z"/><path class="cls-18" d="M32.74,7.76s-1.55,2.76-1.55,4.56c0,.53,0,1.9,0,1.9A12.51,12.51,0,0,1,32,11.34c.36-.73,2.13-3.42,2.13-3.42A2.81,2.81,0,0,0,32.74,7.76Z"/><path class="cls-18" d="M28.77,7.76s1.59,2.76,1.59,4.56c0,.53,0,1.9,0,1.9a16,16,0,0,0-.86-2.88c-.36-.73-2.13-3.42-2.13-3.42A2.84,2.84,0,0,1,28.77,7.76Z"/><polygon class="cls-19" points="32.08 7.38 30.77 8.29 31.31 9.3 32.45 7.68 32.08 7.38"/><polygon class="cls-19" points="29.48 7.38 30.79 8.29 30.25 9.3 29.11 7.68 29.48 7.38"/><path class="cls-14" d="M35.34,25.29c.33.09.84.24,1.09-.1l0-.05h0a1.1,1.1,0,0,0,.43-.6,2.06,2.06,0,0,0,.24-.85A3.62,3.62,0,0,0,37,22a.33.33,0,0,0-.6-.1.17.17,0,0,0-.12,0c-.13,0-.25,0-.38.08a.8.8,0,0,0-.24.3,2.47,2.47,0,0,0-.21,1.05.25.25,0,0,0,0,.13,1.5,1.5,0,0,0,.07,1,.29.29,0,0,0-.08.3C35.2,24.73,35.09,25.22,35.34,25.29Zm.59-.91a2.68,2.68,0,0,1,0-.3c0-.09.05-.16.07-.23a.13.13,0,0,0,0-.05l0,0a.17.17,0,0,0,.12,0v0s0,.24,0,.2v0l-.17.22A.28.28,0,0,0,35.93,24.38Z"/><path class="cls-5" d="M34.24,8.06A1.39,1.39,0,0,1,35.3,9a10.7,10.7,0,0,1,.8,2.26,9.21,9.21,0,0,1,.5,2.15c0,.31,0,.62,0,.93.08,1.11.48,2.2.59,3.34,0,1.48,0,3,0,4.44a2.12,2.12,0,0,1-.87,0l-.88-.2c0-1.07-.13-2.14-.21-3.2a6,6,0,0,1-.12-.85c0-.46,0-.93-.08-1.39,0-.19-.05-.37-.08-.55-.08-.38-.21-.75-.33-1.13-.2-.61-.4-1.21-.57-1.83C34.13,11.33,34.2,9.69,34.24,8.06Z"/><path class="cls-13" d="M28.72,1.35h.06a.31.31,0,0,1,0-.31V1c0-.43.68-.45.71-.05h.08A11,11,0,0,1,31,1.1a7.17,7.17,0,0,1,1.13.17.29.29,0,0,1,.45.17,1.5,1.5,0,0,1,0,.2.31.31,0,0,1,.09.17.61.61,0,0,1,0,.13l.09.1,0,0c.14.17-.6.6-.69.64a2.71,2.71,0,0,1-1.32.22,2.85,2.85,0,0,1-1.14-.34c-.31-.18-.58-.54-1-.52S28.26,1.37,28.72,1.35Z"/><path class="cls-5" d="M27.18,13.77s-.51,3.68-1.84,3.61-3.71-1.62-3.71-1.62L22,13.84l2.36,1Z"/><path class="cls-15" d="M21.5,14.55a.41.41,0,0,0,0-.19c-.05-.17-.18-.48-.36-.35a6.59,6.59,0,0,0-.81,1.17h.75a.73.73,0,0,0,.43-.54Z"/><path class="cls-14" d="M20.62,13.15a1.65,1.65,0,0,1,.58.1,1.79,1.79,0,0,1,.47.36c.18.16-.05.46-.22.3a1.11,1.11,0,0,0-.63-.37,1.37,1.37,0,0,0-.29,0h-.07l.05.12c.11.21-.23.35-.34.14C20,13.38,20.22,13.13,20.62,13.15Z"/><polygon class="cls-13" points="11.93 6.1 11.89 6.32 27.31 20.14 27.53 19.73 11.93 6.1"/><path class="cls-14" d="M19.56,13.74c.3-.06.61-.18.91-.21a.35.35,0,0,1,.42.25.17.17,0,0,1,0,.1.42.42,0,0,1,.45.15.33.33,0,0,1-.22.45.32.32,0,0,1,.19.23c.09.45-.92.44-1.16.49a.18.18,0,0,1-.07-.36l.07,0a.85.85,0,0,1-.23,0,.2.2,0,0,1,0-.37l.12,0a.89.89,0,0,1-.28-.07.21.21,0,0,1-.12-.21h0A.19.19,0,0,1,19.56,13.74Z"/></g></g></g></svg>