<svg id="Capa_1" data-name="Capa 1" xmlns="http://www.w3.org/2000/svg" xmlns:xlink="http://www.w3.org/1999/xlink" viewBox="0 0 29.97 29.97"><defs><style>.cls-1{fill:none;}.cls-2{fill:#fbbc21;}.cls-3{clip-path:url(#clip-path);}.cls-4{fill:#5b3622;}.cls-5{fill:#f4c185;}.cls-6{fill:#e2a971;}.cls-7{fill:#c4e6f4;}.cls-8{fill:#2e2e2e;}.cls-9{fill:#231f20;}.cls-10{fill:#a4dbf7;}</style><clipPath id="clip-path"><ellipse class="cls-1" cx="14.98" cy="14.98" rx="14.98" ry="14.98" transform="translate(-0.04 29.92) rotate(-89.83)"/></clipPath></defs><title>persona2</title><ellipse class="cls-2" cx="14.98" cy="14.98" rx="14.98" ry="14.98" transform="translate(-0.04 29.92) rotate(-89.83)"/><g class="cls-3"><path class="cls-4" d="M8.19,8.85c.33,1.14,1.3,2,1.56,3.13.15.71,1.25.41,1.09-.3-.25-1.14-1.14-1.93-1.52-3a2.17,2.17,0,0,1-.1-.87C10.39,9.64,13,9.44,14.85,9.1A16.8,16.8,0,0,1,17,8.78a3.05,3.05,0,0,1,.8,0,.71.71,0,0,0,0,.36c.1.5.26,1,.41,1.5a.62.62,0,0,0-.67.61,8.37,8.37,0,0,1,0,2.29,10.16,10.16,0,0,1-1,2.17l-.05.11c-.06.18-.42.37-.52.59a3.72,3.72,0,0,1-1-.48c-.61-.4-1.18.58-.57,1a4.55,4.55,0,0,0,5.19-.09.53.53,0,0,0,.25-.37,6.16,6.16,0,0,0,.14-1.72A12.73,12.73,0,0,0,21.23,9,5.85,5.85,0,0,0,19.6,5a5.16,5.16,0,0,0-4-1.55A22.27,22.27,0,0,1,13,3.71l-1.18-.08c-1.33-.38-3.25-1.06-3.37.81A6.79,6.79,0,0,0,8.55,6c-.1.36-.25.71-.35,1.07A3.21,3.21,0,0,0,8.19,8.85Zm8.23-1.16h0l.08-.05.12,0ZM11.28,8a.62.62,0,0,0,.54-.15.63.63,0,0,0,.13-.2.51.51,0,0,0,.29-.23h0A8.37,8.37,0,0,0,14.44,8c-.29,0-.57.09-.86.11A6,6,0,0,1,11.28,8Zm-.58-.28h.06l.15,0a1.34,1.34,0,0,1,.11.14.42.42,0,0,0,.16.11A2.16,2.16,0,0,1,10.7,7.76Z"/><path class="cls-5" d="M18.08,20.62a1.77,1.77,0,0,1-.81,1.64A5.67,5.67,0,0,1,15,23c-1.22.07-3.24-.22-3.23-1.64,0-.18,0-.81,0-1.57s0-1.37.05-2A4.85,4.85,0,0,1,12,16.19a1.32,1.32,0,0,1,1.43.25,1.53,1.53,0,0,1,.29.07,1.23,1.23,0,0,1,.46.33h0a1.43,1.43,0,0,1,.41-.09,1.2,1.2,0,0,1,1-.3,1.31,1.31,0,0,1,1.08,0c-.07,0,0-.29.14-.4.12.59.26,1.18.41,1.77C17.48,18.75,17.76,19.69,18.08,20.62Z"/><path class="cls-6" d="M17.23,17.8c-1.89,3.31-4.42,2.49-5.44,2,0-.64,0-1.37.05-2,.2-.15,1-.69,1.9-1.27a1.23,1.23,0,0,1,.46.33h0a1.43,1.43,0,0,1,.41-.09,1.2,1.2,0,0,1,1-.3,1.31,1.31,0,0,1,1.08,0c-.07,0,0-.29.14-.4C16.94,16.62,17.08,17.21,17.23,17.8Z"/><path class="cls-5" d="M18,13.89c.15-.48.49-.38.76-.65A2.26,2.26,0,0,0,19.36,11,1.29,1.29,0,0,0,18,10.19l-.1,0a4.13,4.13,0,0,1,.19-.87c0-.33,0-.66,0-1-.07-.15-.14-.29-.22-.43a3.16,3.16,0,0,0-2.43-1.07c-2.07-.12-4.25,1-6.2-.11,0,.1-.06.2-.08.3a21.49,21.49,0,0,0,.48,5.37c.06.46.09.91.14,1.36a11.24,11.24,0,0,1,.15,1.3h0a6,6,0,0,0,.84,2.33,3.55,3.55,0,0,0,.38.93,2.48,2.48,0,0,0,2.28.84,3,3,0,0,0,2.24-.64,12.54,12.54,0,0,0,1.53-2A10,10,0,0,0,18,13.89Z"/><path class="cls-7" d="M11.17,20.55a1.3,1.3,0,0,1,.3.13.54.54,0,0,1,.3.42,3.14,3.14,0,0,0,2.65,1.08c2.85.08,3.66-1.56,3.66-1.56l.07,0a.59.59,0,0,1,.46-.05c1.27.39,2.69.5,4,1l.06,0c.33.09.65.19,1,.3.71.24-1.59,10.66-1.54,11.19.12,1.55.32,3.1.49,4.65.19,1.75.31,3.51.55,5.25a11,11,0,0,1,.11,1.14,24.6,24.6,0,0,1,.06,5.29c-.18.64-.53.18-1,.65s-5,1.11-7,1.3-4.09.53-5.52-.92c-.82-.84-1.42-.94-1.71-2.07-.36-1.39.4-12.36.39-13a29.77,29.77,0,0,0-.19-4.1C8.21,27.91,6.08,20.55,11.17,20.55Z"/><path class="cls-4" d="M11.69,19.22A4.68,4.68,0,0,0,15.08,19a3.09,3.09,0,0,0,1.7-2.4c.07-.84.22-1.15-.74-1.42a11.49,11.49,0,0,0-3.59-.4A25.13,25.13,0,0,1,9.86,15C9.49,16.57,10,18.68,11.69,19.22Zm-.23-3A3.6,3.6,0,0,1,13,15.75c.72-.08,1.84,0,2,.87,0,0,0,.07,0,.11-.13.32-1.07.55-1.41.63a3.46,3.46,0,0,1-2.32-.27C10.7,16.85,11.11,16.42,11.46,16.19Z"/><path class="cls-4" d="M18.94,9.56s-.43,2.68-1.06,2.8.39-2.81-.06-4.43S18.94,9.56,18.94,9.56Z"/><path class="cls-8" d="M19.79,20.9s-5.17,11.75-5.17,12.72-.78,15.07-1,18.09a.6.6,0,0,0,.64.63c2-.12,8.65-.17,9.92-1.31-.49-5.59-1.12-18.37-1.12-18.37l1.43,6.6.87,13a.49.49,0,0,0,.49.46h3.34s.05-10.87-.31-13.45-1-16.54-3.87-17.36A31.46,31.46,0,0,0,19.79,20.9Z"/><path class="cls-9" d="M15,32.07l3.62-11.46,2.63.26a.32.32,0,0,1,.22.45l-7,14.8.17-2.29A4.29,4.29,0,0,1,15,32.07Z"/><path class="cls-8" d="M11.17,20.55s-3.54.4-4.92,2.51-3.2,14.77-3.2,14.77l-7,.07.3,3.92s9.31.52,10.12-.48,1.72-8.63,1.72-8.63L7.78,50.46s4,2.53,4.5,1.52.57-18.42.57-18.42Z"/><path class="cls-9" d="M12.85,35.58v-2.5L11.17,20.55a8.45,8.45,0,0,0-2.76.56C9.62,25.34,12.85,35.58,12.85,35.58Z"/><polygon class="cls-10" points="13.66 22.18 17.72 19.52 18.61 20.61 14.93 24.02 13.66 22.18"/><polygon class="cls-10" points="13.66 22.18 12.67 23.81 11.17 20.55 11.6 19.78 13.66 22.18"/><polygon class="cls-10" points="13.36 22.18 12.55 51.56 13.34 51.71 14.12 22.18 13.36 22.18"/></g></svg>