<svg id="Capa_1" data-name="Capa 1" xmlns="http://www.w3.org/2000/svg" xmlns:xlink="http://www.w3.org/1999/xlink" viewBox="0 0 29.97 29.97"><defs><style>.cls-1{fill:none;}.cls-2{fill:#fbbc21;}.cls-3{clip-path:url(#clip-path);}.cls-4{fill:#4c2b1b;}.cls-5{fill:#f4c185;}.cls-6{fill:#e2a971;}.cls-7{fill:#c4e6f4;}.cls-8{fill:#a4dbf7;}.cls-9{fill:#231f20;}.cls-10{fill:#fcc10c;}.cls-11{fill:#fff;}.cls-12{fill:#d6d7d7;}</style><clipPath id="clip-path"><ellipse class="cls-1" cx="14.98" cy="14.98" rx="14.98" ry="14.98" transform="translate(-0.04 29.92) rotate(-89.83)"/></clipPath></defs><title>persona4</title><ellipse class="cls-2" cx="14.98" cy="14.98" rx="14.98" ry="14.98" transform="translate(-0.04 29.92) rotate(-89.83)"/><g class="cls-3"><path class="cls-4" d="M21.26,19.82c-.08-2.42-1.27-5.17-.93-7.41.28-1.82.46-4.63-.51-6.15S17,4.51,15.48,4.2s-2.84-.35-4,.84a7.5,7.5,0,0,0-2,4.53A10.56,10.56,0,0,0,10,12.79c.08.3.18.6.26.9a2.33,2.33,0,0,0-.05.28c-.11,1.4,0,2.82,0,4.23a19.29,19.29,0,0,0,.15,3.73,4.42,4.42,0,0,0,3.29,3.49,5.9,5.9,0,0,0,3-.12c.92-.27,1.81-.71,2.74-.95a5.47,5.47,0,0,0,.61-.2l-.15-2.22.54,2c.57-.4.76-1.06.9-2.36A12.84,12.84,0,0,0,21.26,19.82Z"/><path class="cls-5" d="M13.61,18.84c.74.69,2.35,1,3,0,.33,0,.66-.32.55-.85l0-.16a1,1,0,0,0-.06-.28c-.05-.32-.09-.64-.13-1,0-.13,0-.26,0-.39a1.13,1.13,0,0,1,0-.26.83.83,0,0,0-.11-.45s0-.05,0-.08a1.46,1.46,0,0,0,0-.2c-.17-.73-.88-.59-1,0a.69.69,0,0,0-.29.41l0,.11a3.86,3.86,0,0,0-.06.49h0a.43.43,0,0,0-.61.07.33.33,0,0,0-.24,0,.31.31,0,0,0-.05-.1.93.93,0,0,0-.07-.2c-.22-.47-.82-.3-.95.22a.91.91,0,0,0,0,.37,3.78,3.78,0,0,1,.06.47l0,.38h0c0,.23,0,.45,0,.68A.83.83,0,0,0,13.61,18.84Z"/><path class="cls-6" d="M13.41,16.53a3.78,3.78,0,0,1,.06.47l0,.38h0s1.2,2.29,3.67.15c0-.13-.16-1.23-.17-1.36a1.13,1.13,0,0,1,0-.26.83.83,0,0,0-.11-.45s0-.05,0-.08l-1.39.32-1.05.24-.95.22A.91.91,0,0,0,13.41,16.53Z"/><path class="cls-5" d="M11.9,7a2.13,2.13,0,0,1,.71-.34c.55-.16,1.35.18,1.91.15,1,0,2.33-.26,3,.6s.32,1.85.32,2.82q0,.3,0,.6l0,0a1,1,0,0,1,.78-.19.53.53,0,0,1,.46.45,2.14,2.14,0,0,1-1.06,1.82h0a3.73,3.73,0,0,1-.12,1,5.06,5.06,0,0,1-2.07,2.58,2.4,2.4,0,0,1-2.65.25,3.05,3.05,0,0,1-1.63-2.22,8.66,8.66,0,0,1-.45-3.19C11.27,9.93,10.72,7.9,11.9,7Z"/><path class="cls-7" d="M19.61,35.73a7.27,7.27,0,0,1-.27-4.33,25.21,25.21,0,0,1,.7-2.48,8.38,8.38,0,0,1-.6-2.35h0a6.19,6.19,0,0,1,0-.86,17.7,17.7,0,0,1,.31-2.61,8.67,8.67,0,0,1,1.13-3.39c-.27-.11-3.37-1.62-3.64-1.73,0,0-2.81,1-3.81-.08a13.11,13.11,0,0,0-4.19.64,11.75,11.75,0,0,1-.52,4.25c-.67,1.65-2.12,3.61-1.5,5.48a5.65,5.65,0,0,0,.74,1.17l0,0H8a3.86,3.86,0,0,1,.35,1c.07.28.12.56.18.82A10.75,10.75,0,0,1,8.61,35c-.07.47-.18.94-.26,1.41L8.26,37s0,.15,0,.17,0,.25,0,.37c-.12.91-.23,1.81-.41,2.7,0,.56-.08,1.12-.11,1.69a5.6,5.6,0,0,0,1.9.83A10.36,10.36,0,0,0,12.9,43a27.12,27.12,0,0,0,5.36-1.09c.34-.1,1-.22,1.57-.42.77-.25,1.48-.63,1.45-1.25a6.13,6.13,0,0,0-.59-1.54Z"/><path class="cls-8" d="M18.07,30.64c-.39,1.8-.47,4.78,0,5.94.35.88,1.31,3.6,1.76,4.88.77-.25,1.48-.63,1.45-1.25a6.13,6.13,0,0,0-.59-1.54l-1.08-2.94a7.27,7.27,0,0,1-.27-4.33,25.21,25.21,0,0,1,.7-2.48,8.38,8.38,0,0,1-.6-2.35c0,.26-.11,3.2-1.37,3.37a7.3,7.3,0,0,1-2.15,0A2.56,2.56,0,0,0,18.07,30.64Z"/><path class="cls-4" d="M18.88,8.21a.77.77,0,0,0-.25-.1.88.88,0,0,0-.36-.51,15.68,15.68,0,0,0-5.11-1.9.74.74,0,0,0-.9.48.78.78,0,0,0-.38,1.5,1.81,1.81,0,0,1,.28.12,5.32,5.32,0,0,0,.47.36,6,6,0,0,1,.61.8,4.65,4.65,0,0,0,1.68,1.73,3.41,3.41,0,0,0,4.24-1.42A.78.78,0,0,0,18.88,8.21Z"/><path class="cls-7" d="M20.84,19.7s1.46.23,3,4,3.4,7.2,3.38,9.33S23.32,41,23.32,41L21,39.36s3.58-6.11,3.08-6.79-3.47-5.48-3.47-5.48L20,28.92l-.91-2.35S19.17,21.19,20.84,19.7Z"/><path class="cls-7" d="M9.2,18.53s-3.26-.67-5.4,11.93l-6.21,8.16s.32,1.62.89,1.91S5.15,35.29,5.54,34,9,26.8,9,26.8Z"/><polygon class="cls-8" points="13.38 17.05 14.55 18.43 17.08 17.1 17.63 18.17 14.75 20.23 14.55 18.43 13.4 19.99 12.47 17.88 13.38 17.05"/><path class="cls-8" d="M14.55,18.43a25.91,25.91,0,0,0-2.67,11.51c0,6.66.59,13.09.59,13.09l.61,0s-.61-10.76-.61-13.37a33,33,0,0,1,2.28-10.76Z"/><path class="cls-8" d="M7.92,29.43l0,0H8a3.86,3.86,0,0,1,.35,1A4,4,0,0,0,10.13,30,2.89,2.89,0,0,1,7.92,29.43Z"/><polygon class="cls-9" points="13 26.05 12.96 25.83 11.64 18.09 11.83 18.06 13.11 25.58 18.52 18.39 18.68 18.5 13 26.05"/><path class="cls-10" d="M13.13,25.29H13a.17.17,0,0,0-.17.17v.88h.49v-.88A.16.16,0,0,0,13.13,25.29Z"/><rect class="cls-11" x="11.04" y="25.92" width="4.03" height="2.68" rx="0.58"/><path class="cls-12" d="M12.08,27.49a.52.52,0,1,0-.51-.52A.52.52,0,0,0,12.08,27.49Z"/><path class="cls-12" d="M12.08,27.5a.53.53,0,0,0-.53.51h1.06A.53.53,0,0,0,12.08,27.5Z"/><rect class="cls-12" x="13.07" y="26.57" width="1.15" height="0.16"/><rect class="cls-12" x="13.07" y="26.92" width="1.49" height="0.16"/><rect class="cls-12" x="13.07" y="27.44" width="1.49" height="0.16"/><rect class="cls-12" x="13.07" y="27.78" width="1.49" height="0.16"/></g></svg>