<svg id="Capa_1" data-name="Capa 1" xmlns="http://www.w3.org/2000/svg" xmlns:xlink="http://www.w3.org/1999/xlink" viewBox="0 0 29.97 29.97"><defs><style>.cls-1{fill:none;}.cls-2{fill:#fbbc21;}.cls-3{clip-path:url(#clip-path);}.cls-4{fill:#4c2b1b;}.cls-5{fill:#be202e;}.cls-6{fill:#5b3622;}.cls-7{fill:#f4c185;}.cls-8{fill:#e2a971;}.cls-9{fill:#d32b41;}.cls-10{fill:#231f20;}.cls-11{fill:#fcc10c;}.cls-12{fill:#fff;}.cls-13{fill:#d1d2d4;}</style><clipPath id="clip-path"><ellipse class="cls-1" cx="14.98" cy="14.98" rx="14.98" ry="14.98" transform="matrix(0, -1, 1, 0, -0.04, 29.92)"/></clipPath></defs><title>persona1</title><ellipse class="cls-2" cx="14.98" cy="14.98" rx="14.98" ry="14.98" transform="matrix(0, -1, 1, 0, -0.04, 29.92)"/><g class="cls-3"><path class="cls-4" d="M14.41,5.18A1.88,1.88,0,0,0,12.2,3.31c-1.53.26-2.06,2.12-1.92,3.46.07.77.34,1.5.46,2.26.07.44.38,1.24.22,1.69a1.13,1.13,0,0,1-.63.58,1.67,1.67,0,0,0,.6.61,2.45,2.45,0,0,0,1.65.31,3.39,3.39,0,0,0,1.49-.83c.48-.41.29-1.2,0-1.68-.39-.71-1-1.11-1.21-1.91a5,5,0,0,1-.18-1.09,7.56,7.56,0,0,0,.08-1A.92.92,0,0,0,14.41,5.18Z"/><path class="cls-5" d="M15.13,5.57a1.29,1.29,0,0,0-.22-.3A.91.91,0,0,0,14.4,5a.88.88,0,0,0-.57.11l-.21.13a1.15,1.15,0,0,0-.55.77,1.06,1.06,0,0,0,.3.86,1,1,0,0,0,.49.26h0l.23,0h.13a.72.72,0,0,0,.33-.11,1,1,0,0,0,.26-.24l.05,0a.92.92,0,0,0,.4-.53A.88.88,0,0,0,15.13,5.57Z"/><path class="cls-6" d="M20,6.55a.77.77,0,0,0-1.18-.29,1.48,1.48,0,0,0-.39-.35,2.06,2.06,0,0,0-2-.16.79.79,0,0,0-.73-.39A3.42,3.42,0,0,0,14,5.69,3.23,3.23,0,0,0,12.7,7.15a6.54,6.54,0,0,0,1,6.86c.46.54,1.22.69,1.54-.09l0,0a.88.88,0,0,0,.29.2l.05,0a2.05,2.05,0,0,0,2.65-.87l.06-.11.17-.08a4.92,4.92,0,0,0,1.86-2.48A5.64,5.64,0,0,0,20,6.55Z"/><path class="cls-7" d="M19.69,25.88c0-.89-.15-6.78.64-7.52.27-.26.87.51,1,.75a6.73,6.73,0,0,1,.88,2.48A34,34,0,0,1,23,28.66c.09,2.85.5,5.77.8,8.63.17,1.66.22,3.34.23,5,0,.9,0,1.79,0,2.68,0,.46,0,1-.35,1.25-.62.38-.78-.51-.89-1-.23-1.08-.44-2.17-.65-3.26A72.55,72.55,0,0,1,21,34.4,14.89,14.89,0,0,0,20.51,32a27.89,27.89,0,0,1-.82-5.21q0-.37,0-.75Z"/><path class="cls-7" d="M13.36,18a.55.55,0,0,0,.52.59,1.84,1.84,0,0,0,2.3.34h0c.5,0,1-.42.88-.89s-.17-.64-.26-1a4.19,4.19,0,0,1-.14-.62c-.1-.49-.2-1.1-.31-1.52a1.75,1.75,0,0,0-.1-.34c-.05-.15-.11,0-.17.14s-.07.11-.11,0v0a.9.9,0,0,0-1.08-.6,1,1,0,0,0-.65.69c-.19,0-.38.12-.46.44,0,.06,0,.13,0,.19a.17.17,0,0,0,0,.07l0,0a.65.65,0,0,0-.08.38v.24h0v0c0,.1,0,.21,0,.31,0,.29-.06.58-.11.87h0a.77.77,0,0,0,0,.25.83.83,0,0,1,0,.15A1.37,1.37,0,0,0,13.36,18Z"/><path class="cls-7" d="M21.77,37c-.26-.76-.6-1.49-.86-2.24a7.09,7.09,0,0,1-.35-2.63,38.83,38.83,0,0,1,.87-4.89V27.2c0-.1,0-.21,0-.31a4.64,4.64,0,0,0,0-.53c0-.2,0-.4,0-.6V25.7c0-.06,0-.15,0-.17-.13-.79-.35-1.56-.55-2.32a12.64,12.64,0,0,1-.53-5c-.84-.25-1.81-.21-2.62-.37a1.87,1.87,0,0,0-1.43.12,2.8,2.8,0,0,1-.82.43c-.55.11-.86-.25-1.31-.46a1.4,1.4,0,0,0-.55-.12c-.41,0-.87.41-1.23.58-.81.4-1.65.74-2.48,1.1a1,1,0,0,0-.73.93,8.6,8.6,0,0,0,.36,1.95A23.79,23.79,0,0,0,10,25c.4,1.71,1.1,3.34,1.47,5.07a6.57,6.57,0,0,1-.25,4l-1,2.69a5.14,5.14,0,0,0-.54,1.41c-.05,1,2.05,1.31,2.75,1.52a24.08,24.08,0,0,0,4.9,1,9.41,9.41,0,0,0,3-.16,5,5,0,0,0,1.74-.76c0-.71-.09-1.43-.15-2.14C21.89,37.43,21.83,37.23,21.77,37Z"/><path class="cls-4" d="M19.79,6.26a2.36,2.36,0,0,1-1.51,1.91,3.25,3.25,0,0,1-2.56-.38,3,3,0,0,1-1.45-2.24,1.17,1.17,0,0,1,.3-.19l.34-.17a4.33,4.33,0,0,1,.71-.27,3.82,3.82,0,0,1,1.43-.09A4.58,4.58,0,0,1,19.79,6.26Z"/><path class="cls-8" d="M16.93,18a3,3,0,0,1-3.3-1.55c.09-.49.2-3.08.3-3.51.11-.05.2,1.87.27,1.79a.55.55,0,0,0,.09-.14l0,.14L14.62,16l1.07-.22.9-2.85c.05.1.08,2.89.08,3v.24h0v0l0,.31c0,.29.07.58.12.87h0a.79.79,0,0,1,.05.25l0,.15A.65.65,0,0,1,16.93,18Z"/><path class="cls-7" d="M19.82,8.32a1.8,1.8,0,0,0-.6-.4c-.49-.2-1.25,0-1.75-.07-.87-.15-2.09-.49-2.79.21s-.49,1.65-.59,2.53a5.07,5.07,0,0,1-.09.54l0,0a1,1,0,0,0-.68-.26.49.49,0,0,0-.47.36A1.9,1.9,0,0,0,13.58,13h0a3.47,3.47,0,0,0,0,.91,4.63,4.63,0,0,0,1.59,2.57,2.19,2.19,0,0,0,2.38.51,2.78,2.78,0,0,0,1.72-1.83A7.87,7.87,0,0,0,20,12.3C20.07,11.06,20.78,9.27,19.82,8.32Z"/><path class="cls-9" d="M11.43,30.11a6.57,6.57,0,0,1-.25,4l-1,2.69a5.14,5.14,0,0,0-.54,1.41c0,.57.62.91,1.32,1.14.55.18,1.13.29,1.43.38.73.21,1.46.41,2.21.58l.62.13c.69.13,1.38.23,2.07.29a9.41,9.41,0,0,0,3-.16,5,5,0,0,0,1.74-.76c0-.51-.06-1-.1-1.54-.16-.82-.27-1.64-.37-2.46,0-.12,0-.23-.05-.34a1.15,1.15,0,0,0,0-.16c0-.2-.05-.4-.09-.6-.07-.42-.16-.85-.23-1.28A9.66,9.66,0,0,1,21.35,30c0-.23.1-.49.16-.75a4,4,0,0,1,.32-.88h0l0,0a5.32,5.32,0,0,0,.68-1.06,3.79,3.79,0,0,0-.25-2.6.88.88,0,0,0,.68-.86,10.41,10.41,0,0,0-1.73-5.23,2.67,2.67,0,0,0-.31-.36.79.79,0,0,0-.29-.21.81.81,0,0,0-.81.12h0a.76.76,0,0,1-.11.14.86.86,0,0,0-.07.1,5.18,5.18,0,0,1-3,1.82,6.58,6.58,0,0,1-5.15-1.07l-.2-.17c-.24.1-1.34.21-1.59.33A5.25,5.25,0,0,0,8,20.91,6,6,0,0,0,6.84,23c-.52,2,2.48,3,3.58,4.26A6.26,6.26,0,0,1,11.43,30.11Z"/><path class="cls-5" d="M21.86,28.31a.05.05,0,0,0,0,0h0a4,4,0,0,0-.32.88,3.55,3.55,0,0,1-1.67-.38A2.7,2.7,0,0,0,21.86,28.31Z"/><path class="cls-5" d="M12.59,29.41a12.51,12.51,0,0,1,0,5.43c-.32.8-1.2,3.29-1.61,4.46-.7-.23-1.35-.57-1.32-1.14a5.14,5.14,0,0,1,.54-1.41l1-2.69a6.57,6.57,0,0,0,.25-4c-.17-.77-.4-1.52-.64-2.27a8,8,0,0,0,.55-2.15c0,.25.1,2.93,1.25,3.09a6.87,6.87,0,0,0,2,0A2.32,2.32,0,0,1,12.59,29.41Z"/><path class="cls-7" d="M22.94,34.13c-.15-.33-.19-.28-.57-.44-.83-.36-1.92-.08-2.86-.14-.77,0-2-.3-2.76-.39a35.86,35.86,0,0,0-4.58-.76c-1.28,0-1.57-3.49-1.94-5.31C9.34,26.25,7.68,25.5,7,24.4H7a.41.41,0,0,1,0,.09,8,8,0,0,0,.06,2.18.58.58,0,0,0,0,.4,28.12,28.12,0,0,0,1.27,4.73c1.06,2.51,1.33,2.56,2.52,3a13.39,13.39,0,0,0,4.45.27l.92,0c1.26,0,2.52,0,3.77-.12C20.72,34.88,23.39,35.09,22.94,34.13Z"/><polygon class="cls-10" points="17.21 26.08 12.72 18.33 12.87 18.24 17.08 25.49 17.62 17.85 17.8 17.86 17.21 26.08"/><path class="cls-11" d="M17.22,25.3h-.14a.16.16,0,0,0-.16.16v.81h.45v-.81A.16.16,0,0,0,17.22,25.3Z"/><rect class="cls-12" x="15.3" y="25.88" width="3.68" height="2.46" rx="0.53"/><circle class="cls-10" cx="16.25" cy="26.85" r="0.47"/><path class="cls-10" d="M16.25,27.32a.49.49,0,0,0-.48.48h1A.5.5,0,0,0,16.25,27.32Z"/><rect class="cls-10" x="17.16" y="26.47" width="1.06" height="0.15"/><rect class="cls-10" x="17.16" y="26.79" width="1.36" height="0.15"/><rect class="cls-10" x="17.16" y="27.27" width="1.36" height="0.15"/><rect class="cls-10" x="17.16" y="27.59" width="1.36" height="0.15"/><polygon class="cls-12" points="28.55 42.78 32.69 30.23 24.59 27.12 20.38 39.48 28.55 42.78"/><polygon class="cls-13" points="30.25 30.45 26.2 28.95 26.11 29.36 30.14 30.86 30.25 30.45"/><polygon class="cls-13" points="31.12 32 24.79 29.56 24.69 29.96 30.99 32.41 31.12 32"/></g></svg>